%TF.GenerationSoftware,KiCad,Pcbnew,7.0.5-7.0.5~ubuntu22.04.1*%
%TF.CreationDate,2023-07-17T10:47:06+02:00*%
%TF.ProjectId,audio_iface,61756469-6f5f-4696-9661-63652e6b6963,rev?*%
%TF.SameCoordinates,Original*%
%TF.FileFunction,Soldermask,Bot*%
%TF.FilePolarity,Negative*%
%FSLAX46Y46*%
G04 Gerber Fmt 4.6, Leading zero omitted, Abs format (unit mm)*
G04 Created by KiCad (PCBNEW 7.0.5-7.0.5~ubuntu22.04.1) date 2023-07-17 10:47:06*
%MOMM*%
%LPD*%
G01*
G04 APERTURE LIST*
G04 Aperture macros list*
%AMRoundRect*
0 Rectangle with rounded corners*
0 $1 Rounding radius*
0 $2 $3 $4 $5 $6 $7 $8 $9 X,Y pos of 4 corners*
0 Add a 4 corners polygon primitive as box body*
4,1,4,$2,$3,$4,$5,$6,$7,$8,$9,$2,$3,0*
0 Add four circle primitives for the rounded corners*
1,1,$1+$1,$2,$3*
1,1,$1+$1,$4,$5*
1,1,$1+$1,$6,$7*
1,1,$1+$1,$8,$9*
0 Add four rect primitives between the rounded corners*
20,1,$1+$1,$2,$3,$4,$5,0*
20,1,$1+$1,$4,$5,$6,$7,0*
20,1,$1+$1,$6,$7,$8,$9,0*
20,1,$1+$1,$8,$9,$2,$3,0*%
G04 Aperture macros list end*
%ADD10C,1.500000*%
%ADD11C,2.200000*%
%ADD12RoundRect,0.250000X-0.725000X0.600000X-0.725000X-0.600000X0.725000X-0.600000X0.725000X0.600000X0*%
%ADD13O,1.950000X1.700000*%
%ADD14C,0.650000*%
%ADD15O,2.100000X1.000000*%
%ADD16O,1.600000X1.000000*%
%ADD17R,1.600000X1.600000*%
%ADD18C,1.600000*%
%ADD19R,1.700000X1.700000*%
%ADD20O,1.700000X1.700000*%
G04 APERTURE END LIST*
D10*
%TO.C,J302*%
X50000000Y-108275000D03*
X50000000Y-101275000D03*
%TD*%
D11*
%TO.C,TP102*%
X66000000Y-51000000D03*
%TD*%
%TO.C,TP301*%
X51000000Y-81000000D03*
%TD*%
%TO.C,TP308*%
X37000000Y-94000000D03*
%TD*%
%TO.C,TP202*%
X74000000Y-51000000D03*
%TD*%
%TO.C,TP204*%
X26000000Y-89000000D03*
%TD*%
D12*
%TO.C,J201*%
X24450000Y-100500000D03*
D13*
X24450000Y-103000000D03*
X24450000Y-105500000D03*
%TD*%
D11*
%TO.C,TP111*%
X31020000Y-85000000D03*
%TD*%
%TO.C,TP112*%
X31020000Y-80000000D03*
%TD*%
%TO.C,TP306*%
X32000000Y-94000000D03*
%TD*%
%TO.C,TP106*%
X40000000Y-74000000D03*
%TD*%
%TO.C,TP205*%
X73680000Y-74120000D03*
%TD*%
%TO.C,TP305*%
X52000000Y-94000000D03*
%TD*%
D14*
%TO.C,J401*%
X78400000Y-105890000D03*
X78400000Y-100110000D03*
D15*
X77870000Y-107320000D03*
D16*
X82050000Y-107320000D03*
D15*
X77870000Y-98680000D03*
D16*
X82050000Y-98680000D03*
%TD*%
D11*
%TO.C,TP101*%
X40000000Y-61000000D03*
%TD*%
%TO.C,TP107*%
X35000000Y-74000000D03*
%TD*%
%TO.C,TP104*%
X40000000Y-56000000D03*
%TD*%
D10*
%TO.C,J301*%
X65000000Y-108275000D03*
X65000000Y-101275000D03*
%TD*%
D11*
%TO.C,TP304*%
X47000000Y-94000000D03*
%TD*%
%TO.C,TP201*%
X27300000Y-53500000D03*
%TD*%
%TO.C,TP109*%
X30000000Y-74000000D03*
%TD*%
%TO.C,TP203*%
X26000000Y-94000000D03*
%TD*%
%TO.C,TP302*%
X62000000Y-94000000D03*
%TD*%
D17*
%TO.C,MK301*%
X58950000Y-81000000D03*
D18*
X57050000Y-81000000D03*
%TD*%
D11*
%TO.C,TP307*%
X42000000Y-94000000D03*
%TD*%
%TO.C,TP303*%
X67000000Y-94000000D03*
%TD*%
%TO.C,TP103*%
X61500000Y-51000000D03*
%TD*%
D10*
%TO.C,J303*%
X35000000Y-108275000D03*
X35000000Y-101275000D03*
%TD*%
D11*
%TO.C,TP105*%
X40000000Y-51000000D03*
%TD*%
D19*
%TO.C,U201*%
X18250000Y-47140000D03*
D20*
X20790000Y-47140000D03*
X18250000Y-49680000D03*
X20790000Y-49680000D03*
X18250000Y-52220000D03*
X20790000Y-52220000D03*
X18250000Y-54760000D03*
X20790000Y-54760000D03*
X18250000Y-57300000D03*
X20790000Y-57300000D03*
X18250000Y-59840000D03*
X20790000Y-59840000D03*
X18250000Y-62380000D03*
X20790000Y-62380000D03*
X18250000Y-64920000D03*
X20790000Y-64920000D03*
X18250000Y-67460000D03*
X20790000Y-67460000D03*
X18250000Y-70000000D03*
X20790000Y-70000000D03*
X18250000Y-72540000D03*
X20790000Y-72540000D03*
X18250000Y-75080000D03*
X20790000Y-75080000D03*
X18250000Y-77620000D03*
X20790000Y-77620000D03*
X18250000Y-80160000D03*
X20790000Y-80160000D03*
X18250000Y-82700000D03*
X20790000Y-82700000D03*
X18250000Y-85240000D03*
X20790000Y-85240000D03*
X18250000Y-87780000D03*
X20790000Y-87780000D03*
X18250000Y-90320000D03*
X20790000Y-90320000D03*
X18250000Y-92860000D03*
X20790000Y-92860000D03*
D19*
X79210000Y-47150000D03*
D20*
X81750000Y-47150000D03*
X79210000Y-49680000D03*
X81750000Y-49680000D03*
X79210000Y-52220000D03*
X81750000Y-52220000D03*
X79210000Y-54760000D03*
X81750000Y-54760000D03*
X79210000Y-57300000D03*
X81750000Y-57300000D03*
X79210000Y-59840000D03*
X81750000Y-59840000D03*
X79210000Y-62380000D03*
X81750000Y-62380000D03*
X79210000Y-64920000D03*
X81750000Y-64920000D03*
X79210000Y-67460000D03*
X81750000Y-67460000D03*
X79210000Y-70000000D03*
X81750000Y-70000000D03*
X79210000Y-72540000D03*
X81750000Y-72540000D03*
X79210000Y-75080000D03*
X81750000Y-75080000D03*
X79210000Y-77620000D03*
X81750000Y-77620000D03*
X79210000Y-80160000D03*
X81750000Y-80160000D03*
X79210000Y-82700000D03*
X81750000Y-82700000D03*
X79210000Y-85240000D03*
X81750000Y-85240000D03*
X79210000Y-87780000D03*
X81750000Y-87780000D03*
X79210000Y-90320000D03*
X81750000Y-90320000D03*
X79210000Y-92860000D03*
X81750000Y-92860000D03*
%TD*%
D11*
%TO.C,TP110*%
X30000000Y-69000000D03*
%TD*%
%TO.C,TP108*%
X40000000Y-69000000D03*
%TD*%
M02*
