%TF.GenerationSoftware,KiCad,Pcbnew,7.0.5-7.0.5~ubuntu22.04.1*%
%TF.CreationDate,2023-07-17T10:47:00+02:00*%
%TF.ProjectId,audio_iface,61756469-6f5f-4696-9661-63652e6b6963,rev?*%
%TF.SameCoordinates,Original*%
%TF.FileFunction,Drillmap*%
%TF.FilePolarity,Positive*%
%FSLAX45Y45*%
G04 Gerber Fmt 4.5, Leading zero omitted, Abs format (unit mm)*
G04 Created by KiCad (PCBNEW 7.0.5-7.0.5~ubuntu22.04.1) date 2023-07-17 10:47:00*
%MOMM*%
%LPD*%
G01*
G04 APERTURE LIST*
%ADD10C,0.150000*%
%ADD11C,0.200000*%
%ADD12C,0.065000*%
G04 APERTURE END LIST*
D10*
X8400000Y-11000000D02*
G75*
G03*
X8500000Y-10900000I0J100000D01*
G01*
X8500000Y-4500000D02*
G75*
G03*
X8400000Y-4400000I-100000J0D01*
G01*
X2650000Y-4750000D02*
X7350000Y-4750000D01*
X1500000Y-10900000D02*
X1500000Y-4500000D01*
X1600000Y-4400000D02*
G75*
G03*
X1500000Y-4500000I0J-100000D01*
G01*
X1500000Y-10900000D02*
G75*
G03*
X1600000Y-11000000I100000J0D01*
G01*
X2300000Y-4400000D02*
X2650000Y-4750000D01*
X1600000Y-4400000D02*
X2300000Y-4400000D01*
X8400000Y-11000000D02*
X1600000Y-11000000D01*
X7700000Y-4400000D02*
X8400000Y-4400000D01*
X8500000Y-4500000D02*
X8500000Y-10900000D01*
X7350000Y-4750000D02*
X7700000Y-4400000D01*
D11*
D12*
X7807500Y-9978500D02*
X7872500Y-10043500D01*
X7872500Y-9978500D02*
X7807500Y-10043500D01*
X7807500Y-10556500D02*
X7872500Y-10621500D01*
X7872500Y-10556500D02*
X7807500Y-10621500D01*
D10*
X3575000Y-10127500D02*
G75*
G03*
X3575000Y-10127500I-75000J0D01*
G01*
X3575000Y-10827500D02*
G75*
G03*
X3575000Y-10827500I-75000J0D01*
G01*
X5075000Y-10127500D02*
G75*
G03*
X5075000Y-10127500I-75000J0D01*
G01*
X5075000Y-10827500D02*
G75*
G03*
X5075000Y-10827500I-75000J0D01*
G01*
X6575000Y-10127500D02*
G75*
G03*
X6575000Y-10127500I-75000J0D01*
G01*
X6575000Y-10827500D02*
G75*
G03*
X6575000Y-10827500I-75000J0D01*
G01*
D11*
X1753277Y-11318984D02*
X1753277Y-11118984D01*
X1753277Y-11118984D02*
X1800896Y-11118984D01*
X1800896Y-11118984D02*
X1829467Y-11128508D01*
X1829467Y-11128508D02*
X1848515Y-11147555D01*
X1848515Y-11147555D02*
X1858039Y-11166603D01*
X1858039Y-11166603D02*
X1867562Y-11204698D01*
X1867562Y-11204698D02*
X1867562Y-11233269D01*
X1867562Y-11233269D02*
X1858039Y-11271365D01*
X1858039Y-11271365D02*
X1848515Y-11290412D01*
X1848515Y-11290412D02*
X1829467Y-11309460D01*
X1829467Y-11309460D02*
X1800896Y-11318984D01*
X1800896Y-11318984D02*
X1753277Y-11318984D01*
X1953277Y-11318984D02*
X1953277Y-11185650D01*
X1953277Y-11223746D02*
X1962801Y-11204698D01*
X1962801Y-11204698D02*
X1972324Y-11195174D01*
X1972324Y-11195174D02*
X1991372Y-11185650D01*
X1991372Y-11185650D02*
X2010420Y-11185650D01*
X2077086Y-11318984D02*
X2077086Y-11185650D01*
X2077086Y-11118984D02*
X2067562Y-11128508D01*
X2067562Y-11128508D02*
X2077086Y-11138031D01*
X2077086Y-11138031D02*
X2086610Y-11128508D01*
X2086610Y-11128508D02*
X2077086Y-11118984D01*
X2077086Y-11118984D02*
X2077086Y-11138031D01*
X2200896Y-11318984D02*
X2181848Y-11309460D01*
X2181848Y-11309460D02*
X2172324Y-11290412D01*
X2172324Y-11290412D02*
X2172324Y-11118984D01*
X2305658Y-11318984D02*
X2286610Y-11309460D01*
X2286610Y-11309460D02*
X2277086Y-11290412D01*
X2277086Y-11290412D02*
X2277086Y-11118984D01*
X2534229Y-11318984D02*
X2534229Y-11118984D01*
X2534229Y-11118984D02*
X2600896Y-11261841D01*
X2600896Y-11261841D02*
X2667563Y-11118984D01*
X2667563Y-11118984D02*
X2667563Y-11318984D01*
X2848515Y-11318984D02*
X2848515Y-11214222D01*
X2848515Y-11214222D02*
X2838991Y-11195174D01*
X2838991Y-11195174D02*
X2819943Y-11185650D01*
X2819943Y-11185650D02*
X2781848Y-11185650D01*
X2781848Y-11185650D02*
X2762801Y-11195174D01*
X2848515Y-11309460D02*
X2829467Y-11318984D01*
X2829467Y-11318984D02*
X2781848Y-11318984D01*
X2781848Y-11318984D02*
X2762801Y-11309460D01*
X2762801Y-11309460D02*
X2753277Y-11290412D01*
X2753277Y-11290412D02*
X2753277Y-11271365D01*
X2753277Y-11271365D02*
X2762801Y-11252317D01*
X2762801Y-11252317D02*
X2781848Y-11242793D01*
X2781848Y-11242793D02*
X2829467Y-11242793D01*
X2829467Y-11242793D02*
X2848515Y-11233269D01*
X2943753Y-11185650D02*
X2943753Y-11385650D01*
X2943753Y-11195174D02*
X2962801Y-11185650D01*
X2962801Y-11185650D02*
X3000896Y-11185650D01*
X3000896Y-11185650D02*
X3019943Y-11195174D01*
X3019943Y-11195174D02*
X3029467Y-11204698D01*
X3029467Y-11204698D02*
X3038991Y-11223746D01*
X3038991Y-11223746D02*
X3038991Y-11280888D01*
X3038991Y-11280888D02*
X3029467Y-11299936D01*
X3029467Y-11299936D02*
X3019943Y-11309460D01*
X3019943Y-11309460D02*
X3000896Y-11318984D01*
X3000896Y-11318984D02*
X2962801Y-11318984D01*
X2962801Y-11318984D02*
X2943753Y-11309460D01*
X3124705Y-11299936D02*
X3134229Y-11309460D01*
X3134229Y-11309460D02*
X3124705Y-11318984D01*
X3124705Y-11318984D02*
X3115182Y-11309460D01*
X3115182Y-11309460D02*
X3124705Y-11299936D01*
X3124705Y-11299936D02*
X3124705Y-11318984D01*
X3124705Y-11195174D02*
X3134229Y-11204698D01*
X3134229Y-11204698D02*
X3124705Y-11214222D01*
X3124705Y-11214222D02*
X3115182Y-11204698D01*
X3115182Y-11204698D02*
X3124705Y-11195174D01*
X3124705Y-11195174D02*
X3124705Y-11214222D01*
D12*
X1427500Y-11615000D02*
X1492500Y-11680000D01*
X1492500Y-11615000D02*
X1427500Y-11680000D01*
D11*
X1791372Y-11538984D02*
X1810420Y-11538984D01*
X1810420Y-11538984D02*
X1829467Y-11548508D01*
X1829467Y-11548508D02*
X1838991Y-11558031D01*
X1838991Y-11558031D02*
X1848515Y-11577079D01*
X1848515Y-11577079D02*
X1858039Y-11615174D01*
X1858039Y-11615174D02*
X1858039Y-11662793D01*
X1858039Y-11662793D02*
X1848515Y-11700888D01*
X1848515Y-11700888D02*
X1838991Y-11719936D01*
X1838991Y-11719936D02*
X1829467Y-11729460D01*
X1829467Y-11729460D02*
X1810420Y-11738984D01*
X1810420Y-11738984D02*
X1791372Y-11738984D01*
X1791372Y-11738984D02*
X1772324Y-11729460D01*
X1772324Y-11729460D02*
X1762801Y-11719936D01*
X1762801Y-11719936D02*
X1753277Y-11700888D01*
X1753277Y-11700888D02*
X1743753Y-11662793D01*
X1743753Y-11662793D02*
X1743753Y-11615174D01*
X1743753Y-11615174D02*
X1753277Y-11577079D01*
X1753277Y-11577079D02*
X1762801Y-11558031D01*
X1762801Y-11558031D02*
X1772324Y-11548508D01*
X1772324Y-11548508D02*
X1791372Y-11538984D01*
X1943753Y-11719936D02*
X1953277Y-11729460D01*
X1953277Y-11729460D02*
X1943753Y-11738984D01*
X1943753Y-11738984D02*
X1934229Y-11729460D01*
X1934229Y-11729460D02*
X1943753Y-11719936D01*
X1943753Y-11719936D02*
X1943753Y-11738984D01*
X2124705Y-11538984D02*
X2086610Y-11538984D01*
X2086610Y-11538984D02*
X2067562Y-11548508D01*
X2067562Y-11548508D02*
X2058039Y-11558031D01*
X2058039Y-11558031D02*
X2038991Y-11586603D01*
X2038991Y-11586603D02*
X2029467Y-11624698D01*
X2029467Y-11624698D02*
X2029467Y-11700888D01*
X2029467Y-11700888D02*
X2038991Y-11719936D01*
X2038991Y-11719936D02*
X2048515Y-11729460D01*
X2048515Y-11729460D02*
X2067562Y-11738984D01*
X2067562Y-11738984D02*
X2105658Y-11738984D01*
X2105658Y-11738984D02*
X2124705Y-11729460D01*
X2124705Y-11729460D02*
X2134229Y-11719936D01*
X2134229Y-11719936D02*
X2143753Y-11700888D01*
X2143753Y-11700888D02*
X2143753Y-11653269D01*
X2143753Y-11653269D02*
X2134229Y-11634222D01*
X2134229Y-11634222D02*
X2124705Y-11624698D01*
X2124705Y-11624698D02*
X2105658Y-11615174D01*
X2105658Y-11615174D02*
X2067562Y-11615174D01*
X2067562Y-11615174D02*
X2048515Y-11624698D01*
X2048515Y-11624698D02*
X2038991Y-11634222D01*
X2038991Y-11634222D02*
X2029467Y-11653269D01*
X2324705Y-11538984D02*
X2229467Y-11538984D01*
X2229467Y-11538984D02*
X2219944Y-11634222D01*
X2219944Y-11634222D02*
X2229467Y-11624698D01*
X2229467Y-11624698D02*
X2248515Y-11615174D01*
X2248515Y-11615174D02*
X2296134Y-11615174D01*
X2296134Y-11615174D02*
X2315182Y-11624698D01*
X2315182Y-11624698D02*
X2324705Y-11634222D01*
X2324705Y-11634222D02*
X2334229Y-11653269D01*
X2334229Y-11653269D02*
X2334229Y-11700888D01*
X2334229Y-11700888D02*
X2324705Y-11719936D01*
X2324705Y-11719936D02*
X2315182Y-11729460D01*
X2315182Y-11729460D02*
X2296134Y-11738984D01*
X2296134Y-11738984D02*
X2248515Y-11738984D01*
X2248515Y-11738984D02*
X2229467Y-11729460D01*
X2229467Y-11729460D02*
X2219944Y-11719936D01*
X2458039Y-11538984D02*
X2477086Y-11538984D01*
X2477086Y-11538984D02*
X2496134Y-11548508D01*
X2496134Y-11548508D02*
X2505658Y-11558031D01*
X2505658Y-11558031D02*
X2515182Y-11577079D01*
X2515182Y-11577079D02*
X2524705Y-11615174D01*
X2524705Y-11615174D02*
X2524705Y-11662793D01*
X2524705Y-11662793D02*
X2515182Y-11700888D01*
X2515182Y-11700888D02*
X2505658Y-11719936D01*
X2505658Y-11719936D02*
X2496134Y-11729460D01*
X2496134Y-11729460D02*
X2477086Y-11738984D01*
X2477086Y-11738984D02*
X2458039Y-11738984D01*
X2458039Y-11738984D02*
X2438991Y-11729460D01*
X2438991Y-11729460D02*
X2429467Y-11719936D01*
X2429467Y-11719936D02*
X2419944Y-11700888D01*
X2419944Y-11700888D02*
X2410420Y-11662793D01*
X2410420Y-11662793D02*
X2410420Y-11615174D01*
X2410420Y-11615174D02*
X2419944Y-11577079D01*
X2419944Y-11577079D02*
X2429467Y-11558031D01*
X2429467Y-11558031D02*
X2438991Y-11548508D01*
X2438991Y-11548508D02*
X2458039Y-11538984D01*
X2610420Y-11738984D02*
X2610420Y-11605650D01*
X2610420Y-11624698D02*
X2619944Y-11615174D01*
X2619944Y-11615174D02*
X2638991Y-11605650D01*
X2638991Y-11605650D02*
X2667563Y-11605650D01*
X2667563Y-11605650D02*
X2686610Y-11615174D01*
X2686610Y-11615174D02*
X2696134Y-11634222D01*
X2696134Y-11634222D02*
X2696134Y-11738984D01*
X2696134Y-11634222D02*
X2705658Y-11615174D01*
X2705658Y-11615174D02*
X2724705Y-11605650D01*
X2724705Y-11605650D02*
X2753277Y-11605650D01*
X2753277Y-11605650D02*
X2772325Y-11615174D01*
X2772325Y-11615174D02*
X2781848Y-11634222D01*
X2781848Y-11634222D02*
X2781848Y-11738984D01*
X2877086Y-11738984D02*
X2877086Y-11605650D01*
X2877086Y-11624698D02*
X2886610Y-11615174D01*
X2886610Y-11615174D02*
X2905658Y-11605650D01*
X2905658Y-11605650D02*
X2934229Y-11605650D01*
X2934229Y-11605650D02*
X2953277Y-11615174D01*
X2953277Y-11615174D02*
X2962801Y-11634222D01*
X2962801Y-11634222D02*
X2962801Y-11738984D01*
X2962801Y-11634222D02*
X2972324Y-11615174D01*
X2972324Y-11615174D02*
X2991372Y-11605650D01*
X2991372Y-11605650D02*
X3019943Y-11605650D01*
X3019943Y-11605650D02*
X3038991Y-11615174D01*
X3038991Y-11615174D02*
X3048515Y-11634222D01*
X3048515Y-11634222D02*
X3048515Y-11738984D01*
X3438991Y-11529460D02*
X3267563Y-11786603D01*
X3696134Y-11538984D02*
X3715182Y-11538984D01*
X3715182Y-11538984D02*
X3734229Y-11548508D01*
X3734229Y-11548508D02*
X3743753Y-11558031D01*
X3743753Y-11558031D02*
X3753277Y-11577079D01*
X3753277Y-11577079D02*
X3762801Y-11615174D01*
X3762801Y-11615174D02*
X3762801Y-11662793D01*
X3762801Y-11662793D02*
X3753277Y-11700888D01*
X3753277Y-11700888D02*
X3743753Y-11719936D01*
X3743753Y-11719936D02*
X3734229Y-11729460D01*
X3734229Y-11729460D02*
X3715182Y-11738984D01*
X3715182Y-11738984D02*
X3696134Y-11738984D01*
X3696134Y-11738984D02*
X3677086Y-11729460D01*
X3677086Y-11729460D02*
X3667563Y-11719936D01*
X3667563Y-11719936D02*
X3658039Y-11700888D01*
X3658039Y-11700888D02*
X3648515Y-11662793D01*
X3648515Y-11662793D02*
X3648515Y-11615174D01*
X3648515Y-11615174D02*
X3658039Y-11577079D01*
X3658039Y-11577079D02*
X3667563Y-11558031D01*
X3667563Y-11558031D02*
X3677086Y-11548508D01*
X3677086Y-11548508D02*
X3696134Y-11538984D01*
X3848515Y-11719936D02*
X3858039Y-11729460D01*
X3858039Y-11729460D02*
X3848515Y-11738984D01*
X3848515Y-11738984D02*
X3838991Y-11729460D01*
X3838991Y-11729460D02*
X3848515Y-11719936D01*
X3848515Y-11719936D02*
X3848515Y-11738984D01*
X3981848Y-11538984D02*
X4000896Y-11538984D01*
X4000896Y-11538984D02*
X4019944Y-11548508D01*
X4019944Y-11548508D02*
X4029467Y-11558031D01*
X4029467Y-11558031D02*
X4038991Y-11577079D01*
X4038991Y-11577079D02*
X4048515Y-11615174D01*
X4048515Y-11615174D02*
X4048515Y-11662793D01*
X4048515Y-11662793D02*
X4038991Y-11700888D01*
X4038991Y-11700888D02*
X4029467Y-11719936D01*
X4029467Y-11719936D02*
X4019944Y-11729460D01*
X4019944Y-11729460D02*
X4000896Y-11738984D01*
X4000896Y-11738984D02*
X3981848Y-11738984D01*
X3981848Y-11738984D02*
X3962801Y-11729460D01*
X3962801Y-11729460D02*
X3953277Y-11719936D01*
X3953277Y-11719936D02*
X3943753Y-11700888D01*
X3943753Y-11700888D02*
X3934229Y-11662793D01*
X3934229Y-11662793D02*
X3934229Y-11615174D01*
X3934229Y-11615174D02*
X3943753Y-11577079D01*
X3943753Y-11577079D02*
X3953277Y-11558031D01*
X3953277Y-11558031D02*
X3962801Y-11548508D01*
X3962801Y-11548508D02*
X3981848Y-11538984D01*
X4124706Y-11558031D02*
X4134229Y-11548508D01*
X4134229Y-11548508D02*
X4153277Y-11538984D01*
X4153277Y-11538984D02*
X4200896Y-11538984D01*
X4200896Y-11538984D02*
X4219944Y-11548508D01*
X4219944Y-11548508D02*
X4229468Y-11558031D01*
X4229468Y-11558031D02*
X4238991Y-11577079D01*
X4238991Y-11577079D02*
X4238991Y-11596127D01*
X4238991Y-11596127D02*
X4229468Y-11624698D01*
X4229468Y-11624698D02*
X4115182Y-11738984D01*
X4115182Y-11738984D02*
X4238991Y-11738984D01*
X4419944Y-11538984D02*
X4324706Y-11538984D01*
X4324706Y-11538984D02*
X4315182Y-11634222D01*
X4315182Y-11634222D02*
X4324706Y-11624698D01*
X4324706Y-11624698D02*
X4343753Y-11615174D01*
X4343753Y-11615174D02*
X4391372Y-11615174D01*
X4391372Y-11615174D02*
X4410420Y-11624698D01*
X4410420Y-11624698D02*
X4419944Y-11634222D01*
X4419944Y-11634222D02*
X4429468Y-11653269D01*
X4429468Y-11653269D02*
X4429468Y-11700888D01*
X4429468Y-11700888D02*
X4419944Y-11719936D01*
X4419944Y-11719936D02*
X4410420Y-11729460D01*
X4410420Y-11729460D02*
X4391372Y-11738984D01*
X4391372Y-11738984D02*
X4343753Y-11738984D01*
X4343753Y-11738984D02*
X4324706Y-11729460D01*
X4324706Y-11729460D02*
X4315182Y-11719936D01*
X4600896Y-11538984D02*
X4562801Y-11538984D01*
X4562801Y-11538984D02*
X4543753Y-11548508D01*
X4543753Y-11548508D02*
X4534229Y-11558031D01*
X4534229Y-11558031D02*
X4515182Y-11586603D01*
X4515182Y-11586603D02*
X4505658Y-11624698D01*
X4505658Y-11624698D02*
X4505658Y-11700888D01*
X4505658Y-11700888D02*
X4515182Y-11719936D01*
X4515182Y-11719936D02*
X4524706Y-11729460D01*
X4524706Y-11729460D02*
X4543753Y-11738984D01*
X4543753Y-11738984D02*
X4581849Y-11738984D01*
X4581849Y-11738984D02*
X4600896Y-11729460D01*
X4600896Y-11729460D02*
X4610420Y-11719936D01*
X4610420Y-11719936D02*
X4619944Y-11700888D01*
X4619944Y-11700888D02*
X4619944Y-11653269D01*
X4619944Y-11653269D02*
X4610420Y-11634222D01*
X4610420Y-11634222D02*
X4600896Y-11624698D01*
X4600896Y-11624698D02*
X4581849Y-11615174D01*
X4581849Y-11615174D02*
X4543753Y-11615174D01*
X4543753Y-11615174D02*
X4524706Y-11624698D01*
X4524706Y-11624698D02*
X4515182Y-11634222D01*
X4515182Y-11634222D02*
X4505658Y-11653269D01*
X4696134Y-11538984D02*
X4696134Y-11577079D01*
X4772325Y-11538984D02*
X4772325Y-11577079D01*
X5067563Y-11815174D02*
X5058039Y-11805650D01*
X5058039Y-11805650D02*
X5038991Y-11777079D01*
X5038991Y-11777079D02*
X5029468Y-11758031D01*
X5029468Y-11758031D02*
X5019944Y-11729460D01*
X5019944Y-11729460D02*
X5010420Y-11681841D01*
X5010420Y-11681841D02*
X5010420Y-11643746D01*
X5010420Y-11643746D02*
X5019944Y-11596127D01*
X5019944Y-11596127D02*
X5029468Y-11567555D01*
X5029468Y-11567555D02*
X5038991Y-11548508D01*
X5038991Y-11548508D02*
X5058039Y-11519936D01*
X5058039Y-11519936D02*
X5067563Y-11510412D01*
X5134230Y-11558031D02*
X5143753Y-11548508D01*
X5143753Y-11548508D02*
X5162801Y-11538984D01*
X5162801Y-11538984D02*
X5210420Y-11538984D01*
X5210420Y-11538984D02*
X5229468Y-11548508D01*
X5229468Y-11548508D02*
X5238991Y-11558031D01*
X5238991Y-11558031D02*
X5248515Y-11577079D01*
X5248515Y-11577079D02*
X5248515Y-11596127D01*
X5248515Y-11596127D02*
X5238991Y-11624698D01*
X5238991Y-11624698D02*
X5124706Y-11738984D01*
X5124706Y-11738984D02*
X5248515Y-11738984D01*
X5486611Y-11738984D02*
X5486611Y-11538984D01*
X5572325Y-11738984D02*
X5572325Y-11634222D01*
X5572325Y-11634222D02*
X5562801Y-11615174D01*
X5562801Y-11615174D02*
X5543753Y-11605650D01*
X5543753Y-11605650D02*
X5515182Y-11605650D01*
X5515182Y-11605650D02*
X5496134Y-11615174D01*
X5496134Y-11615174D02*
X5486611Y-11624698D01*
X5696134Y-11738984D02*
X5677087Y-11729460D01*
X5677087Y-11729460D02*
X5667563Y-11719936D01*
X5667563Y-11719936D02*
X5658039Y-11700888D01*
X5658039Y-11700888D02*
X5658039Y-11643746D01*
X5658039Y-11643746D02*
X5667563Y-11624698D01*
X5667563Y-11624698D02*
X5677087Y-11615174D01*
X5677087Y-11615174D02*
X5696134Y-11605650D01*
X5696134Y-11605650D02*
X5724706Y-11605650D01*
X5724706Y-11605650D02*
X5743753Y-11615174D01*
X5743753Y-11615174D02*
X5753277Y-11624698D01*
X5753277Y-11624698D02*
X5762801Y-11643746D01*
X5762801Y-11643746D02*
X5762801Y-11700888D01*
X5762801Y-11700888D02*
X5753277Y-11719936D01*
X5753277Y-11719936D02*
X5743753Y-11729460D01*
X5743753Y-11729460D02*
X5724706Y-11738984D01*
X5724706Y-11738984D02*
X5696134Y-11738984D01*
X5877087Y-11738984D02*
X5858039Y-11729460D01*
X5858039Y-11729460D02*
X5848515Y-11710412D01*
X5848515Y-11710412D02*
X5848515Y-11538984D01*
X6029468Y-11729460D02*
X6010420Y-11738984D01*
X6010420Y-11738984D02*
X5972325Y-11738984D01*
X5972325Y-11738984D02*
X5953277Y-11729460D01*
X5953277Y-11729460D02*
X5943753Y-11710412D01*
X5943753Y-11710412D02*
X5943753Y-11634222D01*
X5943753Y-11634222D02*
X5953277Y-11615174D01*
X5953277Y-11615174D02*
X5972325Y-11605650D01*
X5972325Y-11605650D02*
X6010420Y-11605650D01*
X6010420Y-11605650D02*
X6029468Y-11615174D01*
X6029468Y-11615174D02*
X6038991Y-11634222D01*
X6038991Y-11634222D02*
X6038991Y-11653269D01*
X6038991Y-11653269D02*
X5943753Y-11672317D01*
X6115182Y-11729460D02*
X6134230Y-11738984D01*
X6134230Y-11738984D02*
X6172325Y-11738984D01*
X6172325Y-11738984D02*
X6191372Y-11729460D01*
X6191372Y-11729460D02*
X6200896Y-11710412D01*
X6200896Y-11710412D02*
X6200896Y-11700888D01*
X6200896Y-11700888D02*
X6191372Y-11681841D01*
X6191372Y-11681841D02*
X6172325Y-11672317D01*
X6172325Y-11672317D02*
X6143753Y-11672317D01*
X6143753Y-11672317D02*
X6124706Y-11662793D01*
X6124706Y-11662793D02*
X6115182Y-11643746D01*
X6115182Y-11643746D02*
X6115182Y-11634222D01*
X6115182Y-11634222D02*
X6124706Y-11615174D01*
X6124706Y-11615174D02*
X6143753Y-11605650D01*
X6143753Y-11605650D02*
X6172325Y-11605650D01*
X6172325Y-11605650D02*
X6191372Y-11615174D01*
X6267563Y-11815174D02*
X6277087Y-11805650D01*
X6277087Y-11805650D02*
X6296134Y-11777079D01*
X6296134Y-11777079D02*
X6305658Y-11758031D01*
X6305658Y-11758031D02*
X6315182Y-11729460D01*
X6315182Y-11729460D02*
X6324706Y-11681841D01*
X6324706Y-11681841D02*
X6324706Y-11643746D01*
X6324706Y-11643746D02*
X6315182Y-11596127D01*
X6315182Y-11596127D02*
X6305658Y-11567555D01*
X6305658Y-11567555D02*
X6296134Y-11548508D01*
X6296134Y-11548508D02*
X6277087Y-11519936D01*
X6277087Y-11519936D02*
X6267563Y-11510412D01*
X6629468Y-11815174D02*
X6619944Y-11805650D01*
X6619944Y-11805650D02*
X6600896Y-11777079D01*
X6600896Y-11777079D02*
X6591372Y-11758031D01*
X6591372Y-11758031D02*
X6581849Y-11729460D01*
X6581849Y-11729460D02*
X6572325Y-11681841D01*
X6572325Y-11681841D02*
X6572325Y-11643746D01*
X6572325Y-11643746D02*
X6581849Y-11596127D01*
X6581849Y-11596127D02*
X6591372Y-11567555D01*
X6591372Y-11567555D02*
X6600896Y-11548508D01*
X6600896Y-11548508D02*
X6619944Y-11519936D01*
X6619944Y-11519936D02*
X6629468Y-11510412D01*
X6705658Y-11605650D02*
X6705658Y-11738984D01*
X6705658Y-11624698D02*
X6715182Y-11615174D01*
X6715182Y-11615174D02*
X6734230Y-11605650D01*
X6734230Y-11605650D02*
X6762801Y-11605650D01*
X6762801Y-11605650D02*
X6781849Y-11615174D01*
X6781849Y-11615174D02*
X6791372Y-11634222D01*
X6791372Y-11634222D02*
X6791372Y-11738984D01*
X6915182Y-11738984D02*
X6896134Y-11729460D01*
X6896134Y-11729460D02*
X6886611Y-11719936D01*
X6886611Y-11719936D02*
X6877087Y-11700888D01*
X6877087Y-11700888D02*
X6877087Y-11643746D01*
X6877087Y-11643746D02*
X6886611Y-11624698D01*
X6886611Y-11624698D02*
X6896134Y-11615174D01*
X6896134Y-11615174D02*
X6915182Y-11605650D01*
X6915182Y-11605650D02*
X6943753Y-11605650D01*
X6943753Y-11605650D02*
X6962801Y-11615174D01*
X6962801Y-11615174D02*
X6972325Y-11624698D01*
X6972325Y-11624698D02*
X6981849Y-11643746D01*
X6981849Y-11643746D02*
X6981849Y-11700888D01*
X6981849Y-11700888D02*
X6972325Y-11719936D01*
X6972325Y-11719936D02*
X6962801Y-11729460D01*
X6962801Y-11729460D02*
X6943753Y-11738984D01*
X6943753Y-11738984D02*
X6915182Y-11738984D01*
X7038992Y-11605650D02*
X7115182Y-11605650D01*
X7067563Y-11538984D02*
X7067563Y-11710412D01*
X7067563Y-11710412D02*
X7077087Y-11729460D01*
X7077087Y-11729460D02*
X7096134Y-11738984D01*
X7096134Y-11738984D02*
X7115182Y-11738984D01*
X7334230Y-11605650D02*
X7334230Y-11805650D01*
X7334230Y-11615174D02*
X7353277Y-11605650D01*
X7353277Y-11605650D02*
X7391373Y-11605650D01*
X7391373Y-11605650D02*
X7410420Y-11615174D01*
X7410420Y-11615174D02*
X7419944Y-11624698D01*
X7419944Y-11624698D02*
X7429468Y-11643746D01*
X7429468Y-11643746D02*
X7429468Y-11700888D01*
X7429468Y-11700888D02*
X7419944Y-11719936D01*
X7419944Y-11719936D02*
X7410420Y-11729460D01*
X7410420Y-11729460D02*
X7391373Y-11738984D01*
X7391373Y-11738984D02*
X7353277Y-11738984D01*
X7353277Y-11738984D02*
X7334230Y-11729460D01*
X7543753Y-11738984D02*
X7524706Y-11729460D01*
X7524706Y-11729460D02*
X7515182Y-11710412D01*
X7515182Y-11710412D02*
X7515182Y-11538984D01*
X7705658Y-11738984D02*
X7705658Y-11634222D01*
X7705658Y-11634222D02*
X7696134Y-11615174D01*
X7696134Y-11615174D02*
X7677087Y-11605650D01*
X7677087Y-11605650D02*
X7638992Y-11605650D01*
X7638992Y-11605650D02*
X7619944Y-11615174D01*
X7705658Y-11729460D02*
X7686611Y-11738984D01*
X7686611Y-11738984D02*
X7638992Y-11738984D01*
X7638992Y-11738984D02*
X7619944Y-11729460D01*
X7619944Y-11729460D02*
X7610420Y-11710412D01*
X7610420Y-11710412D02*
X7610420Y-11691365D01*
X7610420Y-11691365D02*
X7619944Y-11672317D01*
X7619944Y-11672317D02*
X7638992Y-11662793D01*
X7638992Y-11662793D02*
X7686611Y-11662793D01*
X7686611Y-11662793D02*
X7705658Y-11653269D01*
X7772325Y-11605650D02*
X7848515Y-11605650D01*
X7800896Y-11538984D02*
X7800896Y-11710412D01*
X7800896Y-11710412D02*
X7810420Y-11729460D01*
X7810420Y-11729460D02*
X7829468Y-11738984D01*
X7829468Y-11738984D02*
X7848515Y-11738984D01*
X7991373Y-11729460D02*
X7972325Y-11738984D01*
X7972325Y-11738984D02*
X7934230Y-11738984D01*
X7934230Y-11738984D02*
X7915182Y-11729460D01*
X7915182Y-11729460D02*
X7905658Y-11710412D01*
X7905658Y-11710412D02*
X7905658Y-11634222D01*
X7905658Y-11634222D02*
X7915182Y-11615174D01*
X7915182Y-11615174D02*
X7934230Y-11605650D01*
X7934230Y-11605650D02*
X7972325Y-11605650D01*
X7972325Y-11605650D02*
X7991373Y-11615174D01*
X7991373Y-11615174D02*
X8000896Y-11634222D01*
X8000896Y-11634222D02*
X8000896Y-11653269D01*
X8000896Y-11653269D02*
X7905658Y-11672317D01*
X8172325Y-11738984D02*
X8172325Y-11538984D01*
X8172325Y-11729460D02*
X8153277Y-11738984D01*
X8153277Y-11738984D02*
X8115182Y-11738984D01*
X8115182Y-11738984D02*
X8096134Y-11729460D01*
X8096134Y-11729460D02*
X8086611Y-11719936D01*
X8086611Y-11719936D02*
X8077087Y-11700888D01*
X8077087Y-11700888D02*
X8077087Y-11643746D01*
X8077087Y-11643746D02*
X8086611Y-11624698D01*
X8086611Y-11624698D02*
X8096134Y-11615174D01*
X8096134Y-11615174D02*
X8115182Y-11605650D01*
X8115182Y-11605650D02*
X8153277Y-11605650D01*
X8153277Y-11605650D02*
X8172325Y-11615174D01*
X8248515Y-11815174D02*
X8258039Y-11805650D01*
X8258039Y-11805650D02*
X8277087Y-11777079D01*
X8277087Y-11777079D02*
X8286611Y-11758031D01*
X8286611Y-11758031D02*
X8296134Y-11729460D01*
X8296134Y-11729460D02*
X8305658Y-11681841D01*
X8305658Y-11681841D02*
X8305658Y-11643746D01*
X8305658Y-11643746D02*
X8296134Y-11596127D01*
X8296134Y-11596127D02*
X8286611Y-11567555D01*
X8286611Y-11567555D02*
X8277087Y-11548508D01*
X8277087Y-11548508D02*
X8258039Y-11519936D01*
X8258039Y-11519936D02*
X8248515Y-11510412D01*
D10*
X1492500Y-11911500D02*
G75*
G03*
X1492500Y-11911500I-75000J0D01*
G01*
D11*
X1858039Y-12002984D02*
X1743753Y-12002984D01*
X1800896Y-12002984D02*
X1800896Y-11802984D01*
X1800896Y-11802984D02*
X1781848Y-11831555D01*
X1781848Y-11831555D02*
X1762801Y-11850603D01*
X1762801Y-11850603D02*
X1743753Y-11860127D01*
X1943753Y-11983936D02*
X1953277Y-11993460D01*
X1953277Y-11993460D02*
X1943753Y-12002984D01*
X1943753Y-12002984D02*
X1934229Y-11993460D01*
X1934229Y-11993460D02*
X1943753Y-11983936D01*
X1943753Y-11983936D02*
X1943753Y-12002984D01*
X2134229Y-11802984D02*
X2038991Y-11802984D01*
X2038991Y-11802984D02*
X2029467Y-11898222D01*
X2029467Y-11898222D02*
X2038991Y-11888698D01*
X2038991Y-11888698D02*
X2058039Y-11879174D01*
X2058039Y-11879174D02*
X2105658Y-11879174D01*
X2105658Y-11879174D02*
X2124705Y-11888698D01*
X2124705Y-11888698D02*
X2134229Y-11898222D01*
X2134229Y-11898222D02*
X2143753Y-11917269D01*
X2143753Y-11917269D02*
X2143753Y-11964888D01*
X2143753Y-11964888D02*
X2134229Y-11983936D01*
X2134229Y-11983936D02*
X2124705Y-11993460D01*
X2124705Y-11993460D02*
X2105658Y-12002984D01*
X2105658Y-12002984D02*
X2058039Y-12002984D01*
X2058039Y-12002984D02*
X2038991Y-11993460D01*
X2038991Y-11993460D02*
X2029467Y-11983936D01*
X2267563Y-11802984D02*
X2286610Y-11802984D01*
X2286610Y-11802984D02*
X2305658Y-11812508D01*
X2305658Y-11812508D02*
X2315182Y-11822031D01*
X2315182Y-11822031D02*
X2324705Y-11841079D01*
X2324705Y-11841079D02*
X2334229Y-11879174D01*
X2334229Y-11879174D02*
X2334229Y-11926793D01*
X2334229Y-11926793D02*
X2324705Y-11964888D01*
X2324705Y-11964888D02*
X2315182Y-11983936D01*
X2315182Y-11983936D02*
X2305658Y-11993460D01*
X2305658Y-11993460D02*
X2286610Y-12002984D01*
X2286610Y-12002984D02*
X2267563Y-12002984D01*
X2267563Y-12002984D02*
X2248515Y-11993460D01*
X2248515Y-11993460D02*
X2238991Y-11983936D01*
X2238991Y-11983936D02*
X2229467Y-11964888D01*
X2229467Y-11964888D02*
X2219944Y-11926793D01*
X2219944Y-11926793D02*
X2219944Y-11879174D01*
X2219944Y-11879174D02*
X2229467Y-11841079D01*
X2229467Y-11841079D02*
X2238991Y-11822031D01*
X2238991Y-11822031D02*
X2248515Y-11812508D01*
X2248515Y-11812508D02*
X2267563Y-11802984D01*
X2458039Y-11802984D02*
X2477086Y-11802984D01*
X2477086Y-11802984D02*
X2496134Y-11812508D01*
X2496134Y-11812508D02*
X2505658Y-11822031D01*
X2505658Y-11822031D02*
X2515182Y-11841079D01*
X2515182Y-11841079D02*
X2524705Y-11879174D01*
X2524705Y-11879174D02*
X2524705Y-11926793D01*
X2524705Y-11926793D02*
X2515182Y-11964888D01*
X2515182Y-11964888D02*
X2505658Y-11983936D01*
X2505658Y-11983936D02*
X2496134Y-11993460D01*
X2496134Y-11993460D02*
X2477086Y-12002984D01*
X2477086Y-12002984D02*
X2458039Y-12002984D01*
X2458039Y-12002984D02*
X2438991Y-11993460D01*
X2438991Y-11993460D02*
X2429467Y-11983936D01*
X2429467Y-11983936D02*
X2419944Y-11964888D01*
X2419944Y-11964888D02*
X2410420Y-11926793D01*
X2410420Y-11926793D02*
X2410420Y-11879174D01*
X2410420Y-11879174D02*
X2419944Y-11841079D01*
X2419944Y-11841079D02*
X2429467Y-11822031D01*
X2429467Y-11822031D02*
X2438991Y-11812508D01*
X2438991Y-11812508D02*
X2458039Y-11802984D01*
X2610420Y-12002984D02*
X2610420Y-11869650D01*
X2610420Y-11888698D02*
X2619944Y-11879174D01*
X2619944Y-11879174D02*
X2638991Y-11869650D01*
X2638991Y-11869650D02*
X2667563Y-11869650D01*
X2667563Y-11869650D02*
X2686610Y-11879174D01*
X2686610Y-11879174D02*
X2696134Y-11898222D01*
X2696134Y-11898222D02*
X2696134Y-12002984D01*
X2696134Y-11898222D02*
X2705658Y-11879174D01*
X2705658Y-11879174D02*
X2724705Y-11869650D01*
X2724705Y-11869650D02*
X2753277Y-11869650D01*
X2753277Y-11869650D02*
X2772325Y-11879174D01*
X2772325Y-11879174D02*
X2781848Y-11898222D01*
X2781848Y-11898222D02*
X2781848Y-12002984D01*
X2877086Y-12002984D02*
X2877086Y-11869650D01*
X2877086Y-11888698D02*
X2886610Y-11879174D01*
X2886610Y-11879174D02*
X2905658Y-11869650D01*
X2905658Y-11869650D02*
X2934229Y-11869650D01*
X2934229Y-11869650D02*
X2953277Y-11879174D01*
X2953277Y-11879174D02*
X2962801Y-11898222D01*
X2962801Y-11898222D02*
X2962801Y-12002984D01*
X2962801Y-11898222D02*
X2972324Y-11879174D01*
X2972324Y-11879174D02*
X2991372Y-11869650D01*
X2991372Y-11869650D02*
X3019943Y-11869650D01*
X3019943Y-11869650D02*
X3038991Y-11879174D01*
X3038991Y-11879174D02*
X3048515Y-11898222D01*
X3048515Y-11898222D02*
X3048515Y-12002984D01*
X3438991Y-11793460D02*
X3267563Y-12050603D01*
X3696134Y-11802984D02*
X3715182Y-11802984D01*
X3715182Y-11802984D02*
X3734229Y-11812508D01*
X3734229Y-11812508D02*
X3743753Y-11822031D01*
X3743753Y-11822031D02*
X3753277Y-11841079D01*
X3753277Y-11841079D02*
X3762801Y-11879174D01*
X3762801Y-11879174D02*
X3762801Y-11926793D01*
X3762801Y-11926793D02*
X3753277Y-11964888D01*
X3753277Y-11964888D02*
X3743753Y-11983936D01*
X3743753Y-11983936D02*
X3734229Y-11993460D01*
X3734229Y-11993460D02*
X3715182Y-12002984D01*
X3715182Y-12002984D02*
X3696134Y-12002984D01*
X3696134Y-12002984D02*
X3677086Y-11993460D01*
X3677086Y-11993460D02*
X3667563Y-11983936D01*
X3667563Y-11983936D02*
X3658039Y-11964888D01*
X3658039Y-11964888D02*
X3648515Y-11926793D01*
X3648515Y-11926793D02*
X3648515Y-11879174D01*
X3648515Y-11879174D02*
X3658039Y-11841079D01*
X3658039Y-11841079D02*
X3667563Y-11822031D01*
X3667563Y-11822031D02*
X3677086Y-11812508D01*
X3677086Y-11812508D02*
X3696134Y-11802984D01*
X3848515Y-11983936D02*
X3858039Y-11993460D01*
X3858039Y-11993460D02*
X3848515Y-12002984D01*
X3848515Y-12002984D02*
X3838991Y-11993460D01*
X3838991Y-11993460D02*
X3848515Y-11983936D01*
X3848515Y-11983936D02*
X3848515Y-12002984D01*
X3981848Y-11802984D02*
X4000896Y-11802984D01*
X4000896Y-11802984D02*
X4019944Y-11812508D01*
X4019944Y-11812508D02*
X4029467Y-11822031D01*
X4029467Y-11822031D02*
X4038991Y-11841079D01*
X4038991Y-11841079D02*
X4048515Y-11879174D01*
X4048515Y-11879174D02*
X4048515Y-11926793D01*
X4048515Y-11926793D02*
X4038991Y-11964888D01*
X4038991Y-11964888D02*
X4029467Y-11983936D01*
X4029467Y-11983936D02*
X4019944Y-11993460D01*
X4019944Y-11993460D02*
X4000896Y-12002984D01*
X4000896Y-12002984D02*
X3981848Y-12002984D01*
X3981848Y-12002984D02*
X3962801Y-11993460D01*
X3962801Y-11993460D02*
X3953277Y-11983936D01*
X3953277Y-11983936D02*
X3943753Y-11964888D01*
X3943753Y-11964888D02*
X3934229Y-11926793D01*
X3934229Y-11926793D02*
X3934229Y-11879174D01*
X3934229Y-11879174D02*
X3943753Y-11841079D01*
X3943753Y-11841079D02*
X3953277Y-11822031D01*
X3953277Y-11822031D02*
X3962801Y-11812508D01*
X3962801Y-11812508D02*
X3981848Y-11802984D01*
X4229468Y-11802984D02*
X4134229Y-11802984D01*
X4134229Y-11802984D02*
X4124706Y-11898222D01*
X4124706Y-11898222D02*
X4134229Y-11888698D01*
X4134229Y-11888698D02*
X4153277Y-11879174D01*
X4153277Y-11879174D02*
X4200896Y-11879174D01*
X4200896Y-11879174D02*
X4219944Y-11888698D01*
X4219944Y-11888698D02*
X4229468Y-11898222D01*
X4229468Y-11898222D02*
X4238991Y-11917269D01*
X4238991Y-11917269D02*
X4238991Y-11964888D01*
X4238991Y-11964888D02*
X4229468Y-11983936D01*
X4229468Y-11983936D02*
X4219944Y-11993460D01*
X4219944Y-11993460D02*
X4200896Y-12002984D01*
X4200896Y-12002984D02*
X4153277Y-12002984D01*
X4153277Y-12002984D02*
X4134229Y-11993460D01*
X4134229Y-11993460D02*
X4124706Y-11983936D01*
X4334229Y-12002984D02*
X4372325Y-12002984D01*
X4372325Y-12002984D02*
X4391372Y-11993460D01*
X4391372Y-11993460D02*
X4400896Y-11983936D01*
X4400896Y-11983936D02*
X4419944Y-11955365D01*
X4419944Y-11955365D02*
X4429468Y-11917269D01*
X4429468Y-11917269D02*
X4429468Y-11841079D01*
X4429468Y-11841079D02*
X4419944Y-11822031D01*
X4419944Y-11822031D02*
X4410420Y-11812508D01*
X4410420Y-11812508D02*
X4391372Y-11802984D01*
X4391372Y-11802984D02*
X4353277Y-11802984D01*
X4353277Y-11802984D02*
X4334229Y-11812508D01*
X4334229Y-11812508D02*
X4324706Y-11822031D01*
X4324706Y-11822031D02*
X4315182Y-11841079D01*
X4315182Y-11841079D02*
X4315182Y-11888698D01*
X4315182Y-11888698D02*
X4324706Y-11907746D01*
X4324706Y-11907746D02*
X4334229Y-11917269D01*
X4334229Y-11917269D02*
X4353277Y-11926793D01*
X4353277Y-11926793D02*
X4391372Y-11926793D01*
X4391372Y-11926793D02*
X4410420Y-11917269D01*
X4410420Y-11917269D02*
X4419944Y-11907746D01*
X4419944Y-11907746D02*
X4429468Y-11888698D01*
X4619944Y-12002984D02*
X4505658Y-12002984D01*
X4562801Y-12002984D02*
X4562801Y-11802984D01*
X4562801Y-11802984D02*
X4543753Y-11831555D01*
X4543753Y-11831555D02*
X4524706Y-11850603D01*
X4524706Y-11850603D02*
X4505658Y-11860127D01*
X4696134Y-11802984D02*
X4696134Y-11841079D01*
X4772325Y-11802984D02*
X4772325Y-11841079D01*
X5067563Y-12079174D02*
X5058039Y-12069650D01*
X5058039Y-12069650D02*
X5038991Y-12041079D01*
X5038991Y-12041079D02*
X5029468Y-12022031D01*
X5029468Y-12022031D02*
X5019944Y-11993460D01*
X5019944Y-11993460D02*
X5010420Y-11945841D01*
X5010420Y-11945841D02*
X5010420Y-11907746D01*
X5010420Y-11907746D02*
X5019944Y-11860127D01*
X5019944Y-11860127D02*
X5029468Y-11831555D01*
X5029468Y-11831555D02*
X5038991Y-11812508D01*
X5038991Y-11812508D02*
X5058039Y-11783936D01*
X5058039Y-11783936D02*
X5067563Y-11774412D01*
X5229468Y-11802984D02*
X5191372Y-11802984D01*
X5191372Y-11802984D02*
X5172325Y-11812508D01*
X5172325Y-11812508D02*
X5162801Y-11822031D01*
X5162801Y-11822031D02*
X5143753Y-11850603D01*
X5143753Y-11850603D02*
X5134230Y-11888698D01*
X5134230Y-11888698D02*
X5134230Y-11964888D01*
X5134230Y-11964888D02*
X5143753Y-11983936D01*
X5143753Y-11983936D02*
X5153277Y-11993460D01*
X5153277Y-11993460D02*
X5172325Y-12002984D01*
X5172325Y-12002984D02*
X5210420Y-12002984D01*
X5210420Y-12002984D02*
X5229468Y-11993460D01*
X5229468Y-11993460D02*
X5238991Y-11983936D01*
X5238991Y-11983936D02*
X5248515Y-11964888D01*
X5248515Y-11964888D02*
X5248515Y-11917269D01*
X5248515Y-11917269D02*
X5238991Y-11898222D01*
X5238991Y-11898222D02*
X5229468Y-11888698D01*
X5229468Y-11888698D02*
X5210420Y-11879174D01*
X5210420Y-11879174D02*
X5172325Y-11879174D01*
X5172325Y-11879174D02*
X5153277Y-11888698D01*
X5153277Y-11888698D02*
X5143753Y-11898222D01*
X5143753Y-11898222D02*
X5134230Y-11917269D01*
X5486611Y-12002984D02*
X5486611Y-11802984D01*
X5572325Y-12002984D02*
X5572325Y-11898222D01*
X5572325Y-11898222D02*
X5562801Y-11879174D01*
X5562801Y-11879174D02*
X5543753Y-11869650D01*
X5543753Y-11869650D02*
X5515182Y-11869650D01*
X5515182Y-11869650D02*
X5496134Y-11879174D01*
X5496134Y-11879174D02*
X5486611Y-11888698D01*
X5696134Y-12002984D02*
X5677087Y-11993460D01*
X5677087Y-11993460D02*
X5667563Y-11983936D01*
X5667563Y-11983936D02*
X5658039Y-11964888D01*
X5658039Y-11964888D02*
X5658039Y-11907746D01*
X5658039Y-11907746D02*
X5667563Y-11888698D01*
X5667563Y-11888698D02*
X5677087Y-11879174D01*
X5677087Y-11879174D02*
X5696134Y-11869650D01*
X5696134Y-11869650D02*
X5724706Y-11869650D01*
X5724706Y-11869650D02*
X5743753Y-11879174D01*
X5743753Y-11879174D02*
X5753277Y-11888698D01*
X5753277Y-11888698D02*
X5762801Y-11907746D01*
X5762801Y-11907746D02*
X5762801Y-11964888D01*
X5762801Y-11964888D02*
X5753277Y-11983936D01*
X5753277Y-11983936D02*
X5743753Y-11993460D01*
X5743753Y-11993460D02*
X5724706Y-12002984D01*
X5724706Y-12002984D02*
X5696134Y-12002984D01*
X5877087Y-12002984D02*
X5858039Y-11993460D01*
X5858039Y-11993460D02*
X5848515Y-11974412D01*
X5848515Y-11974412D02*
X5848515Y-11802984D01*
X6029468Y-11993460D02*
X6010420Y-12002984D01*
X6010420Y-12002984D02*
X5972325Y-12002984D01*
X5972325Y-12002984D02*
X5953277Y-11993460D01*
X5953277Y-11993460D02*
X5943753Y-11974412D01*
X5943753Y-11974412D02*
X5943753Y-11898222D01*
X5943753Y-11898222D02*
X5953277Y-11879174D01*
X5953277Y-11879174D02*
X5972325Y-11869650D01*
X5972325Y-11869650D02*
X6010420Y-11869650D01*
X6010420Y-11869650D02*
X6029468Y-11879174D01*
X6029468Y-11879174D02*
X6038991Y-11898222D01*
X6038991Y-11898222D02*
X6038991Y-11917269D01*
X6038991Y-11917269D02*
X5943753Y-11936317D01*
X6115182Y-11993460D02*
X6134230Y-12002984D01*
X6134230Y-12002984D02*
X6172325Y-12002984D01*
X6172325Y-12002984D02*
X6191372Y-11993460D01*
X6191372Y-11993460D02*
X6200896Y-11974412D01*
X6200896Y-11974412D02*
X6200896Y-11964888D01*
X6200896Y-11964888D02*
X6191372Y-11945841D01*
X6191372Y-11945841D02*
X6172325Y-11936317D01*
X6172325Y-11936317D02*
X6143753Y-11936317D01*
X6143753Y-11936317D02*
X6124706Y-11926793D01*
X6124706Y-11926793D02*
X6115182Y-11907746D01*
X6115182Y-11907746D02*
X6115182Y-11898222D01*
X6115182Y-11898222D02*
X6124706Y-11879174D01*
X6124706Y-11879174D02*
X6143753Y-11869650D01*
X6143753Y-11869650D02*
X6172325Y-11869650D01*
X6172325Y-11869650D02*
X6191372Y-11879174D01*
X6267563Y-12079174D02*
X6277087Y-12069650D01*
X6277087Y-12069650D02*
X6296134Y-12041079D01*
X6296134Y-12041079D02*
X6305658Y-12022031D01*
X6305658Y-12022031D02*
X6315182Y-11993460D01*
X6315182Y-11993460D02*
X6324706Y-11945841D01*
X6324706Y-11945841D02*
X6324706Y-11907746D01*
X6324706Y-11907746D02*
X6315182Y-11860127D01*
X6315182Y-11860127D02*
X6305658Y-11831555D01*
X6305658Y-11831555D02*
X6296134Y-11812508D01*
X6296134Y-11812508D02*
X6277087Y-11783936D01*
X6277087Y-11783936D02*
X6267563Y-11774412D01*
X6629468Y-12079174D02*
X6619944Y-12069650D01*
X6619944Y-12069650D02*
X6600896Y-12041079D01*
X6600896Y-12041079D02*
X6591372Y-12022031D01*
X6591372Y-12022031D02*
X6581849Y-11993460D01*
X6581849Y-11993460D02*
X6572325Y-11945841D01*
X6572325Y-11945841D02*
X6572325Y-11907746D01*
X6572325Y-11907746D02*
X6581849Y-11860127D01*
X6581849Y-11860127D02*
X6591372Y-11831555D01*
X6591372Y-11831555D02*
X6600896Y-11812508D01*
X6600896Y-11812508D02*
X6619944Y-11783936D01*
X6619944Y-11783936D02*
X6629468Y-11774412D01*
X6705658Y-11869650D02*
X6705658Y-12002984D01*
X6705658Y-11888698D02*
X6715182Y-11879174D01*
X6715182Y-11879174D02*
X6734230Y-11869650D01*
X6734230Y-11869650D02*
X6762801Y-11869650D01*
X6762801Y-11869650D02*
X6781849Y-11879174D01*
X6781849Y-11879174D02*
X6791372Y-11898222D01*
X6791372Y-11898222D02*
X6791372Y-12002984D01*
X6915182Y-12002984D02*
X6896134Y-11993460D01*
X6896134Y-11993460D02*
X6886611Y-11983936D01*
X6886611Y-11983936D02*
X6877087Y-11964888D01*
X6877087Y-11964888D02*
X6877087Y-11907746D01*
X6877087Y-11907746D02*
X6886611Y-11888698D01*
X6886611Y-11888698D02*
X6896134Y-11879174D01*
X6896134Y-11879174D02*
X6915182Y-11869650D01*
X6915182Y-11869650D02*
X6943753Y-11869650D01*
X6943753Y-11869650D02*
X6962801Y-11879174D01*
X6962801Y-11879174D02*
X6972325Y-11888698D01*
X6972325Y-11888698D02*
X6981849Y-11907746D01*
X6981849Y-11907746D02*
X6981849Y-11964888D01*
X6981849Y-11964888D02*
X6972325Y-11983936D01*
X6972325Y-11983936D02*
X6962801Y-11993460D01*
X6962801Y-11993460D02*
X6943753Y-12002984D01*
X6943753Y-12002984D02*
X6915182Y-12002984D01*
X7038992Y-11869650D02*
X7115182Y-11869650D01*
X7067563Y-11802984D02*
X7067563Y-11974412D01*
X7067563Y-11974412D02*
X7077087Y-11993460D01*
X7077087Y-11993460D02*
X7096134Y-12002984D01*
X7096134Y-12002984D02*
X7115182Y-12002984D01*
X7334230Y-11869650D02*
X7334230Y-12069650D01*
X7334230Y-11879174D02*
X7353277Y-11869650D01*
X7353277Y-11869650D02*
X7391373Y-11869650D01*
X7391373Y-11869650D02*
X7410420Y-11879174D01*
X7410420Y-11879174D02*
X7419944Y-11888698D01*
X7419944Y-11888698D02*
X7429468Y-11907746D01*
X7429468Y-11907746D02*
X7429468Y-11964888D01*
X7429468Y-11964888D02*
X7419944Y-11983936D01*
X7419944Y-11983936D02*
X7410420Y-11993460D01*
X7410420Y-11993460D02*
X7391373Y-12002984D01*
X7391373Y-12002984D02*
X7353277Y-12002984D01*
X7353277Y-12002984D02*
X7334230Y-11993460D01*
X7543753Y-12002984D02*
X7524706Y-11993460D01*
X7524706Y-11993460D02*
X7515182Y-11974412D01*
X7515182Y-11974412D02*
X7515182Y-11802984D01*
X7705658Y-12002984D02*
X7705658Y-11898222D01*
X7705658Y-11898222D02*
X7696134Y-11879174D01*
X7696134Y-11879174D02*
X7677087Y-11869650D01*
X7677087Y-11869650D02*
X7638992Y-11869650D01*
X7638992Y-11869650D02*
X7619944Y-11879174D01*
X7705658Y-11993460D02*
X7686611Y-12002984D01*
X7686611Y-12002984D02*
X7638992Y-12002984D01*
X7638992Y-12002984D02*
X7619944Y-11993460D01*
X7619944Y-11993460D02*
X7610420Y-11974412D01*
X7610420Y-11974412D02*
X7610420Y-11955365D01*
X7610420Y-11955365D02*
X7619944Y-11936317D01*
X7619944Y-11936317D02*
X7638992Y-11926793D01*
X7638992Y-11926793D02*
X7686611Y-11926793D01*
X7686611Y-11926793D02*
X7705658Y-11917269D01*
X7772325Y-11869650D02*
X7848515Y-11869650D01*
X7800896Y-11802984D02*
X7800896Y-11974412D01*
X7800896Y-11974412D02*
X7810420Y-11993460D01*
X7810420Y-11993460D02*
X7829468Y-12002984D01*
X7829468Y-12002984D02*
X7848515Y-12002984D01*
X7991373Y-11993460D02*
X7972325Y-12002984D01*
X7972325Y-12002984D02*
X7934230Y-12002984D01*
X7934230Y-12002984D02*
X7915182Y-11993460D01*
X7915182Y-11993460D02*
X7905658Y-11974412D01*
X7905658Y-11974412D02*
X7905658Y-11898222D01*
X7905658Y-11898222D02*
X7915182Y-11879174D01*
X7915182Y-11879174D02*
X7934230Y-11869650D01*
X7934230Y-11869650D02*
X7972325Y-11869650D01*
X7972325Y-11869650D02*
X7991373Y-11879174D01*
X7991373Y-11879174D02*
X8000896Y-11898222D01*
X8000896Y-11898222D02*
X8000896Y-11917269D01*
X8000896Y-11917269D02*
X7905658Y-11936317D01*
X8172325Y-12002984D02*
X8172325Y-11802984D01*
X8172325Y-11993460D02*
X8153277Y-12002984D01*
X8153277Y-12002984D02*
X8115182Y-12002984D01*
X8115182Y-12002984D02*
X8096134Y-11993460D01*
X8096134Y-11993460D02*
X8086611Y-11983936D01*
X8086611Y-11983936D02*
X8077087Y-11964888D01*
X8077087Y-11964888D02*
X8077087Y-11907746D01*
X8077087Y-11907746D02*
X8086611Y-11888698D01*
X8086611Y-11888698D02*
X8096134Y-11879174D01*
X8096134Y-11879174D02*
X8115182Y-11869650D01*
X8115182Y-11869650D02*
X8153277Y-11869650D01*
X8153277Y-11869650D02*
X8172325Y-11879174D01*
X8248515Y-12079174D02*
X8258039Y-12069650D01*
X8258039Y-12069650D02*
X8277087Y-12041079D01*
X8277087Y-12041079D02*
X8286611Y-12022031D01*
X8286611Y-12022031D02*
X8296134Y-11993460D01*
X8296134Y-11993460D02*
X8305658Y-11945841D01*
X8305658Y-11945841D02*
X8305658Y-11907746D01*
X8305658Y-11907746D02*
X8296134Y-11860127D01*
X8296134Y-11860127D02*
X8286611Y-11831555D01*
X8286611Y-11831555D02*
X8277087Y-11812508D01*
X8277087Y-11812508D02*
X8258039Y-11783936D01*
X8258039Y-11783936D02*
X8248515Y-11774412D01*
M02*
