%TF.GenerationSoftware,KiCad,Pcbnew,7.0.5-7.0.5~ubuntu22.04.1*%
%TF.CreationDate,2023-07-17T10:47:06+02:00*%
%TF.ProjectId,audio_iface,61756469-6f5f-4696-9661-63652e6b6963,rev?*%
%TF.SameCoordinates,Original*%
%TF.FileFunction,Legend,Bot*%
%TF.FilePolarity,Positive*%
%FSLAX46Y46*%
G04 Gerber Fmt 4.6, Leading zero omitted, Abs format (unit mm)*
G04 Created by KiCad (PCBNEW 7.0.5-7.0.5~ubuntu22.04.1) date 2023-07-17 10:47:06*
%MOMM*%
%LPD*%
G01*
G04 APERTURE LIST*
%ADD10C,0.150000*%
%ADD11C,0.120000*%
G04 APERTURE END LIST*
D10*
%TO.C,U201*%
X82194285Y-44374819D02*
X82194285Y-45184342D01*
X82194285Y-45184342D02*
X82146666Y-45279580D01*
X82146666Y-45279580D02*
X82099047Y-45327200D01*
X82099047Y-45327200D02*
X82003809Y-45374819D01*
X82003809Y-45374819D02*
X81813333Y-45374819D01*
X81813333Y-45374819D02*
X81718095Y-45327200D01*
X81718095Y-45327200D02*
X81670476Y-45279580D01*
X81670476Y-45279580D02*
X81622857Y-45184342D01*
X81622857Y-45184342D02*
X81622857Y-44374819D01*
X81194285Y-44470057D02*
X81146666Y-44422438D01*
X81146666Y-44422438D02*
X81051428Y-44374819D01*
X81051428Y-44374819D02*
X80813333Y-44374819D01*
X80813333Y-44374819D02*
X80718095Y-44422438D01*
X80718095Y-44422438D02*
X80670476Y-44470057D01*
X80670476Y-44470057D02*
X80622857Y-44565295D01*
X80622857Y-44565295D02*
X80622857Y-44660533D01*
X80622857Y-44660533D02*
X80670476Y-44803390D01*
X80670476Y-44803390D02*
X81241904Y-45374819D01*
X81241904Y-45374819D02*
X80622857Y-45374819D01*
X80003809Y-44374819D02*
X79908571Y-44374819D01*
X79908571Y-44374819D02*
X79813333Y-44422438D01*
X79813333Y-44422438D02*
X79765714Y-44470057D01*
X79765714Y-44470057D02*
X79718095Y-44565295D01*
X79718095Y-44565295D02*
X79670476Y-44755771D01*
X79670476Y-44755771D02*
X79670476Y-44993866D01*
X79670476Y-44993866D02*
X79718095Y-45184342D01*
X79718095Y-45184342D02*
X79765714Y-45279580D01*
X79765714Y-45279580D02*
X79813333Y-45327200D01*
X79813333Y-45327200D02*
X79908571Y-45374819D01*
X79908571Y-45374819D02*
X80003809Y-45374819D01*
X80003809Y-45374819D02*
X80099047Y-45327200D01*
X80099047Y-45327200D02*
X80146666Y-45279580D01*
X80146666Y-45279580D02*
X80194285Y-45184342D01*
X80194285Y-45184342D02*
X80241904Y-44993866D01*
X80241904Y-44993866D02*
X80241904Y-44755771D01*
X80241904Y-44755771D02*
X80194285Y-44565295D01*
X80194285Y-44565295D02*
X80146666Y-44470057D01*
X80146666Y-44470057D02*
X80099047Y-44422438D01*
X80099047Y-44422438D02*
X80003809Y-44374819D01*
X78718095Y-45374819D02*
X79289523Y-45374819D01*
X79003809Y-45374819D02*
X79003809Y-44374819D01*
X79003809Y-44374819D02*
X79099047Y-44517676D01*
X79099047Y-44517676D02*
X79194285Y-44612914D01*
X79194285Y-44612914D02*
X79289523Y-44660533D01*
D11*
X16920000Y-45810000D02*
X16920000Y-47140000D01*
X16920000Y-48410000D02*
X16920000Y-94190000D01*
X18250000Y-45810000D02*
X16920000Y-45810000D01*
X19520000Y-45810000D02*
X19520000Y-48410000D01*
X19520000Y-48410000D02*
X16920000Y-48410000D01*
X22120000Y-45810000D02*
X19520000Y-45810000D01*
X22120000Y-45810000D02*
X22120000Y-94190000D01*
X22120000Y-94190000D02*
X16920000Y-94190000D01*
X77880000Y-45820000D02*
X77880000Y-47150000D01*
X77880000Y-48420000D02*
X77880000Y-94200000D01*
X79210000Y-45820000D02*
X77880000Y-45820000D01*
X80480000Y-45820000D02*
X80480000Y-48420000D01*
X80480000Y-48420000D02*
X77880000Y-48420000D01*
X83080000Y-45820000D02*
X80480000Y-45820000D01*
X83080000Y-45820000D02*
X83080000Y-94200000D01*
X83080000Y-94200000D02*
X77880000Y-94200000D01*
%TD*%
M02*
