M48
; DRILL file {KiCad 7.0.5-7.0.5~ubuntu22.04.1} date lun. 17 juil. 2023 10:46:57
; FORMAT={-:-/ absolute / inch / decimal}
; #@! TF.CreationDate,2023-07-17T10:46:57+02:00
; #@! TF.GenerationSoftware,Kicad,Pcbnew,7.0.5-7.0.5~ubuntu22.04.1
; #@! TF.FileFunction,Plated,1,2,PTH
FMAT,2
INCH
; #@! TA.AperFunction,Plated,PTH,ViaDrill
T1C0.0079
; #@! TA.AperFunction,Plated,PTH,ViaDrill
T2C0.0118
; #@! TA.AperFunction,Plated,PTH,ViaDrill
T3C0.0157
; #@! TA.AperFunction,Plated,PTH,ComponentDrill
T4C0.0236
; #@! TA.AperFunction,Plated,PTH,ComponentDrill
T5C0.0315
; #@! TA.AperFunction,Plated,PTH,ComponentDrill
T6C0.0374
; #@! TA.AperFunction,Plated,PTH,ComponentDrill
T7C0.0394
; #@! TA.AperFunction,Plated,PTH,ComponentDrill
T8C0.0433
%
G90
G05
T1
X1.6042Y-3.3583
T2
X0.6134Y-2.4181
X0.6134Y-3.4102
X0.6173Y-3.0087
X0.6252Y-2.1071
X0.6291Y-1.7724
X0.6291Y-2.611
X0.6291Y-3.7409
X0.6331Y-3.2134
X0.637Y-4.2961
X0.8575Y-3.0047
X0.8614Y-2.3039
X0.8614Y-2.4063
X0.8614Y-2.5087
X0.8614Y-2.6071
X0.8614Y-3.2055
X0.8614Y-3.3079
X0.8614Y-3.4063
X0.8614Y-3.5087
X0.8614Y-3.6071
X0.885Y-1.9693
X0.9283Y-2.9024
X0.9283Y-2.985
X0.9598Y-2.4575
X0.9717Y-3.0598
X0.9795Y-3.7646
X1.0071Y-2.5795
X1.011Y-1.8669
X1.0228Y-2.1661
X1.0346Y-2.2567
X1.0583Y-3.6228
X1.0858Y-3.0717
X1.0858Y-3.3079
X1.1134Y-2.7724
X1.1291Y-2.4575
X1.1409Y-2.1583
X1.1409Y-2.9732
X1.1449Y-3.7567
X1.1488Y-3.3709
X1.2Y-3.0283
X1.2079Y-3.8669
X1.2079Y-3.9811
X1.2197Y-2.1543
X1.2236Y-2.3591
X1.2236Y-2.4575
X1.2236Y-2.5717
X1.2236Y-2.9811
X1.2276Y-2.6543
X1.2323Y-2.1063
X1.2551Y-2.737
X1.2591Y-3.237
X1.2709Y-3.485
X1.2748Y-2.0835
X1.2748Y-2.2134
X1.2787Y-1.9693
X1.2795Y-2.5197
X1.2945Y-4.1346
X1.3142Y-2.8709
X1.3142Y-3.6465
X1.322Y-3.5756
X1.322Y-3.8748
X1.326Y-1.8866
X1.3339Y-3.3
X1.3535Y-3.115
X1.3693Y-2.985
X1.3701Y-3.1575
X1.3701Y-3.2992
X1.4008Y-2.0874
X1.4244Y-3.8984
X1.4559Y-2.8748
X1.4559Y-2.9378
X1.4953Y-2.7409
X1.4992Y-3.115
X1.5Y-3.3425
X1.5031Y-2.2409
X1.5031Y-2.3591
X1.5099Y-3.3827
X1.5356Y-3.0706
X1.5591Y-3.3858
X1.5622Y-3.4646
X1.5906Y-3.2047
X1.5906Y-3.252
X1.6016Y-2.985
X1.6142Y-3.0236
X1.6378Y-3.2047
X1.6378Y-3.252
X1.6409Y-2.8748
X1.6528Y-2.3551
X1.6685Y-4.1071
X1.6929Y-3.378
X1.7118Y-2.4654
X1.7118Y-2.678
X1.7118Y-2.9969
X1.7157Y-2.5717
X1.7157Y-3.9772
X1.7236Y-2.3591
X1.7315Y-3.115
X1.7323Y-2.0374
X1.7323Y-2.0866
X1.7323Y-2.1378
X1.7433Y-2.8276
X1.7709Y-3.0008
X1.7717Y-3.3465
X1.7827Y-4.0283
X1.8299Y-3.1425
X1.8457Y-2.926
X1.8535Y-2.111
X1.8575Y-2.0598
X1.8614Y-2.2449
X1.8614Y-3.8236
X1.889Y-3.3669
X1.889Y-3.6307
X1.8969Y-3.2173
X1.9205Y-3.8906
X1.9244Y-4.1268
X1.952Y-3.115
X1.9677Y-2.8315
X1.9835Y-1.8866
X2.0031Y-3.6346
X2.011Y-3.489
X2.0307Y-3.8787
X2.0819Y-3.5362
X2.0906Y-2.185
X2.0906Y-2.2874
X2.0984Y-2.2382
X2.1055Y-1.9929
X2.1094Y-3.111
X2.1614Y-3.8799
X2.2402Y-2.2205
X2.2512Y-1.9929
X2.2591Y-3.5795
X2.3063Y-3.9772
X2.3575Y-4.1307
X2.3732Y-4.0244
X2.3811Y-3.7528
X2.5071Y-1.8866
X2.5189Y-3.0126
X2.5386Y-3.3433
X2.5492Y-2.2874
X2.574Y-3.5835
X2.5976Y-1.9339
X2.6252Y-3.8827
X2.6331Y-3.985
X2.6685Y-2.0362
X2.75Y-3.8799
X2.822Y-3.3472
X2.822Y-3.615
X2.822Y-3.7213
X2.8417Y-2.0362
X2.874Y-3.8543
X2.874Y-4.0197
X2.9047Y-1.8906
X2.9244Y-3.3472
X2.9244Y-3.5165
X2.9244Y-3.6307
X2.9244Y-3.7213
X2.9402Y-2.8315
X2.9402Y-3.0126
X2.9598Y-2.0677
X2.9724Y-4.1496
X2.9882Y-3.9252
X2.9882Y-4.1831
X3.0386Y-1.7567
X3.0504Y-3.3472
X3.0701Y-2.8039
X3.0701Y-2.9063
X3.0701Y-3.0047
X3.074Y-3.4063
X3.074Y-3.5047
X3.074Y-3.6071
X3.0846Y-3.8189
X3.0866Y-4.2913
X3.1685Y-3.6976
X3.2669Y-3.6976
X3.3024Y-1.7685
X3.3142Y-4.3
X3.3181Y-3.7921
T3
X1.3417Y-3.3827
T5
X2.2461Y-3.189
X2.3209Y-3.189
T6
X0.9626Y-3.9567
X0.9626Y-4.0551
X0.9626Y-4.1535
T7
X0.7185Y-1.8559
X0.7185Y-1.9559
X0.7185Y-2.0559
X0.7185Y-2.1559
X0.7185Y-2.2559
X0.7185Y-2.3559
X0.7185Y-2.4559
X0.7185Y-2.5559
X0.7185Y-2.6559
X0.7185Y-2.7559
X0.7185Y-2.8559
X0.7185Y-2.9559
X0.7185Y-3.0559
X0.7185Y-3.1559
X0.7185Y-3.2559
X0.7185Y-3.3559
X0.7185Y-3.4559
X0.7185Y-3.5559
X0.7185Y-3.6559
X0.8185Y-1.8559
X0.8185Y-1.9559
X0.8185Y-2.0559
X0.8185Y-2.1559
X0.8185Y-2.2559
X0.8185Y-2.3559
X0.8185Y-2.4559
X0.8185Y-2.5559
X0.8185Y-2.6559
X0.8185Y-2.7559
X0.8185Y-2.8559
X0.8185Y-2.9559
X0.8185Y-3.0559
X0.8185Y-3.1559
X0.8185Y-3.2559
X0.8185Y-3.3559
X0.8185Y-3.4559
X0.8185Y-3.5559
X0.8185Y-3.6559
X3.1185Y-1.8563
X3.1185Y-1.9559
X3.1185Y-2.0559
X3.1185Y-2.1559
X3.1185Y-2.2559
X3.1185Y-2.3559
X3.1185Y-2.4559
X3.1185Y-2.5559
X3.1185Y-2.6559
X3.1185Y-2.7559
X3.1185Y-2.8559
X3.1185Y-2.9559
X3.1185Y-3.0559
X3.1185Y-3.1559
X3.1185Y-3.2559
X3.1185Y-3.3559
X3.1185Y-3.4559
X3.1185Y-3.5559
X3.1185Y-3.6559
X3.2185Y-1.8563
X3.2185Y-1.9559
X3.2185Y-2.0559
X3.2185Y-2.1559
X3.2185Y-2.2559
X3.2185Y-2.3559
X3.2185Y-2.4559
X3.2185Y-2.5559
X3.2185Y-2.6559
X3.2185Y-2.7559
X3.2185Y-2.8559
X3.2185Y-2.9559
X3.2185Y-3.0559
X3.2185Y-3.1559
X3.2185Y-3.2559
X3.2185Y-3.3559
X3.2185Y-3.4559
X3.2185Y-3.5559
X3.2185Y-3.6559
T8
X1.0236Y-3.5039
X1.0236Y-3.7008
X1.0748Y-2.1063
X1.1811Y-2.7165
X1.1811Y-2.9134
X1.2213Y-3.1496
X1.2213Y-3.3465
X1.2598Y-3.7008
X1.378Y-2.9134
X1.4567Y-3.7008
X1.5748Y-2.0079
X1.5748Y-2.2047
X1.5748Y-2.4016
X1.5748Y-2.7165
X1.5748Y-2.9134
X1.6535Y-3.7008
X1.8504Y-3.7008
X2.0079Y-3.189
X2.0472Y-3.7008
X2.4213Y-2.0079
X2.4409Y-3.7008
X2.5984Y-2.0079
X2.6378Y-3.7008
X2.9008Y-2.9181
X2.9134Y-2.0079
T4
G00X3.0441Y-3.885
M15
G01X3.0874Y-3.885
M16
G05
G00X3.0441Y-4.2252
M15
G01X3.0874Y-4.2252
M16
G05
G00X3.2185Y-3.885
M15
G01X3.2421Y-3.885
M16
G05
G00X3.2185Y-4.2252
M15
G01X3.2421Y-4.2252
M16
G05
T0
M30
