%TF.GenerationSoftware,KiCad,Pcbnew,7.0.5-7.0.5~ubuntu22.04.1*%
%TF.CreationDate,2023-07-17T10:47:06+02:00*%
%TF.ProjectId,audio_iface,61756469-6f5f-4696-9661-63652e6b6963,rev?*%
%TF.SameCoordinates,Original*%
%TF.FileFunction,Copper,L2,Bot*%
%TF.FilePolarity,Positive*%
%FSLAX46Y46*%
G04 Gerber Fmt 4.6, Leading zero omitted, Abs format (unit mm)*
G04 Created by KiCad (PCBNEW 7.0.5-7.0.5~ubuntu22.04.1) date 2023-07-17 10:47:06*
%MOMM*%
%LPD*%
G01*
G04 APERTURE LIST*
G04 Aperture macros list*
%AMRoundRect*
0 Rectangle with rounded corners*
0 $1 Rounding radius*
0 $2 $3 $4 $5 $6 $7 $8 $9 X,Y pos of 4 corners*
0 Add a 4 corners polygon primitive as box body*
4,1,4,$2,$3,$4,$5,$6,$7,$8,$9,$2,$3,0*
0 Add four circle primitives for the rounded corners*
1,1,$1+$1,$2,$3*
1,1,$1+$1,$4,$5*
1,1,$1+$1,$6,$7*
1,1,$1+$1,$8,$9*
0 Add four rect primitives between the rounded corners*
20,1,$1+$1,$2,$3,$4,$5,0*
20,1,$1+$1,$4,$5,$6,$7,0*
20,1,$1+$1,$6,$7,$8,$9,0*
20,1,$1+$1,$8,$9,$2,$3,0*%
G04 Aperture macros list end*
%TA.AperFunction,ComponentPad*%
%ADD10C,2.200000*%
%TD*%
%TA.AperFunction,ComponentPad*%
%ADD11RoundRect,0.250000X-0.725000X0.600000X-0.725000X-0.600000X0.725000X-0.600000X0.725000X0.600000X0*%
%TD*%
%TA.AperFunction,ComponentPad*%
%ADD12O,1.950000X1.700000*%
%TD*%
%TA.AperFunction,ComponentPad*%
%ADD13O,2.100000X1.000000*%
%TD*%
%TA.AperFunction,ComponentPad*%
%ADD14O,1.600000X1.000000*%
%TD*%
%TA.AperFunction,ComponentPad*%
%ADD15R,1.600000X1.600000*%
%TD*%
%TA.AperFunction,ComponentPad*%
%ADD16C,1.600000*%
%TD*%
%TA.AperFunction,ComponentPad*%
%ADD17R,1.700000X1.700000*%
%TD*%
%TA.AperFunction,ComponentPad*%
%ADD18O,1.700000X1.700000*%
%TD*%
%TA.AperFunction,ViaPad*%
%ADD19C,0.600000*%
%TD*%
%TA.AperFunction,ViaPad*%
%ADD20C,0.800000*%
%TD*%
%TA.AperFunction,ViaPad*%
%ADD21C,0.400000*%
%TD*%
%TA.AperFunction,Conductor*%
%ADD22C,1.000000*%
%TD*%
%TA.AperFunction,Conductor*%
%ADD23C,0.400000*%
%TD*%
%TA.AperFunction,Conductor*%
%ADD24C,0.600000*%
%TD*%
G04 APERTURE END LIST*
D10*
%TO.P,TP102,1,1*%
%TO.N,/NUCLEO/VU_MISO*%
X66000000Y-51000000D03*
%TD*%
%TO.P,TP301,1,1*%
%TO.N,/AUDIO CODEC/MIC*%
X51000000Y-81000000D03*
%TD*%
%TO.P,TP308,1,1*%
%TO.N,/AUDIO CODEC/HP_L*%
X37000000Y-94000000D03*
%TD*%
%TO.P,TP202,1,1*%
%TO.N,+3.3VA*%
X74000000Y-51000000D03*
%TD*%
%TO.P,TP204,1,1*%
%TO.N,/NUCLEO/UART_TX*%
X26000000Y-89000000D03*
%TD*%
D11*
%TO.P,J201,1,Pin_1*%
%TO.N,/NUCLEO/UART_RX*%
X24450000Y-100500000D03*
D12*
%TO.P,J201,2,Pin_2*%
%TO.N,/NUCLEO/UART_TX*%
X24450000Y-103000000D03*
%TO.P,J201,3,Pin_3*%
%TO.N,GND*%
X24450000Y-105500000D03*
%TD*%
D10*
%TO.P,TP111,1,1*%
%TO.N,/AUDIO CODEC/I2C_SCL*%
X31020000Y-85000000D03*
%TD*%
%TO.P,TP112,1,1*%
%TO.N,/AUDIO CODEC/I2C_SDA*%
X31020000Y-80000000D03*
%TD*%
%TO.P,TP306,1,1*%
%TO.N,/AUDIO CODEC/HP_R*%
X32000000Y-94000000D03*
%TD*%
%TO.P,TP106,1,1*%
%TO.N,/AUDIO CODEC/SYS_MCLK*%
X40000000Y-74000000D03*
%TD*%
%TO.P,TP205,1,1*%
%TO.N,GND*%
X73680000Y-74120000D03*
%TD*%
%TO.P,TP305,1,1*%
%TO.N,/AUDIO CODEC/LINEOUT_L*%
X52000000Y-94000000D03*
%TD*%
D13*
%TO.P,J401,S1,SHIELD*%
%TO.N,unconnected-(J401-SHIELD-PadS1)*%
X77870000Y-107320000D03*
D14*
X82050000Y-107320000D03*
D13*
X77870000Y-98680000D03*
D14*
X82050000Y-98680000D03*
%TD*%
D10*
%TO.P,TP101,1,1*%
%TO.N,/NUCLEO/VU_nRESET*%
X40000000Y-61000000D03*
%TD*%
%TO.P,TP107,1,1*%
%TO.N,/AUDIO CODEC/I2S_SCLK*%
X35000000Y-74000000D03*
%TD*%
%TO.P,TP104,1,1*%
%TO.N,/NUCLEO/VU_SCK*%
X40000000Y-56000000D03*
%TD*%
%TO.P,TP304,1,1*%
%TO.N,/AUDIO CODEC/LINEOUT_R*%
X47000000Y-94000000D03*
%TD*%
%TO.P,TP201,1,1*%
%TO.N,+3.3V*%
X27300000Y-53500000D03*
%TD*%
%TO.P,TP109,1,1*%
%TO.N,/AUDIO CODEC/I2S_DIN*%
X30000000Y-74000000D03*
%TD*%
%TO.P,TP203,1,1*%
%TO.N,/NUCLEO/UART_RX*%
X26000000Y-94000000D03*
%TD*%
%TO.P,TP302,1,1*%
%TO.N,/AUDIO CODEC/LINEIN_R*%
X62000000Y-94000000D03*
%TD*%
D15*
%TO.P,MK301,1,-*%
%TO.N,GND*%
X58950000Y-81000000D03*
D16*
%TO.P,MK301,2,+*%
%TO.N,Net-(MK301-+)*%
X57050000Y-81000000D03*
%TD*%
D10*
%TO.P,TP307,1,1*%
%TO.N,/AUDIO CODEC/HP_VGND*%
X42000000Y-94000000D03*
%TD*%
%TO.P,TP303,1,1*%
%TO.N,/AUDIO CODEC/LINEIN_L*%
X67000000Y-94000000D03*
%TD*%
%TO.P,TP103,1,1*%
%TO.N,/NUCLEO/VU_MOSI*%
X61500000Y-51000000D03*
%TD*%
%TO.P,TP105,1,1*%
%TO.N,/NUCLEO/VU_nCS*%
X40000000Y-51000000D03*
%TD*%
D17*
%TO.P,U201,101,PC10*%
%TO.N,/NUCLEO/VU_SCK*%
X18250000Y-47140000D03*
D18*
%TO.P,U201,102,PC11*%
%TO.N,/NUCLEO/VU_MISO*%
X20790000Y-47140000D03*
%TO.P,U201,103,PC12*%
%TO.N,/AUDIO CODEC/I2S_DOUT*%
X18250000Y-49680000D03*
%TO.P,U201,104,PD2*%
%TO.N,unconnected-(U201B-PD2-Pad104)*%
X20790000Y-49680000D03*
%TO.P,U201,105,VDD*%
%TO.N,+3.3V*%
X18250000Y-52220000D03*
%TO.P,U201,106,E5V*%
%TO.N,unconnected-(U201A-E5V-Pad106)*%
X20790000Y-52220000D03*
%TO.P,U201,107,BOOT0*%
%TO.N,unconnected-(U201A-BOOT0-Pad107)*%
X18250000Y-54760000D03*
%TO.P,U201,108,GND*%
%TO.N,GND*%
X20790000Y-54760000D03*
%TO.P,U201,109,NC*%
%TO.N,unconnected-(U201B-NC-Pad109)*%
X18250000Y-57300000D03*
%TO.P,U201,110,NC*%
%TO.N,unconnected-(U201B-NC-Pad110)*%
X20790000Y-57300000D03*
%TO.P,U201,111,NC*%
%TO.N,unconnected-(U201B-NC-Pad111)*%
X18250000Y-59840000D03*
%TO.P,U201,112,IOREF*%
%TO.N,unconnected-(U201A-IOREF-Pad112)*%
X20790000Y-59840000D03*
%TO.P,U201,113,PA13*%
%TO.N,unconnected-(U201B-PA13-Pad113)*%
X18250000Y-62380000D03*
%TO.P,U201,114,RESET*%
%TO.N,unconnected-(U201A-RESET-Pad114)*%
X20790000Y-62380000D03*
%TO.P,U201,115,PA14*%
%TO.N,unconnected-(U201B-PA14-Pad115)*%
X18250000Y-64920000D03*
%TO.P,U201,116,+3V3*%
%TO.N,unconnected-(U201A-+3V3-Pad116)*%
X20790000Y-64920000D03*
%TO.P,U201,117,PA15*%
%TO.N,unconnected-(U201B-PA15-Pad117)*%
X18250000Y-67460000D03*
%TO.P,U201,118,+5V*%
%TO.N,unconnected-(U201A-+5V-Pad118)*%
X20790000Y-67460000D03*
%TO.P,U201,119,GND*%
%TO.N,GND*%
X18250000Y-70000000D03*
%TO.P,U201,120,GND*%
X20790000Y-70000000D03*
%TO.P,U201,121,PB7*%
%TO.N,/NUCLEO/VU_nCS*%
X18250000Y-72540000D03*
%TO.P,U201,122,GND*%
%TO.N,GND*%
X20790000Y-72540000D03*
%TO.P,U201,123,PC13*%
%TO.N,unconnected-(U201B-PC13-Pad123)*%
X18250000Y-75080000D03*
%TO.P,U201,124,VIN*%
%TO.N,unconnected-(U201A-VIN-Pad124)*%
X20790000Y-75080000D03*
%TO.P,U201,125,PC14*%
%TO.N,unconnected-(U201B-PC14-Pad125)*%
X18250000Y-77620000D03*
%TO.P,U201,126,NC*%
%TO.N,unconnected-(U201B-NC-Pad126)*%
X20790000Y-77620000D03*
%TO.P,U201,127,PC15*%
%TO.N,unconnected-(U201B-PC15-Pad127)*%
X18250000Y-80160000D03*
%TO.P,U201,128,PA0*%
%TO.N,/NUCLEO/VU_nRESET*%
X20790000Y-80160000D03*
%TO.P,U201,129,PH0*%
%TO.N,unconnected-(U201B-PH0-Pad129)*%
X18250000Y-82700000D03*
%TO.P,U201,130,PA1*%
%TO.N,unconnected-(U201B-PA1-Pad130)*%
X20790000Y-82700000D03*
%TO.P,U201,131,PH1*%
%TO.N,unconnected-(U201B-PH1-Pad131)*%
X18250000Y-85240000D03*
%TO.P,U201,132,PA4*%
%TO.N,unconnected-(U201B-PA4-Pad132)*%
X20790000Y-85240000D03*
%TO.P,U201,133,VBAT*%
%TO.N,unconnected-(U201A-VBAT-Pad133)*%
X18250000Y-87780000D03*
%TO.P,U201,134,PB0*%
%TO.N,unconnected-(U201B-PB0-Pad134)*%
X20790000Y-87780000D03*
%TO.P,U201,135,PC2*%
%TO.N,unconnected-(U201B-PC2-Pad135)*%
X18250000Y-90320000D03*
%TO.P,U201,136,PC1*%
%TO.N,unconnected-(U201B-PC1-Pad136)*%
X20790000Y-90320000D03*
%TO.P,U201,137,PC3*%
%TO.N,unconnected-(U201B-PC3-Pad137)*%
X18250000Y-92860000D03*
%TO.P,U201,138,PC0*%
%TO.N,unconnected-(U201B-PC0-Pad138)*%
X20790000Y-92860000D03*
D17*
%TO.P,U201,201,PC9*%
%TO.N,unconnected-(U201B-PC9-Pad201)*%
X79210000Y-47150000D03*
D18*
%TO.P,U201,202,PC8*%
%TO.N,unconnected-(U201B-PC8-Pad202)*%
X81750000Y-47150000D03*
%TO.P,U201,203,PB8*%
%TO.N,unconnected-(U201B-PB8-Pad203)*%
X79210000Y-49680000D03*
%TO.P,U201,204,PC6*%
%TO.N,unconnected-(U201B-PC6-Pad204)*%
X81750000Y-49680000D03*
%TO.P,U201,205,PB9*%
%TO.N,unconnected-(U201B-PB9-Pad205)*%
X79210000Y-52220000D03*
%TO.P,U201,206,PC5*%
%TO.N,unconnected-(U201B-PC5-Pad206)*%
X81750000Y-52220000D03*
%TO.P,U201,207,AVDD*%
%TO.N,+3.3VA*%
X79210000Y-54760000D03*
%TO.P,U201,208,U5V*%
%TO.N,unconnected-(U201A-U5V-Pad208)*%
X81750000Y-54760000D03*
%TO.P,U201,209,GND*%
%TO.N,GND*%
X79210000Y-57300000D03*
%TO.P,U201,210,NC*%
%TO.N,unconnected-(U201B-NC-Pad210)*%
X81750000Y-57300000D03*
%TO.P,U201,211,PA5*%
%TO.N,unconnected-(U201B-PA5-Pad211)*%
X79210000Y-59840000D03*
%TO.P,U201,212,PA12*%
%TO.N,/NUCLEO/USB_D+*%
X81750000Y-59840000D03*
%TO.P,U201,213,PA6*%
%TO.N,unconnected-(U201B-PA6-Pad213)*%
X79210000Y-62380000D03*
%TO.P,U201,214,PA11*%
%TO.N,/NUCLEO/USB_D-*%
X81750000Y-62380000D03*
%TO.P,U201,215,PA7*%
%TO.N,unconnected-(U201B-PA7-Pad215)*%
X79210000Y-64920000D03*
%TO.P,U201,216,PB12*%
%TO.N,/AUDIO CODEC/I2S_LRCLK*%
X81750000Y-64920000D03*
%TO.P,U201,217,PB6*%
%TO.N,unconnected-(U201B-PB6-Pad217)*%
X79210000Y-67460000D03*
%TO.P,U201,218,PB11*%
%TO.N,/AUDIO CODEC/I2C_SDA*%
X81750000Y-67460000D03*
%TO.P,U201,219,PC7*%
%TO.N,unconnected-(U201B-PC7-Pad219)*%
X79210000Y-70000000D03*
%TO.P,U201,220,GND*%
%TO.N,GND*%
X81750000Y-70000000D03*
%TO.P,U201,221,PA9*%
%TO.N,/NUCLEO/UART_TX*%
X79210000Y-72540000D03*
%TO.P,U201,222,PB2*%
%TO.N,unconnected-(U201B-PB2-Pad222)*%
X81750000Y-72540000D03*
%TO.P,U201,223,PA8*%
%TO.N,unconnected-(U201B-PA8-Pad223)*%
X79210000Y-75080000D03*
%TO.P,U201,224,PB1*%
%TO.N,unconnected-(U201B-PB1-Pad224)*%
X81750000Y-75080000D03*
%TO.P,U201,225,PB10*%
%TO.N,/AUDIO CODEC/I2C_SCL*%
X79210000Y-77620000D03*
%TO.P,U201,226,PB15*%
%TO.N,/AUDIO CODEC/I2S_DIN*%
X81750000Y-77620000D03*
%TO.P,U201,227,PB4*%
%TO.N,unconnected-(U201B-PB4-Pad227)*%
X79210000Y-80160000D03*
%TO.P,U201,228,PB14*%
%TO.N,/AUDIO CODEC/SYS_MCLK*%
X81750000Y-80160000D03*
%TO.P,U201,229,PB5*%
%TO.N,/NUCLEO/VU_MOSI*%
X79210000Y-82700000D03*
%TO.P,U201,230,PB13*%
%TO.N,/AUDIO CODEC/I2S_SCLK*%
X81750000Y-82700000D03*
%TO.P,U201,231,PB3*%
%TO.N,unconnected-(U201B-PB3-Pad231)*%
X79210000Y-85240000D03*
%TO.P,U201,232,AGND*%
%TO.N,GND*%
X81750000Y-85240000D03*
%TO.P,U201,233,PA10*%
%TO.N,/NUCLEO/UART_RX*%
X79210000Y-87780000D03*
%TO.P,U201,234,PC4*%
%TO.N,unconnected-(U201B-PC4-Pad234)*%
X81750000Y-87780000D03*
%TO.P,U201,235,PA2*%
%TO.N,unconnected-(U201B-PA2-Pad235)*%
X79210000Y-90320000D03*
%TO.P,U201,236,NC*%
%TO.N,unconnected-(U201B-NC-Pad236)*%
X81750000Y-90320000D03*
%TO.P,U201,237,PA3*%
%TO.N,unconnected-(U201B-PA3-Pad237)*%
X79210000Y-92860000D03*
%TO.P,U201,238,NC*%
%TO.N,unconnected-(U201B-NC-Pad238)*%
X81750000Y-92860000D03*
%TD*%
D10*
%TO.P,TP110,1,1*%
%TO.N,/AUDIO CODEC/I2S_DOUT*%
X30000000Y-69000000D03*
%TD*%
%TO.P,TP108,1,1*%
%TO.N,/AUDIO CODEC/I2S_LRCLK*%
X40000000Y-69000000D03*
%TD*%
D19*
%TO.N,GND*%
X33880000Y-83820000D03*
X38350500Y-85920000D03*
X32280000Y-88520000D03*
D20*
%TO.N,+3.3V*%
X34080000Y-85920000D03*
D19*
%TO.N,GND*%
X15880000Y-53520000D03*
X16080000Y-81620000D03*
X38080000Y-79120000D03*
X43480000Y-76120000D03*
X71680000Y-85020000D03*
X43580000Y-65320000D03*
X74680000Y-71920000D03*
X73000000Y-97900000D03*
X25580000Y-65520000D03*
X59880000Y-104920000D03*
X15580000Y-86620000D03*
X21880000Y-81420000D03*
X42380000Y-104320000D03*
X32880000Y-105020000D03*
X53300000Y-56850000D03*
X26280000Y-57320000D03*
X75180000Y-52520000D03*
X36980000Y-73020000D03*
X28680000Y-62420000D03*
X36980000Y-74620000D03*
X23580000Y-75820000D03*
X77980000Y-71220000D03*
X21880000Y-86520000D03*
X49980000Y-71920000D03*
X47280000Y-97120000D03*
X50380000Y-47920000D03*
X29080000Y-95420000D03*
X27580000Y-78020000D03*
X22480000Y-50020000D03*
X41980000Y-59820000D03*
X41600000Y-82600000D03*
X47180000Y-52320000D03*
X48180000Y-81720000D03*
X31080000Y-75720000D03*
X32380000Y-56220000D03*
X45000000Y-85000000D03*
X52880000Y-89820000D03*
X27580000Y-84020000D03*
X33380000Y-72920000D03*
X46480000Y-79820000D03*
X67780000Y-51720000D03*
X31080000Y-62420000D03*
X75900000Y-106250000D03*
X56900000Y-56400000D03*
X48780000Y-98820000D03*
X77180000Y-44620000D03*
X74280000Y-94520000D03*
X40400000Y-82600000D03*
X84180000Y-109220000D03*
X31080000Y-65320000D03*
X43480000Y-62620000D03*
X74280000Y-92220000D03*
X53580000Y-79020000D03*
X30680000Y-98220000D03*
X74280000Y-89320000D03*
X21880000Y-61120000D03*
X66680000Y-98620000D03*
X65380000Y-91020000D03*
X29180000Y-85620000D03*
X77480000Y-85020000D03*
X44000000Y-51750000D03*
X46880000Y-74320000D03*
X77980000Y-73820000D03*
X28280000Y-70420000D03*
X78400000Y-109000000D03*
X57380000Y-90920000D03*
X37980000Y-69620000D03*
X23580000Y-73720000D03*
X31180000Y-67420000D03*
X15980000Y-95020000D03*
X31880000Y-69520000D03*
X21880000Y-89120000D03*
X47080000Y-53620000D03*
X40400000Y-81400000D03*
X53480000Y-50620000D03*
X26880000Y-92020000D03*
X47280000Y-57020000D03*
X30980000Y-54720000D03*
X74680000Y-76520000D03*
X38180000Y-59920000D03*
X43980000Y-79120000D03*
X31980000Y-82220000D03*
X38180000Y-56920000D03*
X33680000Y-47920000D03*
X32380000Y-52920000D03*
X41680000Y-73020000D03*
X39600000Y-86000000D03*
X34780000Y-75820000D03*
X43780000Y-59920000D03*
X54900000Y-98550000D03*
X41600000Y-81400000D03*
X21880000Y-66220000D03*
X84280000Y-96320000D03*
X58580000Y-101020000D03*
X15980000Y-66320000D03*
X36180000Y-99020000D03*
X71680000Y-94520000D03*
X78350000Y-97000000D03*
X45280000Y-102320000D03*
X15680000Y-76420000D03*
X78080000Y-89020000D03*
X72180000Y-51720000D03*
X30680000Y-101120000D03*
X32480000Y-50020000D03*
X77980000Y-76320000D03*
X50880000Y-92320000D03*
X44980000Y-76220000D03*
X21880000Y-63720000D03*
X64480000Y-84920000D03*
X80480000Y-93920000D03*
X51080000Y-88620000D03*
X34380000Y-79120000D03*
X40680000Y-75820000D03*
X82980000Y-93920000D03*
X15980000Y-45020000D03*
X65980000Y-49120000D03*
X83880000Y-44920000D03*
X71680000Y-91820000D03*
X43480000Y-68020000D03*
X15580000Y-61420000D03*
X78080000Y-91620000D03*
X60280000Y-102220000D03*
X16180000Y-109120000D03*
X25680000Y-47420000D03*
X69850000Y-98550000D03*
X74280000Y-85020000D03*
X24880000Y-95620000D03*
X66880000Y-101220000D03*
X51580000Y-98520000D03*
X31080000Y-59920000D03*
X35580000Y-53020000D03*
X43000000Y-85800000D03*
X48880000Y-104820000D03*
X25980000Y-55020000D03*
X57180000Y-50620000D03*
X28980000Y-54820000D03*
X47980000Y-85520000D03*
X33580000Y-98420000D03*
X47980000Y-92220000D03*
X33380000Y-92620000D03*
X38100000Y-84900000D03*
X21780000Y-76320000D03*
X73780000Y-48020000D03*
X21880000Y-84020000D03*
X49580000Y-79120000D03*
X24680000Y-77720000D03*
X21880000Y-91620000D03*
X30480000Y-76920000D03*
X44000000Y-53000000D03*
X63680000Y-47920000D03*
X60480000Y-95320000D03*
X43580000Y-101020000D03*
X78080000Y-86520000D03*
X44280000Y-71820000D03*
X44000000Y-54300000D03*
X63980000Y-76520000D03*
X24380000Y-62420000D03*
X75900000Y-99700000D03*
X28980000Y-75520000D03*
X21880000Y-58520000D03*
%TO.N,+3.3VA*%
X32500000Y-64000000D03*
X39680000Y-88000000D03*
X33580000Y-90820000D03*
%TO.N,/USB/USBC_VBUS*%
X73000000Y-102100000D03*
X75500000Y-105400000D03*
D21*
%TO.N,/AUDIO CODEC/HP_VGND*%
X40746000Y-85302000D03*
D19*
%TO.N,/AUDIO CODEC/I2S_SCLK*%
X39003577Y-77992845D03*
%TO.N,+3.3V*%
X64750000Y-58100000D03*
X34800000Y-80200000D03*
X31300000Y-53500000D03*
X41000000Y-76800000D03*
X34800000Y-83800000D03*
X53100000Y-58100000D03*
%TO.N,/NUCLEO/VU_nCS*%
X53100000Y-55500000D03*
%TD*%
D22*
%TO.N,+3.3VA*%
X33580000Y-90820000D02*
X36880000Y-90820000D01*
X36880000Y-90820000D02*
X39680000Y-88020000D01*
X39680000Y-88020000D02*
X39680000Y-88000000D01*
D23*
%TO.N,+3.3V*%
X34800000Y-85200000D02*
X34080000Y-85920000D01*
X34080000Y-85920000D02*
X33200000Y-86800000D01*
X27300000Y-71600000D02*
X27300000Y-53500000D01*
X26600000Y-72300000D02*
X27300000Y-71600000D01*
X26600000Y-84400000D02*
X26600000Y-72300000D01*
X29000000Y-86800000D02*
X26600000Y-84400000D01*
X33200000Y-86800000D02*
X29000000Y-86800000D01*
X34800000Y-83800000D02*
X34800000Y-85200000D01*
D22*
%TO.N,+3.3VA*%
X63500000Y-64000000D02*
X32500000Y-64000000D01*
X72740000Y-54760000D02*
X63500000Y-64000000D01*
X79210000Y-54760000D02*
X74000000Y-54760000D01*
D23*
X74000000Y-51000000D02*
X74000000Y-54760000D01*
D22*
X74000000Y-54760000D02*
X72740000Y-54760000D01*
D23*
%TO.N,/USB/USBC_VBUS*%
X73000000Y-102900000D02*
X73000000Y-102100000D01*
X75500000Y-105400000D02*
X73000000Y-102900000D01*
%TO.N,/AUDIO CODEC/I2C_SDA*%
X27400000Y-72751472D02*
X29351472Y-70800000D01*
X27400000Y-76380000D02*
X27400000Y-72751472D01*
X29351472Y-70800000D02*
X74600000Y-70800000D01*
X31020000Y-80000000D02*
X27400000Y-76380000D01*
X74600000Y-70800000D02*
X76670000Y-68730000D01*
X76670000Y-68730000D02*
X80480000Y-68730000D01*
X80480000Y-68730000D02*
X81750000Y-67460000D01*
%TO.N,/AUDIO CODEC/I2C_SCL*%
X61248528Y-75400000D02*
X63468528Y-77620000D01*
X42560000Y-71400000D02*
X46560000Y-75400000D01*
X30000000Y-78000000D02*
X28000000Y-76000000D01*
X31020000Y-85000000D02*
X33000000Y-83020000D01*
X29600000Y-71400000D02*
X42560000Y-71400000D01*
X32000000Y-78000000D02*
X30000000Y-78000000D01*
X46560000Y-75400000D02*
X61248528Y-75400000D01*
X63468528Y-77620000D02*
X79210000Y-77620000D01*
X33000000Y-79000000D02*
X32000000Y-78000000D01*
X28000000Y-73000000D02*
X29600000Y-71400000D01*
X28000000Y-76000000D02*
X28000000Y-73000000D01*
X33000000Y-83020000D02*
X33000000Y-79000000D01*
%TO.N,/AUDIO CODEC/HP_VGND*%
X42000000Y-94000000D02*
X40746000Y-92746000D01*
X40746000Y-92746000D02*
X40746000Y-85302000D01*
%TO.N,/AUDIO CODEC/SYS_MCLK*%
X43100000Y-77100000D02*
X40000000Y-74000000D01*
X64190000Y-81430000D02*
X59860000Y-77100000D01*
X59860000Y-77100000D02*
X43100000Y-77100000D01*
X80480000Y-81430000D02*
X64190000Y-81430000D01*
X81750000Y-80160000D02*
X80480000Y-81430000D01*
%TO.N,/AUDIO CODEC/I2S_LRCLK*%
X76670000Y-66190000D02*
X73860000Y-69000000D01*
X80480000Y-66190000D02*
X76670000Y-66190000D01*
X81750000Y-64920000D02*
X80480000Y-66190000D01*
X73860000Y-69000000D02*
X40000000Y-69000000D01*
%TO.N,/AUDIO CODEC/I2S_SCLK*%
X81750000Y-82700000D02*
X80480000Y-83970000D01*
X59000000Y-78000000D02*
X39000000Y-78000000D01*
X64970000Y-83970000D02*
X59000000Y-78000000D01*
X80480000Y-83970000D02*
X64970000Y-83970000D01*
%TO.N,/AUDIO CODEC/I2S_DOUT*%
X19540000Y-50970000D02*
X27970000Y-50970000D01*
X18250000Y-49680000D02*
X19540000Y-50970000D01*
X30000000Y-53000000D02*
X30000000Y-69000000D01*
X27970000Y-50970000D02*
X30000000Y-53000000D01*
%TO.N,/AUDIO CODEC/I2S_DIN*%
X60680000Y-76220000D02*
X46309950Y-76220000D01*
X63350000Y-78890000D02*
X60680000Y-76220000D01*
X80480000Y-78890000D02*
X63350000Y-78890000D01*
X46309950Y-76220000D02*
X42089950Y-72000000D01*
X32000000Y-72000000D02*
X30000000Y-74000000D01*
X81750000Y-77620000D02*
X80480000Y-78890000D01*
X42089950Y-72000000D02*
X32000000Y-72000000D01*
D24*
%TO.N,+3.3V*%
X35900000Y-58100000D02*
X31300000Y-53500000D01*
D23*
X19520000Y-53490000D02*
X27160000Y-53490000D01*
X18250000Y-52220000D02*
X19520000Y-53490000D01*
D24*
X53100000Y-58100000D02*
X35900000Y-58100000D01*
D23*
X41000000Y-76800000D02*
X38200000Y-76800000D01*
X34800000Y-80200000D02*
X34800000Y-83800000D01*
X38200000Y-76800000D02*
X34800000Y-80200000D01*
D24*
X53100000Y-58100000D02*
X64750000Y-58100000D01*
D23*
%TO.N,/NUCLEO/VU_nCS*%
X53100000Y-55500000D02*
X48600000Y-51000000D01*
X48600000Y-51000000D02*
X40000000Y-51000000D01*
%TO.N,/NUCLEO/VU_SCK*%
X22780000Y-49020000D02*
X33020000Y-49020000D01*
X19520000Y-48410000D02*
X22170000Y-48410000D01*
X33020000Y-49020000D02*
X40000000Y-56000000D01*
X18250000Y-47140000D02*
X19520000Y-48410000D01*
X22170000Y-48410000D02*
X22780000Y-49020000D01*
%TO.N,/NUCLEO/UART_RX*%
X32420000Y-105920000D02*
X27000000Y-100500000D01*
X63780000Y-105920000D02*
X32420000Y-105920000D01*
X79210000Y-87780000D02*
X77220000Y-87780000D01*
X67980000Y-101720000D02*
X63780000Y-105920000D01*
X27000000Y-100500000D02*
X24450000Y-100500000D01*
X77220000Y-87780000D02*
X67980000Y-97020000D01*
X67980000Y-97020000D02*
X67980000Y-101720000D01*
%TO.N,/NUCLEO/UART_TX*%
X79210000Y-72540000D02*
X80460000Y-73790000D01*
X82850000Y-73790000D02*
X83980000Y-74920000D01*
X68980000Y-97520000D02*
X71000000Y-95500000D01*
X83000000Y-95500000D02*
X83530000Y-94970000D01*
X68980000Y-102020000D02*
X68980000Y-97520000D01*
X30920000Y-106920000D02*
X64080000Y-106920000D01*
X83980000Y-74920000D02*
X83980000Y-94520000D01*
X83530000Y-94970000D02*
X84000000Y-94500000D01*
X24450000Y-103000000D02*
X27000000Y-103000000D01*
X83980000Y-94520000D02*
X83530000Y-94970000D01*
X64080000Y-106920000D02*
X68980000Y-102020000D01*
X80460000Y-73790000D02*
X82850000Y-73790000D01*
X27000000Y-103000000D02*
X30920000Y-106920000D01*
X71000000Y-95500000D02*
X83000000Y-95500000D01*
%TD*%
%TA.AperFunction,Conductor*%
%TO.N,GND*%
G36*
X78054328Y-88500185D02*
G01*
X78088864Y-88533377D01*
X78171505Y-88651402D01*
X78338597Y-88818493D01*
X78338603Y-88818498D01*
X78524158Y-88948425D01*
X78567783Y-89003002D01*
X78574977Y-89072500D01*
X78543454Y-89134855D01*
X78524158Y-89151575D01*
X78338597Y-89281505D01*
X78171505Y-89448597D01*
X78035965Y-89642169D01*
X78035964Y-89642171D01*
X77936098Y-89856335D01*
X77936094Y-89856344D01*
X77874938Y-90084586D01*
X77874936Y-90084596D01*
X77854341Y-90319999D01*
X77854341Y-90320000D01*
X77874936Y-90555403D01*
X77874938Y-90555413D01*
X77936094Y-90783655D01*
X77936096Y-90783659D01*
X77936097Y-90783663D01*
X78016004Y-90955023D01*
X78035965Y-90997830D01*
X78035967Y-90997834D01*
X78087949Y-91072071D01*
X78171504Y-91191400D01*
X78171506Y-91191402D01*
X78338597Y-91358493D01*
X78338603Y-91358498D01*
X78524158Y-91488425D01*
X78567783Y-91543002D01*
X78574977Y-91612500D01*
X78543454Y-91674855D01*
X78524158Y-91691575D01*
X78338597Y-91821505D01*
X78171505Y-91988597D01*
X78035965Y-92182169D01*
X78035964Y-92182171D01*
X77936098Y-92396335D01*
X77936094Y-92396344D01*
X77874938Y-92624586D01*
X77874936Y-92624596D01*
X77854341Y-92859999D01*
X77854341Y-92860000D01*
X77874936Y-93095403D01*
X77874938Y-93095413D01*
X77936094Y-93323655D01*
X77936096Y-93323659D01*
X77936097Y-93323663D01*
X78006914Y-93475530D01*
X78035965Y-93537830D01*
X78035967Y-93537834D01*
X78144281Y-93692521D01*
X78171505Y-93731401D01*
X78338599Y-93898495D01*
X78435384Y-93966264D01*
X78532165Y-94034032D01*
X78532167Y-94034033D01*
X78532170Y-94034035D01*
X78746337Y-94133903D01*
X78974592Y-94195063D01*
X79162918Y-94211539D01*
X79209999Y-94215659D01*
X79210000Y-94215659D01*
X79210001Y-94215659D01*
X79249234Y-94212226D01*
X79445408Y-94195063D01*
X79673663Y-94133903D01*
X79887830Y-94034035D01*
X80081401Y-93898495D01*
X80248495Y-93731401D01*
X80378424Y-93545842D01*
X80433002Y-93502217D01*
X80502500Y-93495023D01*
X80564855Y-93526546D01*
X80581575Y-93545842D01*
X80711500Y-93731395D01*
X80711505Y-93731401D01*
X80878599Y-93898495D01*
X80975384Y-93966264D01*
X81072165Y-94034032D01*
X81072167Y-94034033D01*
X81072170Y-94034035D01*
X81286337Y-94133903D01*
X81514592Y-94195063D01*
X81702918Y-94211539D01*
X81749999Y-94215659D01*
X81750000Y-94215659D01*
X81750001Y-94215659D01*
X81789234Y-94212226D01*
X81985408Y-94195063D01*
X82213663Y-94133903D01*
X82427830Y-94034035D01*
X82621401Y-93898495D01*
X82788495Y-93731401D01*
X82924035Y-93537830D01*
X83023903Y-93323663D01*
X83035724Y-93279543D01*
X83072090Y-93219882D01*
X83134936Y-93189353D01*
X83204312Y-93197647D01*
X83258190Y-93242132D01*
X83279465Y-93308684D01*
X83279500Y-93311636D01*
X83279500Y-94178481D01*
X83259815Y-94245520D01*
X83243181Y-94266162D01*
X82746162Y-94763181D01*
X82684839Y-94796666D01*
X82658481Y-94799500D01*
X71490519Y-94799500D01*
X71423480Y-94779815D01*
X71377725Y-94727011D01*
X71367781Y-94657853D01*
X71396806Y-94594297D01*
X71402838Y-94587819D01*
X77473838Y-88516819D01*
X77535161Y-88483334D01*
X77561519Y-88480500D01*
X77987289Y-88480500D01*
X78054328Y-88500185D01*
G37*
%TD.AperFunction*%
%TA.AperFunction,Conductor*%
G36*
X27505703Y-77476806D02*
G01*
X27512181Y-77482838D01*
X29451787Y-79422444D01*
X29485272Y-79483767D01*
X29484680Y-79539072D01*
X29434317Y-79748848D01*
X29414551Y-80000000D01*
X29434317Y-80251151D01*
X29493126Y-80496110D01*
X29589533Y-80728859D01*
X29721160Y-80943653D01*
X29721161Y-80943656D01*
X29769282Y-80999998D01*
X29884776Y-81135224D01*
X30020506Y-81251148D01*
X30076343Y-81298838D01*
X30076346Y-81298839D01*
X30291140Y-81430466D01*
X30494875Y-81514855D01*
X30523889Y-81526873D01*
X30768852Y-81585683D01*
X31020000Y-81605449D01*
X31271148Y-81585683D01*
X31516111Y-81526873D01*
X31748859Y-81430466D01*
X31963659Y-81298836D01*
X32094969Y-81186686D01*
X32158730Y-81158116D01*
X32227815Y-81168553D01*
X32280291Y-81214684D01*
X32299500Y-81280977D01*
X32299500Y-82678480D01*
X32279815Y-82745519D01*
X32263181Y-82766161D01*
X31597555Y-83431786D01*
X31536232Y-83465271D01*
X31480928Y-83464679D01*
X31271152Y-83414318D01*
X31271148Y-83414317D01*
X31020000Y-83394551D01*
X31019999Y-83394551D01*
X30768848Y-83414317D01*
X30523889Y-83473126D01*
X30291140Y-83569533D01*
X30076346Y-83701160D01*
X30076343Y-83701161D01*
X29884776Y-83864776D01*
X29721161Y-84056343D01*
X29721160Y-84056346D01*
X29589533Y-84271140D01*
X29493126Y-84503889D01*
X29434317Y-84748848D01*
X29414551Y-84999999D01*
X29434317Y-85251151D01*
X29493126Y-85496110D01*
X29589533Y-85728859D01*
X29700972Y-85910710D01*
X29719217Y-85978156D01*
X29698101Y-86044758D01*
X29644329Y-86089372D01*
X29595245Y-86099500D01*
X29341518Y-86099500D01*
X29274479Y-86079815D01*
X29253837Y-86063181D01*
X28323781Y-85133125D01*
X27336816Y-84146159D01*
X27303333Y-84084839D01*
X27300500Y-84058490D01*
X27300500Y-77570518D01*
X27320185Y-77503480D01*
X27372989Y-77457725D01*
X27442147Y-77447781D01*
X27505703Y-77476806D01*
G37*
%TD.AperFunction*%
%TA.AperFunction,Conductor*%
G36*
X33803144Y-72720185D02*
G01*
X33848899Y-72772989D01*
X33858843Y-72842147D01*
X33830395Y-72905029D01*
X33779218Y-72964952D01*
X33701161Y-73056344D01*
X33701160Y-73056346D01*
X33569533Y-73271140D01*
X33473126Y-73503889D01*
X33414317Y-73748848D01*
X33394551Y-73999999D01*
X33414317Y-74251151D01*
X33473126Y-74496110D01*
X33569533Y-74728859D01*
X33701160Y-74943653D01*
X33701161Y-74943656D01*
X33701164Y-74943659D01*
X33864776Y-75135224D01*
X34013066Y-75261875D01*
X34056343Y-75298838D01*
X34056346Y-75298839D01*
X34271140Y-75430466D01*
X34437908Y-75499543D01*
X34503889Y-75526873D01*
X34748852Y-75585683D01*
X35000000Y-75605449D01*
X35251148Y-75585683D01*
X35496111Y-75526873D01*
X35728859Y-75430466D01*
X35943659Y-75298836D01*
X36135224Y-75135224D01*
X36298836Y-74943659D01*
X36430466Y-74728859D01*
X36526873Y-74496111D01*
X36585683Y-74251148D01*
X36605449Y-74000000D01*
X36585683Y-73748852D01*
X36526873Y-73503889D01*
X36488564Y-73411402D01*
X36430466Y-73271140D01*
X36298839Y-73056346D01*
X36298838Y-73056344D01*
X36298837Y-73056343D01*
X36298836Y-73056341D01*
X36169604Y-72905029D01*
X36141034Y-72841270D01*
X36151471Y-72772185D01*
X36197602Y-72719709D01*
X36263895Y-72700500D01*
X38736105Y-72700500D01*
X38803144Y-72720185D01*
X38848899Y-72772989D01*
X38858843Y-72842147D01*
X38830395Y-72905029D01*
X38779218Y-72964952D01*
X38701161Y-73056344D01*
X38701160Y-73056346D01*
X38569533Y-73271140D01*
X38473126Y-73503889D01*
X38414317Y-73748848D01*
X38394551Y-74000000D01*
X38414317Y-74251151D01*
X38473126Y-74496110D01*
X38569533Y-74728859D01*
X38701160Y-74943653D01*
X38701161Y-74943656D01*
X38701164Y-74943659D01*
X38864776Y-75135224D01*
X39013066Y-75261875D01*
X39056343Y-75298838D01*
X39056346Y-75298839D01*
X39271140Y-75430466D01*
X39437908Y-75499543D01*
X39503889Y-75526873D01*
X39748852Y-75585683D01*
X40000000Y-75605449D01*
X40251148Y-75585683D01*
X40460930Y-75535319D01*
X40530709Y-75538810D01*
X40577555Y-75568212D01*
X40831750Y-75822407D01*
X40865235Y-75883730D01*
X40860251Y-75953422D01*
X40818379Y-76009355D01*
X40785025Y-76027129D01*
X40650477Y-76074210D01*
X40640477Y-76080494D01*
X40574506Y-76099500D01*
X38223037Y-76099500D01*
X38219293Y-76099387D01*
X38157397Y-76095643D01*
X38157390Y-76095643D01*
X38096402Y-76106819D01*
X38092701Y-76107382D01*
X38031125Y-76114860D01*
X38021642Y-76118456D01*
X38000038Y-76124478D01*
X37998535Y-76124754D01*
X37990065Y-76126306D01*
X37933522Y-76151754D01*
X37930063Y-76153187D01*
X37893867Y-76166915D01*
X37872070Y-76175182D01*
X37872068Y-76175183D01*
X37872066Y-76175184D01*
X37872061Y-76175186D01*
X37863722Y-76180942D01*
X37844190Y-76191959D01*
X37834946Y-76196120D01*
X37786124Y-76234368D01*
X37783109Y-76236586D01*
X37732068Y-76271818D01*
X37690942Y-76318240D01*
X37688375Y-76320966D01*
X34600709Y-79408632D01*
X34553984Y-79437992D01*
X34450476Y-79474211D01*
X34450475Y-79474212D01*
X34297737Y-79570184D01*
X34170184Y-79697737D01*
X34074211Y-79850476D01*
X34014631Y-80020745D01*
X34014630Y-80020750D01*
X33994435Y-80199996D01*
X33994435Y-80200003D01*
X34014630Y-80379249D01*
X34014631Y-80379254D01*
X34074212Y-80549525D01*
X34080492Y-80559519D01*
X34099500Y-80625493D01*
X34099500Y-83374507D01*
X34080494Y-83440478D01*
X34074209Y-83450479D01*
X34014633Y-83620737D01*
X34014630Y-83620750D01*
X33994435Y-83799996D01*
X33994435Y-83800003D01*
X34014630Y-83979249D01*
X34014631Y-83979254D01*
X34074212Y-84149525D01*
X34080492Y-84159519D01*
X34099500Y-84225493D01*
X34099500Y-84858481D01*
X34079815Y-84925520D01*
X34063180Y-84946163D01*
X34017025Y-84992317D01*
X33955702Y-85025801D01*
X33955126Y-85025925D01*
X33800197Y-85058855D01*
X33800192Y-85058857D01*
X33627270Y-85135848D01*
X33627265Y-85135851D01*
X33474129Y-85247111D01*
X33347466Y-85387785D01*
X33252821Y-85551715D01*
X33252818Y-85551722D01*
X33194327Y-85731739D01*
X33194325Y-85731750D01*
X33189134Y-85781129D01*
X33162549Y-85845743D01*
X33153496Y-85855846D01*
X32946160Y-86063182D01*
X32884840Y-86096666D01*
X32858481Y-86099500D01*
X32444755Y-86099500D01*
X32377716Y-86079815D01*
X32331961Y-86027011D01*
X32322017Y-85957853D01*
X32339028Y-85910710D01*
X32450466Y-85728859D01*
X32467907Y-85686752D01*
X32546873Y-85496111D01*
X32605683Y-85251148D01*
X32625449Y-85000000D01*
X32605683Y-84748852D01*
X32555319Y-84539069D01*
X32558810Y-84469289D01*
X32588210Y-84422445D01*
X33479056Y-83531599D01*
X33481748Y-83529065D01*
X33528183Y-83487929D01*
X33563421Y-83436876D01*
X33565613Y-83433896D01*
X33603878Y-83385057D01*
X33608034Y-83375821D01*
X33619062Y-83356266D01*
X33624818Y-83347930D01*
X33646812Y-83289931D01*
X33648227Y-83286515D01*
X33673695Y-83229931D01*
X33675522Y-83219959D01*
X33681546Y-83198347D01*
X33685140Y-83188872D01*
X33692613Y-83127324D01*
X33693177Y-83123619D01*
X33696535Y-83105289D01*
X33704358Y-83062606D01*
X33700613Y-83000696D01*
X33700500Y-82996951D01*
X33700500Y-79023047D01*
X33700613Y-79019302D01*
X33704358Y-78957394D01*
X33693175Y-78896371D01*
X33692613Y-78892674D01*
X33689556Y-78867500D01*
X33685140Y-78831128D01*
X33681548Y-78821656D01*
X33675521Y-78800034D01*
X33673695Y-78790071D01*
X33673695Y-78790069D01*
X33648224Y-78733476D01*
X33646817Y-78730079D01*
X33624818Y-78672070D01*
X33624816Y-78672068D01*
X33624816Y-78672066D01*
X33619062Y-78663731D01*
X33608034Y-78644177D01*
X33603881Y-78634949D01*
X33603878Y-78634945D01*
X33603878Y-78634944D01*
X33565626Y-78586120D01*
X33563416Y-78583115D01*
X33561011Y-78579631D01*
X33528183Y-78532071D01*
X33481742Y-78490928D01*
X33479048Y-78488392D01*
X32511598Y-77520941D01*
X32509064Y-77518250D01*
X32467929Y-77471817D01*
X32467928Y-77471816D01*
X32467924Y-77471812D01*
X32416896Y-77436591D01*
X32413887Y-77434377D01*
X32365060Y-77396124D01*
X32365055Y-77396120D01*
X32355813Y-77391961D01*
X32336266Y-77380936D01*
X32327931Y-77375183D01*
X32327932Y-77375183D01*
X32327930Y-77375182D01*
X32269941Y-77353189D01*
X32266490Y-77351759D01*
X32209930Y-77326304D01*
X32199946Y-77324474D01*
X32178343Y-77318451D01*
X32168874Y-77314860D01*
X32168870Y-77314859D01*
X32107313Y-77307384D01*
X32103612Y-77306821D01*
X32042608Y-77295642D01*
X32042603Y-77295642D01*
X31980697Y-77299387D01*
X31976952Y-77299500D01*
X30341519Y-77299500D01*
X30274480Y-77279815D01*
X30253838Y-77263181D01*
X28736819Y-75746162D01*
X28703334Y-75684839D01*
X28700500Y-75658481D01*
X28700500Y-75263895D01*
X28720185Y-75196856D01*
X28772989Y-75151101D01*
X28842147Y-75141157D01*
X28905029Y-75169604D01*
X29056341Y-75298836D01*
X29056343Y-75298837D01*
X29056344Y-75298838D01*
X29056346Y-75298839D01*
X29271140Y-75430466D01*
X29437908Y-75499543D01*
X29503889Y-75526873D01*
X29748852Y-75585683D01*
X30000000Y-75605449D01*
X30251148Y-75585683D01*
X30496111Y-75526873D01*
X30728859Y-75430466D01*
X30943659Y-75298836D01*
X31135224Y-75135224D01*
X31298836Y-74943659D01*
X31430466Y-74728859D01*
X31526873Y-74496111D01*
X31585683Y-74251148D01*
X31605449Y-74000000D01*
X31585683Y-73748852D01*
X31535319Y-73539069D01*
X31538810Y-73469289D01*
X31568210Y-73422445D01*
X32253837Y-72736819D01*
X32315161Y-72703334D01*
X32341519Y-72700500D01*
X33736105Y-72700500D01*
X33803144Y-72720185D01*
G37*
%TD.AperFunction*%
%TA.AperFunction,Conductor*%
G36*
X77869895Y-69450185D02*
G01*
X77915650Y-69502989D01*
X77925594Y-69572147D01*
X77922631Y-69586593D01*
X77874938Y-69764586D01*
X77874936Y-69764596D01*
X77854341Y-69999999D01*
X77854341Y-70000000D01*
X77874936Y-70235403D01*
X77874938Y-70235413D01*
X77936094Y-70463655D01*
X77936096Y-70463659D01*
X77936097Y-70463663D01*
X78018951Y-70641344D01*
X78035965Y-70677830D01*
X78035967Y-70677834D01*
X78144281Y-70832521D01*
X78171501Y-70871396D01*
X78171506Y-70871402D01*
X78338597Y-71038493D01*
X78338603Y-71038498D01*
X78524158Y-71168425D01*
X78567783Y-71223002D01*
X78574977Y-71292500D01*
X78543454Y-71354855D01*
X78524158Y-71371575D01*
X78338597Y-71501505D01*
X78171505Y-71668597D01*
X78035965Y-71862169D01*
X78035964Y-71862171D01*
X77936098Y-72076335D01*
X77936094Y-72076344D01*
X77874938Y-72304586D01*
X77874936Y-72304596D01*
X77854341Y-72539999D01*
X77854341Y-72540000D01*
X77874936Y-72775403D01*
X77874938Y-72775413D01*
X77936094Y-73003655D01*
X77936096Y-73003659D01*
X77936097Y-73003663D01*
X78016375Y-73175819D01*
X78035965Y-73217830D01*
X78035967Y-73217834D01*
X78144281Y-73372521D01*
X78171501Y-73411396D01*
X78171506Y-73411402D01*
X78338597Y-73578493D01*
X78338603Y-73578498D01*
X78524158Y-73708425D01*
X78567783Y-73763002D01*
X78574977Y-73832500D01*
X78543454Y-73894855D01*
X78524158Y-73911575D01*
X78338597Y-74041505D01*
X78171505Y-74208597D01*
X78035965Y-74402169D01*
X78035964Y-74402171D01*
X77936098Y-74616335D01*
X77936094Y-74616344D01*
X77874938Y-74844586D01*
X77874936Y-74844596D01*
X77854341Y-75079999D01*
X77854341Y-75080000D01*
X77874936Y-75315403D01*
X77874938Y-75315413D01*
X77936094Y-75543655D01*
X77936096Y-75543659D01*
X77936097Y-75543663D01*
X77989638Y-75658481D01*
X78035965Y-75757830D01*
X78035967Y-75757834D01*
X78081182Y-75822407D01*
X78171501Y-75951396D01*
X78171506Y-75951402D01*
X78338597Y-76118493D01*
X78338603Y-76118498D01*
X78524158Y-76248425D01*
X78567783Y-76303002D01*
X78574977Y-76372500D01*
X78543454Y-76434855D01*
X78524158Y-76451575D01*
X78338597Y-76581505D01*
X78171506Y-76748596D01*
X78088864Y-76866623D01*
X78034287Y-76910248D01*
X77987289Y-76919500D01*
X63810047Y-76919500D01*
X63743008Y-76899815D01*
X63722366Y-76883181D01*
X62790580Y-75951395D01*
X61760126Y-74920941D01*
X61757592Y-74918250D01*
X61716457Y-74871817D01*
X61716456Y-74871816D01*
X61716452Y-74871812D01*
X61665424Y-74836591D01*
X61662415Y-74834377D01*
X61613588Y-74796124D01*
X61613583Y-74796120D01*
X61604341Y-74791961D01*
X61584794Y-74780936D01*
X61576459Y-74775183D01*
X61576460Y-74775183D01*
X61576458Y-74775182D01*
X61518469Y-74753189D01*
X61515018Y-74751759D01*
X61458458Y-74726304D01*
X61448474Y-74724474D01*
X61426871Y-74718451D01*
X61417402Y-74714860D01*
X61417398Y-74714859D01*
X61355841Y-74707384D01*
X61352140Y-74706821D01*
X61291136Y-74695642D01*
X61291131Y-74695642D01*
X61229225Y-74699387D01*
X61225480Y-74699500D01*
X46901519Y-74699500D01*
X46834480Y-74679815D01*
X46813838Y-74663181D01*
X46270656Y-74119999D01*
X72075052Y-74119999D01*
X72094812Y-74371072D01*
X72153603Y-74615956D01*
X72249980Y-74848631D01*
X72381566Y-75063358D01*
X72381577Y-75063374D01*
X72382264Y-75064178D01*
X72382266Y-75064178D01*
X73154070Y-74292375D01*
X73156884Y-74305915D01*
X73226442Y-74440156D01*
X73329638Y-74550652D01*
X73458819Y-74629209D01*
X73510002Y-74643549D01*
X72735819Y-75417732D01*
X72736636Y-75418430D01*
X72736638Y-75418432D01*
X72951368Y-75550019D01*
X73184043Y-75646396D01*
X73428927Y-75705187D01*
X73679999Y-75724947D01*
X73931072Y-75705187D01*
X74175956Y-75646396D01*
X74408631Y-75550019D01*
X74623360Y-75418432D01*
X74623371Y-75418424D01*
X74624179Y-75417732D01*
X73851568Y-74645121D01*
X73968458Y-74594349D01*
X74085739Y-74498934D01*
X74172928Y-74375415D01*
X74203354Y-74289801D01*
X74977732Y-75064179D01*
X74978424Y-75063371D01*
X74978432Y-75063360D01*
X75110019Y-74848631D01*
X75206396Y-74615956D01*
X75265187Y-74371072D01*
X75284947Y-74120000D01*
X75265187Y-73868927D01*
X75206396Y-73624043D01*
X75110019Y-73391368D01*
X74978432Y-73176638D01*
X74978430Y-73176636D01*
X74977732Y-73175819D01*
X74205929Y-73947622D01*
X74203116Y-73934085D01*
X74133558Y-73799844D01*
X74030362Y-73689348D01*
X73901181Y-73610791D01*
X73849996Y-73596449D01*
X74624178Y-72822266D01*
X74624178Y-72822264D01*
X74623374Y-72821577D01*
X74623358Y-72821566D01*
X74408631Y-72689980D01*
X74175956Y-72593603D01*
X73931072Y-72534812D01*
X73679999Y-72515052D01*
X73428927Y-72534812D01*
X73184043Y-72593603D01*
X72951368Y-72689980D01*
X72736637Y-72821568D01*
X72735820Y-72822266D01*
X73508432Y-73594878D01*
X73391542Y-73645651D01*
X73274261Y-73741066D01*
X73187072Y-73864585D01*
X73156644Y-73950198D01*
X72382266Y-73175820D01*
X72381568Y-73176637D01*
X72249980Y-73391368D01*
X72153603Y-73624043D01*
X72094812Y-73868927D01*
X72075052Y-74119999D01*
X46270656Y-74119999D01*
X43862838Y-71712181D01*
X43829353Y-71650858D01*
X43834337Y-71581166D01*
X43876209Y-71525233D01*
X43941673Y-71500816D01*
X43950519Y-71500500D01*
X74576952Y-71500500D01*
X74580697Y-71500613D01*
X74588042Y-71501057D01*
X74642606Y-71504358D01*
X74680314Y-71497447D01*
X74703621Y-71493177D01*
X74707325Y-71492613D01*
X74725170Y-71490446D01*
X74768872Y-71485140D01*
X74778335Y-71481550D01*
X74799961Y-71475522D01*
X74800893Y-71475351D01*
X74809932Y-71473695D01*
X74866512Y-71448229D01*
X74869942Y-71446809D01*
X74927930Y-71424818D01*
X74936266Y-71419062D01*
X74955821Y-71408034D01*
X74965057Y-71403878D01*
X75013896Y-71365613D01*
X75016876Y-71363421D01*
X75067929Y-71328183D01*
X75109065Y-71281748D01*
X75111599Y-71279056D01*
X76923837Y-69466819D01*
X76985161Y-69433334D01*
X77011519Y-69430500D01*
X77802856Y-69430500D01*
X77869895Y-69450185D01*
G37*
%TD.AperFunction*%
%TA.AperFunction,Conductor*%
G36*
X41815470Y-72720185D02*
G01*
X41836112Y-72736819D01*
X45287112Y-76187819D01*
X45320597Y-76249142D01*
X45315613Y-76318834D01*
X45273741Y-76374767D01*
X45208277Y-76399184D01*
X45199431Y-76399500D01*
X43441519Y-76399500D01*
X43374480Y-76379815D01*
X43353838Y-76363181D01*
X41568212Y-74577555D01*
X41534727Y-74516232D01*
X41535318Y-74460930D01*
X41585683Y-74251148D01*
X41605449Y-74000000D01*
X41585683Y-73748852D01*
X41526873Y-73503889D01*
X41488564Y-73411402D01*
X41430466Y-73271140D01*
X41298839Y-73056346D01*
X41298838Y-73056344D01*
X41298837Y-73056343D01*
X41298836Y-73056341D01*
X41169604Y-72905029D01*
X41141034Y-72841270D01*
X41151471Y-72772185D01*
X41197602Y-72719709D01*
X41263895Y-72700500D01*
X41748431Y-72700500D01*
X41815470Y-72720185D01*
G37*
%TD.AperFunction*%
%TA.AperFunction,Conductor*%
G36*
X21040000Y-72104498D02*
G01*
X20932315Y-72055320D01*
X20825763Y-72040000D01*
X20754237Y-72040000D01*
X20647685Y-72055320D01*
X20540000Y-72104498D01*
X20540000Y-70435501D01*
X20647685Y-70484680D01*
X20754237Y-70500000D01*
X20825763Y-70500000D01*
X20932315Y-70484680D01*
X21040000Y-70435501D01*
X21040000Y-72104498D01*
G37*
%TD.AperFunction*%
%TA.AperFunction,Conductor*%
G36*
X29048291Y-53047147D02*
G01*
X29078890Y-53069546D01*
X29263181Y-53253837D01*
X29296666Y-53315160D01*
X29299500Y-53341518D01*
X29299500Y-67482712D01*
X29279815Y-67549751D01*
X29240290Y-67588439D01*
X29056346Y-67701160D01*
X29056343Y-67701161D01*
X28864776Y-67864776D01*
X28701161Y-68056343D01*
X28701160Y-68056346D01*
X28569533Y-68271140D01*
X28473126Y-68503889D01*
X28414317Y-68748848D01*
X28394551Y-69000000D01*
X28414317Y-69251151D01*
X28473126Y-69496110D01*
X28569533Y-69728859D01*
X28701160Y-69943653D01*
X28701161Y-69943655D01*
X28701162Y-69943657D01*
X28701164Y-69943659D01*
X28863334Y-70133536D01*
X28891904Y-70197294D01*
X28881467Y-70266380D01*
X28861857Y-70296294D01*
X28842414Y-70318239D01*
X28839847Y-70320966D01*
X28212181Y-70948633D01*
X28150858Y-70982118D01*
X28081167Y-70977134D01*
X28025233Y-70935263D01*
X28000816Y-70869798D01*
X28000500Y-70860952D01*
X28000500Y-55017287D01*
X28020185Y-54950248D01*
X28059706Y-54911562D01*
X28243659Y-54798836D01*
X28435224Y-54635224D01*
X28598836Y-54443659D01*
X28730466Y-54228859D01*
X28826873Y-53996111D01*
X28885683Y-53751148D01*
X28905449Y-53500000D01*
X28885683Y-53248852D01*
X28870635Y-53186172D01*
X28874126Y-53116392D01*
X28914789Y-53059574D01*
X28979716Y-53033761D01*
X29048291Y-53047147D01*
G37*
%TD.AperFunction*%
%TA.AperFunction,Conductor*%
G36*
X20330507Y-69790156D02*
G01*
X20290000Y-69928111D01*
X20290000Y-70071889D01*
X20330507Y-70209844D01*
X20356314Y-70250000D01*
X18683686Y-70250000D01*
X18709493Y-70209844D01*
X18750000Y-70071889D01*
X18750000Y-69928111D01*
X18709493Y-69790156D01*
X18683686Y-69750000D01*
X20356314Y-69750000D01*
X20330507Y-69790156D01*
G37*
%TD.AperFunction*%
%TA.AperFunction,Conductor*%
G36*
X22339632Y-49567207D02*
G01*
X22363110Y-49583413D01*
X22366127Y-49585633D01*
X22414938Y-49623874D01*
X22414943Y-49623877D01*
X22424174Y-49628031D01*
X22443727Y-49639059D01*
X22452070Y-49644818D01*
X22510057Y-49666809D01*
X22513512Y-49668239D01*
X22527613Y-49674586D01*
X22570063Y-49693692D01*
X22570064Y-49693692D01*
X22570068Y-49693694D01*
X22580030Y-49695519D01*
X22601651Y-49701546D01*
X22611125Y-49705139D01*
X22611128Y-49705140D01*
X22627871Y-49707173D01*
X22672689Y-49712615D01*
X22676386Y-49713177D01*
X22737394Y-49724357D01*
X22737395Y-49724356D01*
X22737396Y-49724357D01*
X22799293Y-49720613D01*
X22803037Y-49720500D01*
X32678481Y-49720500D01*
X32745520Y-49740185D01*
X32766162Y-49756819D01*
X38431787Y-55422444D01*
X38465272Y-55483767D01*
X38464680Y-55539072D01*
X38414317Y-55748848D01*
X38394551Y-56000000D01*
X38414317Y-56251151D01*
X38473126Y-56496110D01*
X38569533Y-56728859D01*
X38701160Y-56943653D01*
X38701161Y-56943655D01*
X38701162Y-56943657D01*
X38701164Y-56943659D01*
X38830395Y-57094970D01*
X38858966Y-57158730D01*
X38848529Y-57227815D01*
X38802398Y-57280291D01*
X38736105Y-57299500D01*
X36282940Y-57299500D01*
X36215901Y-57279815D01*
X36195259Y-57263181D01*
X31802262Y-52870184D01*
X31802259Y-52870182D01*
X31766904Y-52847966D01*
X31761229Y-52843940D01*
X31728589Y-52817910D01*
X31690959Y-52799787D01*
X31684872Y-52796422D01*
X31649525Y-52774212D01*
X31610114Y-52760421D01*
X31603688Y-52757759D01*
X31566061Y-52739639D01*
X31525345Y-52730345D01*
X31518662Y-52728420D01*
X31479259Y-52714632D01*
X31437763Y-52709955D01*
X31430908Y-52708791D01*
X31390200Y-52699501D01*
X31390196Y-52699500D01*
X31390194Y-52699500D01*
X31390191Y-52699500D01*
X31348436Y-52699500D01*
X31341497Y-52699110D01*
X31312599Y-52695854D01*
X31300002Y-52694435D01*
X31299998Y-52694435D01*
X31287400Y-52695854D01*
X31258502Y-52699110D01*
X31251564Y-52699500D01*
X31209806Y-52699500D01*
X31203888Y-52700850D01*
X31169089Y-52708791D01*
X31162235Y-52709955D01*
X31120744Y-52714632D01*
X31081341Y-52728419D01*
X31074659Y-52730344D01*
X31033939Y-52739639D01*
X30996320Y-52757755D01*
X30989895Y-52760416D01*
X30950483Y-52774208D01*
X30950476Y-52774212D01*
X30915120Y-52796427D01*
X30909033Y-52799791D01*
X30871411Y-52817910D01*
X30859982Y-52827024D01*
X30795295Y-52853430D01*
X30726600Y-52840671D01*
X30675708Y-52792799D01*
X30669598Y-52780967D01*
X30666558Y-52774212D01*
X30648229Y-52733488D01*
X30646812Y-52730067D01*
X30624818Y-52672070D01*
X30624816Y-52672068D01*
X30624816Y-52672066D01*
X30619062Y-52663731D01*
X30608034Y-52644177D01*
X30603881Y-52634949D01*
X30603878Y-52634945D01*
X30603878Y-52634944D01*
X30565626Y-52586120D01*
X30563416Y-52583115D01*
X30561011Y-52579631D01*
X30528183Y-52532071D01*
X30481742Y-52490928D01*
X30479048Y-52488392D01*
X28481598Y-50490941D01*
X28479064Y-50488250D01*
X28437929Y-50441817D01*
X28437928Y-50441816D01*
X28437924Y-50441812D01*
X28386896Y-50406591D01*
X28383887Y-50404377D01*
X28346623Y-50375183D01*
X28335060Y-50366124D01*
X28335055Y-50366120D01*
X28325813Y-50361961D01*
X28306266Y-50350936D01*
X28297931Y-50345183D01*
X28297932Y-50345183D01*
X28297930Y-50345182D01*
X28239941Y-50323189D01*
X28236490Y-50321759D01*
X28179930Y-50296304D01*
X28169946Y-50294474D01*
X28148343Y-50288451D01*
X28138874Y-50284860D01*
X28138870Y-50284859D01*
X28077313Y-50277384D01*
X28073612Y-50276821D01*
X28012608Y-50265642D01*
X28012603Y-50265642D01*
X27950697Y-50269387D01*
X27946952Y-50269500D01*
X22191785Y-50269500D01*
X22124746Y-50249815D01*
X22078991Y-50197011D01*
X22069047Y-50127853D01*
X22072010Y-50113407D01*
X22087300Y-50056343D01*
X22125063Y-49915408D01*
X22145659Y-49680000D01*
X22145659Y-49679999D01*
X22145659Y-49674586D01*
X22146769Y-49674586D01*
X22159422Y-49611580D01*
X22208030Y-49561390D01*
X22276057Y-49545447D01*
X22339632Y-49567207D01*
G37*
%TD.AperFunction*%
%TA.AperFunction,Conductor*%
G36*
X23015469Y-44020185D02*
G01*
X23036111Y-44036819D01*
X26482196Y-47482903D01*
X26482430Y-47483252D01*
X26499616Y-47500381D01*
X26499617Y-47500383D01*
X26499901Y-47500500D01*
X26500000Y-47500541D01*
X26500000Y-47500540D01*
X26500001Y-47500541D01*
X26524554Y-47500541D01*
X26524760Y-47500500D01*
X73475145Y-47500500D01*
X73475334Y-47500538D01*
X73499997Y-47500540D01*
X73500000Y-47500542D01*
X73500284Y-47500424D01*
X73500284Y-47500423D01*
X73500414Y-47500370D01*
X73502654Y-47499464D01*
X73508831Y-47491934D01*
X73518147Y-47482618D01*
X73518260Y-47482446D01*
X76963888Y-44036818D01*
X77025211Y-44003334D01*
X77051569Y-44000500D01*
X83997292Y-44000500D01*
X84002697Y-44000736D01*
X84045491Y-44004480D01*
X84171776Y-44016918D01*
X84191685Y-44020541D01*
X84257426Y-44038156D01*
X84259208Y-44038664D01*
X84351570Y-44066682D01*
X84367959Y-44072952D01*
X84435396Y-44104399D01*
X84438375Y-44105888D01*
X84475969Y-44125982D01*
X84522327Y-44150762D01*
X84528667Y-44154657D01*
X84594828Y-44200983D01*
X84598600Y-44203844D01*
X84670808Y-44263103D01*
X84675309Y-44267182D01*
X84732815Y-44324688D01*
X84736895Y-44329190D01*
X84796154Y-44401398D01*
X84799015Y-44405170D01*
X84845341Y-44471331D01*
X84849236Y-44477671D01*
X84894101Y-44561605D01*
X84895613Y-44564630D01*
X84927041Y-44632027D01*
X84933319Y-44648436D01*
X84961303Y-44740684D01*
X84961860Y-44742636D01*
X84979454Y-44808298D01*
X84983082Y-44828238D01*
X84995522Y-44954552D01*
X84999264Y-44997300D01*
X84999500Y-45002709D01*
X84999500Y-108997290D01*
X84999264Y-109002699D01*
X84995522Y-109045446D01*
X84983082Y-109171760D01*
X84979454Y-109191700D01*
X84961860Y-109257362D01*
X84961303Y-109259314D01*
X84933319Y-109351562D01*
X84927041Y-109367971D01*
X84895613Y-109435368D01*
X84894101Y-109438393D01*
X84849236Y-109522327D01*
X84845341Y-109528667D01*
X84799015Y-109594828D01*
X84796154Y-109598600D01*
X84736895Y-109670808D01*
X84732806Y-109675320D01*
X84675320Y-109732806D01*
X84670808Y-109736895D01*
X84598600Y-109796154D01*
X84594828Y-109799015D01*
X84528667Y-109845341D01*
X84522327Y-109849236D01*
X84438393Y-109894101D01*
X84435368Y-109895613D01*
X84367971Y-109927041D01*
X84351562Y-109933319D01*
X84259314Y-109961303D01*
X84257362Y-109961860D01*
X84191700Y-109979454D01*
X84171760Y-109983082D01*
X84045446Y-109995522D01*
X84007251Y-109998865D01*
X84002694Y-109999264D01*
X83997291Y-109999500D01*
X16002709Y-109999500D01*
X15997305Y-109999264D01*
X15992337Y-109998829D01*
X15954552Y-109995522D01*
X15828238Y-109983082D01*
X15808298Y-109979454D01*
X15742636Y-109961860D01*
X15740711Y-109961310D01*
X15703113Y-109949905D01*
X15648436Y-109933319D01*
X15632027Y-109927041D01*
X15564630Y-109895613D01*
X15561605Y-109894101D01*
X15477671Y-109849236D01*
X15471331Y-109845341D01*
X15405170Y-109799015D01*
X15401398Y-109796154D01*
X15329190Y-109736895D01*
X15324688Y-109732815D01*
X15267182Y-109675309D01*
X15263103Y-109670808D01*
X15203844Y-109598600D01*
X15200983Y-109594828D01*
X15154657Y-109528667D01*
X15150762Y-109522327D01*
X15125982Y-109475969D01*
X15105888Y-109438375D01*
X15104399Y-109435396D01*
X15072952Y-109367959D01*
X15066682Y-109351570D01*
X15038664Y-109259208D01*
X15038156Y-109257426D01*
X15020541Y-109191685D01*
X15016918Y-109171776D01*
X15004476Y-109045446D01*
X15000736Y-109002696D01*
X15000500Y-108997291D01*
X15000500Y-92860000D01*
X16894341Y-92860000D01*
X16914936Y-93095403D01*
X16914938Y-93095413D01*
X16976094Y-93323655D01*
X16976096Y-93323659D01*
X16976097Y-93323663D01*
X17046914Y-93475530D01*
X17075965Y-93537830D01*
X17075967Y-93537834D01*
X17184281Y-93692521D01*
X17211505Y-93731401D01*
X17378599Y-93898495D01*
X17475384Y-93966264D01*
X17572165Y-94034032D01*
X17572167Y-94034033D01*
X17572170Y-94034035D01*
X17786337Y-94133903D01*
X18014592Y-94195063D01*
X18202918Y-94211539D01*
X18249999Y-94215659D01*
X18250000Y-94215659D01*
X18250001Y-94215659D01*
X18289234Y-94212226D01*
X18485408Y-94195063D01*
X18713663Y-94133903D01*
X18927830Y-94034035D01*
X19121401Y-93898495D01*
X19288495Y-93731401D01*
X19418424Y-93545842D01*
X19473002Y-93502217D01*
X19542500Y-93495023D01*
X19604855Y-93526546D01*
X19621575Y-93545842D01*
X19751500Y-93731395D01*
X19751505Y-93731401D01*
X19918599Y-93898495D01*
X20015384Y-93966264D01*
X20112165Y-94034032D01*
X20112167Y-94034033D01*
X20112170Y-94034035D01*
X20326337Y-94133903D01*
X20554592Y-94195063D01*
X20742918Y-94211539D01*
X20789999Y-94215659D01*
X20790000Y-94215659D01*
X20790001Y-94215659D01*
X20829234Y-94212226D01*
X21025408Y-94195063D01*
X21253663Y-94133903D01*
X21467830Y-94034035D01*
X21516437Y-94000000D01*
X24394551Y-94000000D01*
X24414317Y-94251151D01*
X24473126Y-94496110D01*
X24569533Y-94728859D01*
X24701160Y-94943653D01*
X24701161Y-94943656D01*
X24719704Y-94965367D01*
X24864776Y-95135224D01*
X25013066Y-95261875D01*
X25056343Y-95298838D01*
X25056346Y-95298839D01*
X25271140Y-95430466D01*
X25503889Y-95526873D01*
X25748852Y-95585683D01*
X26000000Y-95605449D01*
X26251148Y-95585683D01*
X26496111Y-95526873D01*
X26728859Y-95430466D01*
X26943659Y-95298836D01*
X27135224Y-95135224D01*
X27298836Y-94943659D01*
X27430466Y-94728859D01*
X27526873Y-94496111D01*
X27585683Y-94251148D01*
X27605449Y-94000000D01*
X30394551Y-94000000D01*
X30414317Y-94251151D01*
X30473126Y-94496110D01*
X30569533Y-94728859D01*
X30701160Y-94943653D01*
X30701161Y-94943656D01*
X30719704Y-94965367D01*
X30864776Y-95135224D01*
X31013066Y-95261875D01*
X31056343Y-95298838D01*
X31056346Y-95298839D01*
X31271140Y-95430466D01*
X31503888Y-95526873D01*
X31503889Y-95526873D01*
X31748852Y-95585683D01*
X32000000Y-95605449D01*
X32251148Y-95585683D01*
X32496111Y-95526873D01*
X32728859Y-95430466D01*
X32943659Y-95298836D01*
X33135224Y-95135224D01*
X33298836Y-94943659D01*
X33430466Y-94728859D01*
X33526873Y-94496111D01*
X33585683Y-94251148D01*
X33605449Y-94000000D01*
X33605449Y-93999999D01*
X35394551Y-93999999D01*
X35414317Y-94251151D01*
X35473126Y-94496110D01*
X35569533Y-94728859D01*
X35701160Y-94943653D01*
X35701161Y-94943656D01*
X35719704Y-94965367D01*
X35864776Y-95135224D01*
X36013066Y-95261875D01*
X36056343Y-95298838D01*
X36056346Y-95298839D01*
X36271140Y-95430466D01*
X36503888Y-95526873D01*
X36503889Y-95526873D01*
X36748852Y-95585683D01*
X37000000Y-95605449D01*
X37251148Y-95585683D01*
X37496111Y-95526873D01*
X37728859Y-95430466D01*
X37943659Y-95298836D01*
X38135224Y-95135224D01*
X38298836Y-94943659D01*
X38430466Y-94728859D01*
X38526873Y-94496111D01*
X38585683Y-94251148D01*
X38605449Y-94000000D01*
X38585683Y-93748852D01*
X38526873Y-93503889D01*
X38452222Y-93323664D01*
X38430466Y-93271140D01*
X38298839Y-93056346D01*
X38298838Y-93056343D01*
X38261384Y-93012490D01*
X38135224Y-92864776D01*
X37973553Y-92726696D01*
X37943656Y-92701161D01*
X37943653Y-92701160D01*
X37728859Y-92569533D01*
X37496110Y-92473126D01*
X37251151Y-92414317D01*
X37062787Y-92399492D01*
X37000000Y-92394551D01*
X36999999Y-92394551D01*
X36748848Y-92414317D01*
X36503889Y-92473126D01*
X36271140Y-92569533D01*
X36056346Y-92701160D01*
X36056343Y-92701161D01*
X35864776Y-92864776D01*
X35701161Y-93056343D01*
X35701160Y-93056346D01*
X35569533Y-93271140D01*
X35473126Y-93503889D01*
X35414317Y-93748848D01*
X35394551Y-93999999D01*
X33605449Y-93999999D01*
X33585683Y-93748852D01*
X33526873Y-93503889D01*
X33452222Y-93323664D01*
X33430466Y-93271140D01*
X33298839Y-93056346D01*
X33298838Y-93056343D01*
X33261384Y-93012490D01*
X33135224Y-92864776D01*
X32973553Y-92726696D01*
X32943656Y-92701161D01*
X32943653Y-92701160D01*
X32728859Y-92569533D01*
X32496110Y-92473126D01*
X32251151Y-92414317D01*
X32000000Y-92394551D01*
X31748848Y-92414317D01*
X31503889Y-92473126D01*
X31271140Y-92569533D01*
X31056346Y-92701160D01*
X31056343Y-92701161D01*
X30864776Y-92864776D01*
X30701161Y-93056343D01*
X30701160Y-93056346D01*
X30569533Y-93271140D01*
X30473126Y-93503889D01*
X30414317Y-93748848D01*
X30394551Y-94000000D01*
X27605449Y-94000000D01*
X27585683Y-93748852D01*
X27526873Y-93503889D01*
X27452222Y-93323664D01*
X27430466Y-93271140D01*
X27298839Y-93056346D01*
X27298838Y-93056343D01*
X27261384Y-93012490D01*
X27135224Y-92864776D01*
X26973553Y-92726696D01*
X26943656Y-92701161D01*
X26943653Y-92701160D01*
X26728859Y-92569533D01*
X26496110Y-92473126D01*
X26251151Y-92414317D01*
X26062786Y-92399492D01*
X26000000Y-92394551D01*
X25999999Y-92394551D01*
X25748848Y-92414317D01*
X25503889Y-92473126D01*
X25271140Y-92569533D01*
X25056346Y-92701160D01*
X25056343Y-92701161D01*
X24864776Y-92864776D01*
X24701161Y-93056343D01*
X24701160Y-93056346D01*
X24569533Y-93271140D01*
X24473126Y-93503889D01*
X24414317Y-93748848D01*
X24394551Y-94000000D01*
X21516437Y-94000000D01*
X21661401Y-93898495D01*
X21828495Y-93731401D01*
X21964035Y-93537830D01*
X22063903Y-93323663D01*
X22125063Y-93095408D01*
X22145659Y-92860000D01*
X22125063Y-92624592D01*
X22063903Y-92396337D01*
X21964035Y-92182171D01*
X21958425Y-92174158D01*
X21828494Y-91988597D01*
X21661402Y-91821506D01*
X21661401Y-91821505D01*
X21522314Y-91724115D01*
X21475841Y-91691574D01*
X21432216Y-91636997D01*
X21425024Y-91567498D01*
X21456546Y-91505144D01*
X21475836Y-91488428D01*
X21661401Y-91358495D01*
X21828495Y-91191401D01*
X21964035Y-90997830D01*
X22023207Y-90870936D01*
X32575631Y-90870936D01*
X32606442Y-91072063D01*
X32606445Y-91072075D01*
X32677111Y-91262881D01*
X32677115Y-91262888D01*
X32784745Y-91435567D01*
X32784747Y-91435569D01*
X32784748Y-91435571D01*
X32924941Y-91583053D01*
X33053344Y-91672424D01*
X33091949Y-91699294D01*
X33091950Y-91699294D01*
X33091951Y-91699295D01*
X33278942Y-91779540D01*
X33478259Y-91820500D01*
X36866507Y-91820500D01*
X36868069Y-91820519D01*
X36905283Y-91821462D01*
X36956358Y-91822757D01*
X36956358Y-91822756D01*
X36956363Y-91822757D01*
X37016753Y-91811932D01*
X37021412Y-91811280D01*
X37063607Y-91806988D01*
X37082438Y-91805074D01*
X37115227Y-91794786D01*
X37122840Y-91792918D01*
X37156653Y-91786858D01*
X37213621Y-91764101D01*
X37218053Y-91762524D01*
X37276588Y-91744159D01*
X37306627Y-91727484D01*
X37313708Y-91724122D01*
X37345617Y-91711377D01*
X37396854Y-91677608D01*
X37400851Y-91675187D01*
X37454502Y-91645409D01*
X37480568Y-91623030D01*
X37486843Y-91618300D01*
X37495644Y-91612500D01*
X37515519Y-91599402D01*
X37558892Y-91556027D01*
X37562350Y-91552823D01*
X37573790Y-91543002D01*
X37608895Y-91512866D01*
X37629928Y-91485691D01*
X37635098Y-91479821D01*
X39833819Y-89281101D01*
X39895142Y-89247616D01*
X39964834Y-89252600D01*
X40020767Y-89294472D01*
X40045184Y-89359936D01*
X40045500Y-89368782D01*
X40045500Y-92722951D01*
X40045387Y-92726696D01*
X40041642Y-92788603D01*
X40041642Y-92788605D01*
X40052821Y-92849612D01*
X40053384Y-92853313D01*
X40060859Y-92914870D01*
X40060860Y-92914874D01*
X40064451Y-92924343D01*
X40070474Y-92945946D01*
X40072304Y-92955930D01*
X40097759Y-93012490D01*
X40099189Y-93015941D01*
X40121182Y-93073930D01*
X40121183Y-93073931D01*
X40126936Y-93082266D01*
X40137961Y-93101813D01*
X40142120Y-93111055D01*
X40142124Y-93111060D01*
X40180371Y-93159878D01*
X40182591Y-93162896D01*
X40217812Y-93213924D01*
X40217816Y-93213928D01*
X40217817Y-93213929D01*
X40264250Y-93255064D01*
X40266941Y-93257598D01*
X40431787Y-93422443D01*
X40431787Y-93422444D01*
X40465272Y-93483767D01*
X40464680Y-93539072D01*
X40414317Y-93748848D01*
X40394551Y-94000000D01*
X40414317Y-94251151D01*
X40473126Y-94496110D01*
X40569533Y-94728859D01*
X40701160Y-94943653D01*
X40701161Y-94943656D01*
X40719704Y-94965367D01*
X40864776Y-95135224D01*
X41013066Y-95261875D01*
X41056343Y-95298838D01*
X41056346Y-95298839D01*
X41271140Y-95430466D01*
X41503889Y-95526873D01*
X41748852Y-95585683D01*
X42000000Y-95605449D01*
X42251148Y-95585683D01*
X42496111Y-95526873D01*
X42728859Y-95430466D01*
X42943659Y-95298836D01*
X43135224Y-95135224D01*
X43298836Y-94943659D01*
X43430466Y-94728859D01*
X43526873Y-94496111D01*
X43585683Y-94251148D01*
X43605449Y-94000000D01*
X45394551Y-94000000D01*
X45414317Y-94251151D01*
X45473126Y-94496110D01*
X45569533Y-94728859D01*
X45701160Y-94943653D01*
X45701161Y-94943656D01*
X45719704Y-94965367D01*
X45864776Y-95135224D01*
X46013066Y-95261875D01*
X46056343Y-95298838D01*
X46056346Y-95298839D01*
X46271140Y-95430466D01*
X46503888Y-95526873D01*
X46503889Y-95526873D01*
X46748852Y-95585683D01*
X47000000Y-95605449D01*
X47251148Y-95585683D01*
X47496111Y-95526873D01*
X47728859Y-95430466D01*
X47943659Y-95298836D01*
X48135224Y-95135224D01*
X48298836Y-94943659D01*
X48430466Y-94728859D01*
X48526873Y-94496111D01*
X48585683Y-94251148D01*
X48605449Y-94000000D01*
X50394551Y-94000000D01*
X50414317Y-94251151D01*
X50473126Y-94496110D01*
X50569533Y-94728859D01*
X50701160Y-94943653D01*
X50701161Y-94943656D01*
X50719704Y-94965367D01*
X50864776Y-95135224D01*
X51013066Y-95261875D01*
X51056343Y-95298838D01*
X51056346Y-95298839D01*
X51271140Y-95430466D01*
X51503889Y-95526873D01*
X51748852Y-95585683D01*
X52000000Y-95605449D01*
X52251148Y-95585683D01*
X52496111Y-95526873D01*
X52728859Y-95430466D01*
X52943659Y-95298836D01*
X53135224Y-95135224D01*
X53298836Y-94943659D01*
X53430466Y-94728859D01*
X53526873Y-94496111D01*
X53585683Y-94251148D01*
X53605449Y-94000000D01*
X60394551Y-94000000D01*
X60414317Y-94251151D01*
X60473126Y-94496110D01*
X60569533Y-94728859D01*
X60701160Y-94943653D01*
X60701161Y-94943656D01*
X60719704Y-94965367D01*
X60864776Y-95135224D01*
X61013066Y-95261875D01*
X61056343Y-95298838D01*
X61056346Y-95298839D01*
X61271140Y-95430466D01*
X61503889Y-95526873D01*
X61748852Y-95585683D01*
X62000000Y-95605449D01*
X62251148Y-95585683D01*
X62496111Y-95526873D01*
X62728859Y-95430466D01*
X62943659Y-95298836D01*
X63135224Y-95135224D01*
X63298836Y-94943659D01*
X63430466Y-94728859D01*
X63526873Y-94496111D01*
X63585683Y-94251148D01*
X63605449Y-94000000D01*
X65394551Y-94000000D01*
X65414317Y-94251151D01*
X65473126Y-94496110D01*
X65569533Y-94728859D01*
X65701160Y-94943653D01*
X65701161Y-94943656D01*
X65719704Y-94965367D01*
X65864776Y-95135224D01*
X66013066Y-95261875D01*
X66056343Y-95298838D01*
X66056346Y-95298839D01*
X66271140Y-95430466D01*
X66503889Y-95526873D01*
X66748852Y-95585683D01*
X67000000Y-95605449D01*
X67251148Y-95585683D01*
X67496111Y-95526873D01*
X67728859Y-95430466D01*
X67943659Y-95298836D01*
X68135224Y-95135224D01*
X68298836Y-94943659D01*
X68430466Y-94728859D01*
X68526873Y-94496111D01*
X68585683Y-94251148D01*
X68605449Y-94000000D01*
X68585683Y-93748852D01*
X68526873Y-93503889D01*
X68452222Y-93323664D01*
X68430466Y-93271140D01*
X68298839Y-93056346D01*
X68298838Y-93056343D01*
X68261384Y-93012490D01*
X68135224Y-92864776D01*
X67973553Y-92726696D01*
X67943656Y-92701161D01*
X67943653Y-92701160D01*
X67728859Y-92569533D01*
X67496110Y-92473126D01*
X67251151Y-92414317D01*
X67000000Y-92394551D01*
X66748848Y-92414317D01*
X66503889Y-92473126D01*
X66271140Y-92569533D01*
X66056346Y-92701160D01*
X66056343Y-92701161D01*
X65864776Y-92864776D01*
X65701161Y-93056343D01*
X65701160Y-93056346D01*
X65569533Y-93271140D01*
X65473126Y-93503889D01*
X65414317Y-93748848D01*
X65394551Y-94000000D01*
X63605449Y-94000000D01*
X63585683Y-93748852D01*
X63526873Y-93503889D01*
X63452222Y-93323664D01*
X63430466Y-93271140D01*
X63298839Y-93056346D01*
X63298838Y-93056343D01*
X63261384Y-93012490D01*
X63135224Y-92864776D01*
X62973553Y-92726696D01*
X62943656Y-92701161D01*
X62943653Y-92701160D01*
X62728859Y-92569533D01*
X62496110Y-92473126D01*
X62251151Y-92414317D01*
X62000000Y-92394551D01*
X61748848Y-92414317D01*
X61503889Y-92473126D01*
X61271140Y-92569533D01*
X61056346Y-92701160D01*
X61056343Y-92701161D01*
X60864776Y-92864776D01*
X60701161Y-93056343D01*
X60701160Y-93056346D01*
X60569533Y-93271140D01*
X60473126Y-93503889D01*
X60414317Y-93748848D01*
X60394551Y-94000000D01*
X53605449Y-94000000D01*
X53585683Y-93748852D01*
X53526873Y-93503889D01*
X53452222Y-93323664D01*
X53430466Y-93271140D01*
X53298839Y-93056346D01*
X53298838Y-93056343D01*
X53261384Y-93012490D01*
X53135224Y-92864776D01*
X52973553Y-92726696D01*
X52943656Y-92701161D01*
X52943653Y-92701160D01*
X52728859Y-92569533D01*
X52496110Y-92473126D01*
X52251151Y-92414317D01*
X52000000Y-92394551D01*
X51748848Y-92414317D01*
X51503889Y-92473126D01*
X51271140Y-92569533D01*
X51056346Y-92701160D01*
X51056343Y-92701161D01*
X50864776Y-92864776D01*
X50701161Y-93056343D01*
X50701160Y-93056346D01*
X50569533Y-93271140D01*
X50473126Y-93503889D01*
X50414317Y-93748848D01*
X50394551Y-94000000D01*
X48605449Y-94000000D01*
X48585683Y-93748852D01*
X48526873Y-93503889D01*
X48452222Y-93323664D01*
X48430466Y-93271140D01*
X48298839Y-93056346D01*
X48298838Y-93056343D01*
X48261384Y-93012490D01*
X48135224Y-92864776D01*
X47973553Y-92726696D01*
X47943656Y-92701161D01*
X47943653Y-92701160D01*
X47728859Y-92569533D01*
X47496110Y-92473126D01*
X47251151Y-92414317D01*
X47000000Y-92394551D01*
X46748848Y-92414317D01*
X46503889Y-92473126D01*
X46271140Y-92569533D01*
X46056346Y-92701160D01*
X46056343Y-92701161D01*
X45864776Y-92864776D01*
X45701161Y-93056343D01*
X45701160Y-93056346D01*
X45569533Y-93271140D01*
X45473126Y-93503889D01*
X45414317Y-93748848D01*
X45394551Y-94000000D01*
X43605449Y-94000000D01*
X43585683Y-93748852D01*
X43526873Y-93503889D01*
X43452222Y-93323664D01*
X43430466Y-93271140D01*
X43298839Y-93056346D01*
X43298838Y-93056343D01*
X43261384Y-93012490D01*
X43135224Y-92864776D01*
X42973553Y-92726696D01*
X42943656Y-92701161D01*
X42943653Y-92701160D01*
X42728859Y-92569533D01*
X42496110Y-92473126D01*
X42251151Y-92414317D01*
X42062786Y-92399492D01*
X42000000Y-92394551D01*
X41999999Y-92394551D01*
X41977332Y-92396335D01*
X41748852Y-92414317D01*
X41748848Y-92414317D01*
X41748847Y-92414318D01*
X41599446Y-92450185D01*
X41529664Y-92446694D01*
X41472847Y-92406030D01*
X41447034Y-92341103D01*
X41446500Y-92329611D01*
X41446500Y-85348126D01*
X41446952Y-85340646D01*
X41451645Y-85302000D01*
X41431140Y-85133128D01*
X41370818Y-84974070D01*
X41274183Y-84834071D01*
X41171372Y-84742989D01*
X41146849Y-84721263D01*
X40996226Y-84642210D01*
X40831056Y-84601500D01*
X40660944Y-84601500D01*
X40495773Y-84642210D01*
X40345150Y-84721263D01*
X40217816Y-84834072D01*
X40121182Y-84974068D01*
X40060860Y-85133125D01*
X40060859Y-85133130D01*
X40046529Y-85251151D01*
X40040355Y-85302000D01*
X40041001Y-85307324D01*
X40045048Y-85340646D01*
X40045500Y-85348126D01*
X40045500Y-86900947D01*
X40025815Y-86967986D01*
X39973011Y-87013741D01*
X39903853Y-87023685D01*
X39890419Y-87020989D01*
X39832285Y-87005937D01*
X39832287Y-87005937D01*
X39696804Y-86999066D01*
X39629064Y-86995631D01*
X39629063Y-86995631D01*
X39629061Y-86995631D01*
X39427936Y-87026442D01*
X39427924Y-87026445D01*
X39237118Y-87097111D01*
X39237111Y-87097115D01*
X39064432Y-87204745D01*
X39064427Y-87204749D01*
X38916949Y-87344937D01*
X38870143Y-87412185D01*
X38856050Y-87429027D01*
X36501899Y-89783181D01*
X36440576Y-89816666D01*
X36414218Y-89819500D01*
X33529257Y-89819500D01*
X33377560Y-89834925D01*
X33183420Y-89895837D01*
X33183405Y-89895844D01*
X33005500Y-89994589D01*
X33005495Y-89994592D01*
X32851106Y-90127132D01*
X32851104Y-90127134D01*
X32726554Y-90288037D01*
X32726553Y-90288040D01*
X32636940Y-90470728D01*
X32585937Y-90667714D01*
X32575631Y-90870936D01*
X22023207Y-90870936D01*
X22063903Y-90783663D01*
X22125063Y-90555408D01*
X22145659Y-90320000D01*
X22125063Y-90084592D01*
X22063903Y-89856337D01*
X21964035Y-89642171D01*
X21958425Y-89634158D01*
X21828494Y-89448597D01*
X21661402Y-89281506D01*
X21661396Y-89281501D01*
X21475842Y-89151575D01*
X21432217Y-89096998D01*
X21425023Y-89027500D01*
X21438925Y-89000000D01*
X24394551Y-89000000D01*
X24414317Y-89251151D01*
X24473126Y-89496110D01*
X24569533Y-89728859D01*
X24701160Y-89943653D01*
X24701161Y-89943656D01*
X24733190Y-89981157D01*
X24864776Y-90135224D01*
X25013066Y-90261875D01*
X25056343Y-90298838D01*
X25056346Y-90298839D01*
X25271140Y-90430466D01*
X25503889Y-90526872D01*
X25503889Y-90526873D01*
X25748852Y-90585683D01*
X26000000Y-90605449D01*
X26251148Y-90585683D01*
X26496111Y-90526873D01*
X26728859Y-90430466D01*
X26943659Y-90298836D01*
X27135224Y-90135224D01*
X27298836Y-89943659D01*
X27430466Y-89728859D01*
X27526873Y-89496111D01*
X27585683Y-89251148D01*
X27605449Y-89000000D01*
X27585683Y-88748852D01*
X27526873Y-88503889D01*
X27517185Y-88480500D01*
X27430466Y-88271140D01*
X27298839Y-88056346D01*
X27298838Y-88056343D01*
X27261875Y-88013066D01*
X27135224Y-87864776D01*
X27008571Y-87756604D01*
X26943656Y-87701161D01*
X26943653Y-87701160D01*
X26728859Y-87569533D01*
X26496110Y-87473126D01*
X26251151Y-87414317D01*
X26062786Y-87399492D01*
X26000000Y-87394551D01*
X25999999Y-87394551D01*
X25748848Y-87414317D01*
X25503889Y-87473126D01*
X25271140Y-87569533D01*
X25056346Y-87701160D01*
X25056343Y-87701161D01*
X24864776Y-87864776D01*
X24701161Y-88056343D01*
X24701160Y-88056346D01*
X24569533Y-88271140D01*
X24473126Y-88503889D01*
X24414317Y-88748848D01*
X24394551Y-89000000D01*
X21438925Y-89000000D01*
X21456546Y-88965145D01*
X21475842Y-88948425D01*
X21498026Y-88932891D01*
X21661401Y-88818495D01*
X21828495Y-88651401D01*
X21964035Y-88457830D01*
X22063903Y-88243663D01*
X22125063Y-88015408D01*
X22145659Y-87780000D01*
X22125063Y-87544592D01*
X22063903Y-87316337D01*
X21964035Y-87102171D01*
X21958425Y-87094158D01*
X21828494Y-86908597D01*
X21661402Y-86741506D01*
X21661401Y-86741505D01*
X21475842Y-86611575D01*
X21475841Y-86611574D01*
X21432216Y-86556997D01*
X21425024Y-86487498D01*
X21456546Y-86425144D01*
X21475836Y-86408428D01*
X21661401Y-86278495D01*
X21828495Y-86111401D01*
X21964035Y-85917830D01*
X22063903Y-85703663D01*
X22125063Y-85475408D01*
X22145659Y-85240000D01*
X22125063Y-85004592D01*
X22067643Y-84790296D01*
X22063905Y-84776344D01*
X22063904Y-84776343D01*
X22063903Y-84776337D01*
X21964035Y-84562171D01*
X21947861Y-84539071D01*
X21828494Y-84368597D01*
X21661402Y-84201506D01*
X21661396Y-84201501D01*
X21475842Y-84071575D01*
X21432217Y-84016998D01*
X21425023Y-83947500D01*
X21456546Y-83885145D01*
X21475842Y-83868425D01*
X21498026Y-83852891D01*
X21661401Y-83738495D01*
X21828495Y-83571401D01*
X21964035Y-83377830D01*
X22063903Y-83163663D01*
X22125063Y-82935408D01*
X22145659Y-82700000D01*
X22125063Y-82464592D01*
X22063903Y-82236337D01*
X21964035Y-82022171D01*
X21948543Y-82000045D01*
X21828494Y-81828597D01*
X21661402Y-81661506D01*
X21661401Y-81661505D01*
X21475842Y-81531575D01*
X21475841Y-81531574D01*
X21432216Y-81476997D01*
X21425024Y-81407498D01*
X21456546Y-81345144D01*
X21475836Y-81328428D01*
X21661401Y-81198495D01*
X21828495Y-81031401D01*
X21964035Y-80837830D01*
X22063903Y-80623663D01*
X22125063Y-80395408D01*
X22145659Y-80160000D01*
X22125063Y-79924592D01*
X22065195Y-79701160D01*
X22063905Y-79696344D01*
X22063904Y-79696341D01*
X22063903Y-79696337D01*
X21964035Y-79482171D01*
X21958462Y-79474211D01*
X21828494Y-79288597D01*
X21661402Y-79121506D01*
X21661396Y-79121501D01*
X21475842Y-78991575D01*
X21432217Y-78936998D01*
X21425023Y-78867500D01*
X21456546Y-78805145D01*
X21475842Y-78788425D01*
X21549543Y-78736819D01*
X21661401Y-78658495D01*
X21828495Y-78491401D01*
X21964035Y-78297830D01*
X22063903Y-78083663D01*
X22125063Y-77855408D01*
X22145659Y-77620000D01*
X22125063Y-77384592D01*
X22063903Y-77156337D01*
X21964035Y-76942171D01*
X21958425Y-76934158D01*
X21828494Y-76748597D01*
X21661402Y-76581506D01*
X21661396Y-76581501D01*
X21475842Y-76451575D01*
X21432217Y-76396998D01*
X21425023Y-76327500D01*
X21456546Y-76265145D01*
X21475842Y-76248425D01*
X21550541Y-76196120D01*
X21661401Y-76118495D01*
X21828495Y-75951401D01*
X21964035Y-75757830D01*
X22063903Y-75543663D01*
X22125063Y-75315408D01*
X22145659Y-75080000D01*
X22125063Y-74844592D01*
X22063903Y-74616337D01*
X21964035Y-74402171D01*
X21945301Y-74375415D01*
X21828494Y-74208597D01*
X21661402Y-74041506D01*
X21661401Y-74041505D01*
X21475405Y-73911269D01*
X21431781Y-73856692D01*
X21424588Y-73787193D01*
X21456110Y-73724839D01*
X21475405Y-73708119D01*
X21661082Y-73578105D01*
X21828105Y-73411082D01*
X21963600Y-73217578D01*
X22063429Y-73003492D01*
X22063432Y-73003486D01*
X22120636Y-72790000D01*
X21223686Y-72790000D01*
X21249493Y-72749844D01*
X21290000Y-72611889D01*
X21290000Y-72468111D01*
X21249493Y-72330156D01*
X21223686Y-72290000D01*
X22120636Y-72290000D01*
X22120635Y-72289999D01*
X22063432Y-72076513D01*
X22063429Y-72076507D01*
X21963600Y-71862422D01*
X21963599Y-71862420D01*
X21828113Y-71668926D01*
X21828108Y-71668920D01*
X21661082Y-71501894D01*
X21474968Y-71371575D01*
X21431344Y-71316998D01*
X21424151Y-71247499D01*
X21455673Y-71185145D01*
X21474968Y-71168425D01*
X21661082Y-71038105D01*
X21828105Y-70871082D01*
X21963600Y-70677578D01*
X22063429Y-70463492D01*
X22063432Y-70463486D01*
X22120636Y-70250000D01*
X21223686Y-70250000D01*
X21249493Y-70209844D01*
X21290000Y-70071889D01*
X21290000Y-69928111D01*
X21249493Y-69790156D01*
X21223686Y-69750000D01*
X22120636Y-69750000D01*
X22120635Y-69749999D01*
X22063432Y-69536513D01*
X22063429Y-69536507D01*
X21963600Y-69322422D01*
X21963599Y-69322420D01*
X21828113Y-69128926D01*
X21828108Y-69128920D01*
X21661078Y-68961890D01*
X21475405Y-68831879D01*
X21431780Y-68777302D01*
X21424588Y-68707804D01*
X21456110Y-68645449D01*
X21475406Y-68628730D01*
X21661401Y-68498495D01*
X21828495Y-68331401D01*
X21964035Y-68137830D01*
X22063903Y-67923663D01*
X22125063Y-67695408D01*
X22145659Y-67460000D01*
X22125063Y-67224592D01*
X22063903Y-66996337D01*
X21964035Y-66782171D01*
X21958425Y-66774158D01*
X21828494Y-66588597D01*
X21661402Y-66421506D01*
X21661396Y-66421501D01*
X21475842Y-66291575D01*
X21432217Y-66236998D01*
X21425023Y-66167500D01*
X21456546Y-66105145D01*
X21475842Y-66088425D01*
X21498026Y-66072891D01*
X21661401Y-65958495D01*
X21828495Y-65791401D01*
X21964035Y-65597830D01*
X22063903Y-65383663D01*
X22125063Y-65155408D01*
X22145659Y-64920000D01*
X22125063Y-64684592D01*
X22063903Y-64456337D01*
X21964035Y-64242171D01*
X21958425Y-64234158D01*
X21828494Y-64048597D01*
X21661402Y-63881506D01*
X21661396Y-63881501D01*
X21475842Y-63751575D01*
X21432217Y-63696998D01*
X21425023Y-63627500D01*
X21456546Y-63565145D01*
X21475842Y-63548425D01*
X21498026Y-63532891D01*
X21661401Y-63418495D01*
X21828495Y-63251401D01*
X21964035Y-63057830D01*
X22063903Y-62843663D01*
X22125063Y-62615408D01*
X22145659Y-62380000D01*
X22125063Y-62144592D01*
X22063903Y-61916337D01*
X21964035Y-61702171D01*
X21958425Y-61694158D01*
X21828494Y-61508597D01*
X21661402Y-61341506D01*
X21661396Y-61341501D01*
X21475842Y-61211575D01*
X21432217Y-61156998D01*
X21425023Y-61087500D01*
X21456546Y-61025145D01*
X21475842Y-61008425D01*
X21498026Y-60992891D01*
X21661401Y-60878495D01*
X21828495Y-60711401D01*
X21964035Y-60517830D01*
X22063903Y-60303663D01*
X22125063Y-60075408D01*
X22145659Y-59840000D01*
X22125063Y-59604592D01*
X22063903Y-59376337D01*
X21964035Y-59162171D01*
X21958425Y-59154158D01*
X21828494Y-58968597D01*
X21661402Y-58801506D01*
X21661396Y-58801501D01*
X21475842Y-58671575D01*
X21432217Y-58616998D01*
X21425023Y-58547500D01*
X21456546Y-58485145D01*
X21475842Y-58468425D01*
X21502838Y-58449522D01*
X21661401Y-58338495D01*
X21828495Y-58171401D01*
X21964035Y-57977830D01*
X22063903Y-57763663D01*
X22125063Y-57535408D01*
X22145659Y-57300000D01*
X22125063Y-57064592D01*
X22063903Y-56836337D01*
X21964035Y-56622171D01*
X21958731Y-56614595D01*
X21828494Y-56428597D01*
X21661402Y-56261506D01*
X21661401Y-56261505D01*
X21493844Y-56144180D01*
X21475405Y-56131269D01*
X21431781Y-56076692D01*
X21424588Y-56007193D01*
X21456110Y-55944839D01*
X21475405Y-55928119D01*
X21661082Y-55798105D01*
X21828105Y-55631082D01*
X21963600Y-55437578D01*
X22063429Y-55223492D01*
X22063432Y-55223486D01*
X22120636Y-55010000D01*
X21223686Y-55010000D01*
X21249493Y-54969844D01*
X21290000Y-54831889D01*
X21290000Y-54688111D01*
X21249493Y-54550156D01*
X21223686Y-54510000D01*
X22120636Y-54510000D01*
X22120635Y-54509999D01*
X22076851Y-54346594D01*
X22078514Y-54276744D01*
X22117676Y-54218881D01*
X22181905Y-54191377D01*
X22196626Y-54190500D01*
X25776584Y-54190500D01*
X25843623Y-54210185D01*
X25882311Y-54249710D01*
X26001160Y-54443653D01*
X26001161Y-54443656D01*
X26026331Y-54473126D01*
X26164776Y-54635224D01*
X26274158Y-54728645D01*
X26356343Y-54798838D01*
X26356346Y-54798839D01*
X26540289Y-54911560D01*
X26587164Y-54963371D01*
X26599499Y-55017287D01*
X26599499Y-71258480D01*
X26579814Y-71325519D01*
X26563180Y-71346161D01*
X26120966Y-71788375D01*
X26118240Y-71790942D01*
X26071818Y-71832068D01*
X26036586Y-71883109D01*
X26034368Y-71886124D01*
X25996124Y-71934939D01*
X25996119Y-71934948D01*
X25991960Y-71944188D01*
X25980942Y-71963723D01*
X25975187Y-71972061D01*
X25975183Y-71972067D01*
X25975182Y-71972070D01*
X25975180Y-71972074D01*
X25975179Y-71972077D01*
X25953189Y-72030055D01*
X25951757Y-72033513D01*
X25926305Y-72090068D01*
X25924477Y-72100042D01*
X25918453Y-72121653D01*
X25914860Y-72131127D01*
X25914859Y-72131128D01*
X25907384Y-72192685D01*
X25906821Y-72196386D01*
X25895642Y-72257390D01*
X25895642Y-72257395D01*
X25899386Y-72319303D01*
X25899499Y-72323047D01*
X25899499Y-84376951D01*
X25899386Y-84380694D01*
X25895641Y-84442601D01*
X25895642Y-84442605D01*
X25906821Y-84503612D01*
X25907384Y-84507313D01*
X25914859Y-84568870D01*
X25914860Y-84568874D01*
X25918451Y-84578343D01*
X25924474Y-84599946D01*
X25926304Y-84609930D01*
X25951759Y-84666490D01*
X25953189Y-84669941D01*
X25975182Y-84727930D01*
X25975183Y-84727931D01*
X25980936Y-84736266D01*
X25991961Y-84755813D01*
X25996120Y-84765055D01*
X25996122Y-84765057D01*
X26033014Y-84812147D01*
X26034371Y-84813878D01*
X26036591Y-84816896D01*
X26071812Y-84867924D01*
X26071816Y-84867928D01*
X26071817Y-84867929D01*
X26118250Y-84909064D01*
X26120941Y-84911598D01*
X28488392Y-87279048D01*
X28490928Y-87281742D01*
X28532071Y-87328183D01*
X28578828Y-87360457D01*
X28583115Y-87363416D01*
X28586120Y-87365626D01*
X28634944Y-87403878D01*
X28634946Y-87403879D01*
X28634949Y-87403881D01*
X28644177Y-87408034D01*
X28663731Y-87419062D01*
X28672066Y-87424816D01*
X28672068Y-87424816D01*
X28672070Y-87424818D01*
X28730079Y-87446817D01*
X28733476Y-87448224D01*
X28780770Y-87469509D01*
X28790064Y-87473693D01*
X28790065Y-87473693D01*
X28790069Y-87473695D01*
X28800034Y-87475521D01*
X28821656Y-87481548D01*
X28821667Y-87481552D01*
X28831128Y-87485140D01*
X28876251Y-87490618D01*
X28892674Y-87492613D01*
X28896371Y-87493175D01*
X28957394Y-87504358D01*
X29012752Y-87501009D01*
X29019303Y-87500613D01*
X29023048Y-87500500D01*
X33176952Y-87500500D01*
X33180697Y-87500613D01*
X33188042Y-87501057D01*
X33242606Y-87504358D01*
X33280314Y-87497447D01*
X33303621Y-87493177D01*
X33307325Y-87492613D01*
X33325170Y-87490446D01*
X33368872Y-87485140D01*
X33378335Y-87481550D01*
X33399961Y-87475522D01*
X33400893Y-87475351D01*
X33409932Y-87473695D01*
X33466512Y-87448229D01*
X33469942Y-87446809D01*
X33527930Y-87424818D01*
X33536266Y-87419062D01*
X33555821Y-87408034D01*
X33565057Y-87403878D01*
X33613896Y-87365613D01*
X33616876Y-87363421D01*
X33667929Y-87328183D01*
X33709065Y-87281748D01*
X33711599Y-87279056D01*
X34142976Y-86847680D01*
X34204295Y-86814198D01*
X34204304Y-86814195D01*
X34359803Y-86781144D01*
X34359807Y-86781142D01*
X34359808Y-86781142D01*
X34448830Y-86741506D01*
X34532730Y-86704151D01*
X34685871Y-86592888D01*
X34812533Y-86452216D01*
X34907179Y-86288284D01*
X34965674Y-86108256D01*
X34970864Y-86058869D01*
X34997447Y-85994258D01*
X35006494Y-85984161D01*
X35279056Y-85711599D01*
X35281748Y-85709065D01*
X35328183Y-85667929D01*
X35363417Y-85616883D01*
X35365620Y-85613887D01*
X35403878Y-85565056D01*
X35408037Y-85555813D01*
X35419061Y-85536268D01*
X35424818Y-85527930D01*
X35446810Y-85469939D01*
X35448232Y-85466503D01*
X35473695Y-85409931D01*
X35475522Y-85399959D01*
X35481546Y-85378347D01*
X35485140Y-85368872D01*
X35492613Y-85307324D01*
X35493177Y-85303619D01*
X35496535Y-85285289D01*
X35504358Y-85242606D01*
X35500613Y-85180696D01*
X35500500Y-85176951D01*
X35500500Y-84225493D01*
X35519508Y-84159519D01*
X35525787Y-84149525D01*
X35525786Y-84149525D01*
X35525789Y-84149522D01*
X35585368Y-83979255D01*
X35591706Y-83923002D01*
X35605565Y-83800003D01*
X35605565Y-83799996D01*
X35585369Y-83620750D01*
X35585366Y-83620737D01*
X35525790Y-83450479D01*
X35519506Y-83440478D01*
X35500500Y-83374507D01*
X35500500Y-80999999D01*
X49394551Y-80999999D01*
X49414317Y-81251151D01*
X49473126Y-81496110D01*
X49569533Y-81728859D01*
X49701160Y-81943653D01*
X49701161Y-81943656D01*
X49701164Y-81943659D01*
X49864776Y-82135224D01*
X49991375Y-82243350D01*
X50056343Y-82298838D01*
X50056345Y-82298838D01*
X50067163Y-82305468D01*
X50271140Y-82430466D01*
X50353538Y-82464596D01*
X50503889Y-82526873D01*
X50748852Y-82585683D01*
X51000000Y-82605449D01*
X51251148Y-82585683D01*
X51496111Y-82526873D01*
X51728859Y-82430466D01*
X51943659Y-82298836D01*
X52135224Y-82135224D01*
X52298836Y-81943659D01*
X52430466Y-81728859D01*
X52526873Y-81496111D01*
X52585683Y-81251148D01*
X52605449Y-81000000D01*
X52585683Y-80748852D01*
X52526873Y-80503889D01*
X52526873Y-80503888D01*
X52430466Y-80271140D01*
X52298839Y-80056346D01*
X52298838Y-80056343D01*
X52186315Y-79924596D01*
X52135224Y-79864776D01*
X52008571Y-79756604D01*
X51943656Y-79701161D01*
X51943653Y-79701160D01*
X51728859Y-79569533D01*
X51496110Y-79473126D01*
X51251151Y-79414317D01*
X51000000Y-79394551D01*
X50748848Y-79414317D01*
X50503889Y-79473126D01*
X50271140Y-79569533D01*
X50056346Y-79701160D01*
X50056343Y-79701161D01*
X49864776Y-79864776D01*
X49701161Y-80056343D01*
X49701160Y-80056346D01*
X49569533Y-80271140D01*
X49473126Y-80503889D01*
X49414317Y-80748848D01*
X49394551Y-80999999D01*
X35500500Y-80999999D01*
X35500500Y-80625493D01*
X35519508Y-80559519D01*
X35525787Y-80549526D01*
X35525789Y-80549521D01*
X35562007Y-80446013D01*
X35591365Y-80399290D01*
X37995668Y-77994987D01*
X38056989Y-77961504D01*
X38126681Y-77966488D01*
X38182614Y-78008360D01*
X38206567Y-78068786D01*
X38218207Y-78172095D01*
X38218208Y-78172099D01*
X38277788Y-78342368D01*
X38369532Y-78488376D01*
X38373761Y-78495107D01*
X38501315Y-78622661D01*
X38579943Y-78672066D01*
X38651602Y-78717093D01*
X38654055Y-78718634D01*
X38706025Y-78736819D01*
X38824322Y-78778213D01*
X38824327Y-78778214D01*
X39003573Y-78798410D01*
X39003577Y-78798410D01*
X39003581Y-78798410D01*
X39182826Y-78778214D01*
X39182829Y-78778213D01*
X39182832Y-78778213D01*
X39353099Y-78718634D01*
X39353100Y-78718632D01*
X39353106Y-78718631D01*
X39359372Y-78715614D01*
X39360084Y-78717093D01*
X39417684Y-78700500D01*
X58658481Y-78700500D01*
X58725520Y-78720185D01*
X58746162Y-78736819D01*
X59497662Y-79488319D01*
X59531147Y-79549642D01*
X59526163Y-79619334D01*
X59484291Y-79675267D01*
X59418827Y-79699684D01*
X59409981Y-79700000D01*
X59200000Y-79700000D01*
X59200000Y-80684314D01*
X59188045Y-80672359D01*
X59075148Y-80614835D01*
X58981481Y-80600000D01*
X58918519Y-80600000D01*
X58824852Y-80614835D01*
X58711955Y-80672359D01*
X58700000Y-80684314D01*
X58700000Y-79700000D01*
X58102155Y-79700000D01*
X58042627Y-79706401D01*
X58042620Y-79706403D01*
X57907913Y-79756645D01*
X57907906Y-79756649D01*
X57795757Y-79840605D01*
X57730293Y-79865023D01*
X57669042Y-79853721D01*
X57558290Y-79802076D01*
X57496497Y-79773261D01*
X57496488Y-79773258D01*
X57276697Y-79714366D01*
X57276693Y-79714365D01*
X57276692Y-79714365D01*
X57276691Y-79714364D01*
X57276686Y-79714364D01*
X57050002Y-79694532D01*
X57049998Y-79694532D01*
X56823313Y-79714364D01*
X56823302Y-79714366D01*
X56603511Y-79773258D01*
X56603502Y-79773261D01*
X56397267Y-79869431D01*
X56397265Y-79869432D01*
X56210858Y-79999954D01*
X56049954Y-80160858D01*
X55919432Y-80347265D01*
X55919431Y-80347267D01*
X55823261Y-80553502D01*
X55823258Y-80553511D01*
X55764366Y-80773302D01*
X55764364Y-80773313D01*
X55744532Y-80999998D01*
X55744532Y-81000001D01*
X55764364Y-81226686D01*
X55764366Y-81226697D01*
X55823258Y-81446488D01*
X55823261Y-81446497D01*
X55919431Y-81652732D01*
X55919432Y-81652734D01*
X56049954Y-81839141D01*
X56210858Y-82000045D01*
X56210861Y-82000047D01*
X56397266Y-82130568D01*
X56603504Y-82226739D01*
X56603509Y-82226740D01*
X56603511Y-82226741D01*
X56656415Y-82240916D01*
X56823308Y-82285635D01*
X56985230Y-82299801D01*
X57049998Y-82305468D01*
X57050000Y-82305468D01*
X57050002Y-82305468D01*
X57112511Y-82299999D01*
X57276692Y-82285635D01*
X57496496Y-82226739D01*
X57669042Y-82146278D01*
X57738118Y-82135787D01*
X57795757Y-82159395D01*
X57907906Y-82243350D01*
X57907913Y-82243354D01*
X58042620Y-82293596D01*
X58042627Y-82293598D01*
X58102155Y-82299999D01*
X58102172Y-82300000D01*
X58700000Y-82300000D01*
X58700000Y-81315686D01*
X58711955Y-81327641D01*
X58824852Y-81385165D01*
X58918519Y-81400000D01*
X58981481Y-81400000D01*
X59075148Y-81385165D01*
X59188045Y-81327641D01*
X59200000Y-81315686D01*
X59200000Y-82300000D01*
X59797828Y-82300000D01*
X59797844Y-82299999D01*
X59857372Y-82293598D01*
X59857379Y-82293596D01*
X59992086Y-82243354D01*
X59992093Y-82243350D01*
X60107187Y-82157190D01*
X60107190Y-82157187D01*
X60193350Y-82042093D01*
X60193354Y-82042086D01*
X60243596Y-81907379D01*
X60243598Y-81907372D01*
X60249999Y-81847844D01*
X60250000Y-81847827D01*
X60250000Y-81250000D01*
X59265686Y-81250000D01*
X59277641Y-81238045D01*
X59335165Y-81125148D01*
X59354986Y-81000000D01*
X59335165Y-80874852D01*
X59277641Y-80761955D01*
X59265686Y-80750000D01*
X60250000Y-80750000D01*
X60250000Y-80540019D01*
X60269685Y-80472980D01*
X60322489Y-80427225D01*
X60391647Y-80417281D01*
X60455203Y-80446306D01*
X60461680Y-80452338D01*
X64458399Y-84449056D01*
X64460935Y-84451750D01*
X64502071Y-84498183D01*
X64515298Y-84507313D01*
X64553106Y-84533410D01*
X64556122Y-84535630D01*
X64579775Y-84554160D01*
X64604943Y-84573878D01*
X64611845Y-84576984D01*
X64614182Y-84578036D01*
X64633733Y-84589063D01*
X64642070Y-84594818D01*
X64700065Y-84616812D01*
X64703474Y-84618223D01*
X64750787Y-84639517D01*
X64760064Y-84643693D01*
X64760065Y-84643693D01*
X64760069Y-84643695D01*
X64770034Y-84645521D01*
X64791656Y-84651548D01*
X64794777Y-84652731D01*
X64801128Y-84655140D01*
X64846251Y-84660618D01*
X64862674Y-84662613D01*
X64866371Y-84663175D01*
X64927394Y-84674358D01*
X64982752Y-84671009D01*
X64989303Y-84670613D01*
X64993048Y-84670500D01*
X77802856Y-84670500D01*
X77869895Y-84690185D01*
X77915650Y-84742989D01*
X77925594Y-84812147D01*
X77922631Y-84826593D01*
X77874938Y-85004586D01*
X77874936Y-85004596D01*
X77854341Y-85239999D01*
X77854341Y-85240000D01*
X77874936Y-85475403D01*
X77874938Y-85475413D01*
X77936094Y-85703655D01*
X77936096Y-85703659D01*
X77936097Y-85703663D01*
X78016004Y-85875023D01*
X78035965Y-85917830D01*
X78035967Y-85917834D01*
X78112414Y-86027011D01*
X78171501Y-86111396D01*
X78171506Y-86111402D01*
X78338597Y-86278493D01*
X78338603Y-86278498D01*
X78524158Y-86408425D01*
X78567783Y-86463002D01*
X78574977Y-86532500D01*
X78543454Y-86594855D01*
X78524158Y-86611575D01*
X78338597Y-86741505D01*
X78171506Y-86908596D01*
X78103348Y-87005937D01*
X78088989Y-87026445D01*
X78088864Y-87026623D01*
X78034287Y-87070248D01*
X77987289Y-87079500D01*
X77243037Y-87079500D01*
X77239293Y-87079387D01*
X77177397Y-87075643D01*
X77177390Y-87075643D01*
X77116402Y-87086819D01*
X77112701Y-87087382D01*
X77051125Y-87094860D01*
X77041642Y-87098456D01*
X77020038Y-87104478D01*
X77018535Y-87104754D01*
X77010065Y-87106306D01*
X77010063Y-87106307D01*
X76953527Y-87131752D01*
X76950069Y-87133184D01*
X76892069Y-87155182D01*
X76883724Y-87160942D01*
X76864183Y-87171964D01*
X76854944Y-87176122D01*
X76854939Y-87176125D01*
X76806121Y-87214370D01*
X76803106Y-87216589D01*
X76752072Y-87251816D01*
X76752065Y-87251822D01*
X76710942Y-87298240D01*
X76708375Y-87300966D01*
X67500966Y-96508375D01*
X67498240Y-96510942D01*
X67451818Y-96552068D01*
X67416586Y-96603109D01*
X67414368Y-96606124D01*
X67376124Y-96654939D01*
X67376119Y-96654948D01*
X67371960Y-96664188D01*
X67360942Y-96683723D01*
X67355187Y-96692061D01*
X67355183Y-96692067D01*
X67355182Y-96692070D01*
X67355180Y-96692074D01*
X67355179Y-96692077D01*
X67333189Y-96750055D01*
X67331757Y-96753513D01*
X67306305Y-96810068D01*
X67304477Y-96820042D01*
X67298453Y-96841653D01*
X67294860Y-96851127D01*
X67294859Y-96851128D01*
X67287384Y-96912685D01*
X67286821Y-96916386D01*
X67275642Y-96977390D01*
X67275642Y-96977395D01*
X67279387Y-97039302D01*
X67279500Y-97043047D01*
X67279500Y-101378481D01*
X67259815Y-101445520D01*
X67243181Y-101466162D01*
X63526162Y-105183181D01*
X63464839Y-105216666D01*
X63438481Y-105219500D01*
X32761518Y-105219500D01*
X32694479Y-105199815D01*
X32673837Y-105183181D01*
X30136818Y-102646162D01*
X28816593Y-101325936D01*
X33995631Y-101325936D01*
X34026442Y-101527063D01*
X34026445Y-101527075D01*
X34097111Y-101717881D01*
X34097115Y-101717888D01*
X34204745Y-101890567D01*
X34204747Y-101890569D01*
X34204748Y-101890571D01*
X34344941Y-102038053D01*
X34467857Y-102123605D01*
X34511949Y-102154294D01*
X34511950Y-102154294D01*
X34511951Y-102154295D01*
X34698942Y-102234540D01*
X34898259Y-102275500D01*
X35050743Y-102275500D01*
X35202439Y-102260074D01*
X35396579Y-102199162D01*
X35396580Y-102199161D01*
X35396588Y-102199159D01*
X35574502Y-102100409D01*
X35728895Y-101967866D01*
X35853448Y-101806958D01*
X35943060Y-101624271D01*
X35994063Y-101427285D01*
X35999203Y-101325936D01*
X48995631Y-101325936D01*
X49026442Y-101527063D01*
X49026445Y-101527075D01*
X49097111Y-101717881D01*
X49097115Y-101717888D01*
X49204745Y-101890567D01*
X49204747Y-101890569D01*
X49204748Y-101890571D01*
X49344941Y-102038053D01*
X49467857Y-102123605D01*
X49511949Y-102154294D01*
X49511950Y-102154294D01*
X49511951Y-102154295D01*
X49698942Y-102234540D01*
X49898259Y-102275500D01*
X50050743Y-102275500D01*
X50202439Y-102260074D01*
X50396579Y-102199162D01*
X50396580Y-102199161D01*
X50396588Y-102199159D01*
X50574502Y-102100409D01*
X50728895Y-101967866D01*
X50853448Y-101806958D01*
X50943060Y-101624271D01*
X50994063Y-101427285D01*
X50999203Y-101325936D01*
X63995631Y-101325936D01*
X64026442Y-101527063D01*
X64026445Y-101527075D01*
X64097111Y-101717881D01*
X64097115Y-101717888D01*
X64204745Y-101890567D01*
X64204747Y-101890569D01*
X64204748Y-101890571D01*
X64344941Y-102038053D01*
X64467857Y-102123605D01*
X64511949Y-102154294D01*
X64511950Y-102154294D01*
X64511951Y-102154295D01*
X64698942Y-102234540D01*
X64898259Y-102275500D01*
X65050743Y-102275500D01*
X65202439Y-102260074D01*
X65396579Y-102199162D01*
X65396580Y-102199161D01*
X65396588Y-102199159D01*
X65574502Y-102100409D01*
X65728895Y-101967866D01*
X65853448Y-101806958D01*
X65943060Y-101624271D01*
X65994063Y-101427285D01*
X66004369Y-101224064D01*
X65973556Y-101022929D01*
X65902886Y-100832113D01*
X65802269Y-100670687D01*
X65795254Y-100659432D01*
X65795250Y-100659427D01*
X65750831Y-100612699D01*
X65655059Y-100511947D01*
X65494555Y-100400233D01*
X65488050Y-100395705D01*
X65301056Y-100315459D01*
X65101741Y-100274500D01*
X64949258Y-100274500D01*
X64949257Y-100274500D01*
X64797560Y-100289925D01*
X64603420Y-100350837D01*
X64603405Y-100350844D01*
X64425500Y-100449589D01*
X64425495Y-100449592D01*
X64271106Y-100582132D01*
X64271104Y-100582134D01*
X64146554Y-100743037D01*
X64146553Y-100743040D01*
X64056940Y-100925728D01*
X64005937Y-101122714D01*
X63995631Y-101325936D01*
X50999203Y-101325936D01*
X51004369Y-101224064D01*
X50973556Y-101022929D01*
X50902886Y-100832113D01*
X50802269Y-100670687D01*
X50795254Y-100659432D01*
X50795250Y-100659427D01*
X50750831Y-100612699D01*
X50655059Y-100511947D01*
X50494555Y-100400233D01*
X50488050Y-100395705D01*
X50301056Y-100315459D01*
X50101741Y-100274500D01*
X49949258Y-100274500D01*
X49949257Y-100274500D01*
X49797560Y-100289925D01*
X49603420Y-100350837D01*
X49603405Y-100350844D01*
X49425500Y-100449589D01*
X49425495Y-100449592D01*
X49271106Y-100582132D01*
X49271104Y-100582134D01*
X49146554Y-100743037D01*
X49146553Y-100743040D01*
X49056940Y-100925728D01*
X49005937Y-101122714D01*
X48995631Y-101325936D01*
X35999203Y-101325936D01*
X36004369Y-101224064D01*
X35973556Y-101022929D01*
X35902886Y-100832113D01*
X35802269Y-100670687D01*
X35795254Y-100659432D01*
X35795250Y-100659427D01*
X35750831Y-100612699D01*
X35655059Y-100511947D01*
X35494555Y-100400233D01*
X35488050Y-100395705D01*
X35301056Y-100315459D01*
X35101741Y-100274500D01*
X34949258Y-100274500D01*
X34949257Y-100274500D01*
X34797560Y-100289925D01*
X34603420Y-100350837D01*
X34603405Y-100350844D01*
X34425500Y-100449589D01*
X34425495Y-100449592D01*
X34271106Y-100582132D01*
X34271104Y-100582134D01*
X34146554Y-100743037D01*
X34146553Y-100743040D01*
X34056940Y-100925728D01*
X34005937Y-101122714D01*
X33995631Y-101325936D01*
X28816593Y-101325936D01*
X27511598Y-100020941D01*
X27509064Y-100018250D01*
X27467929Y-99971817D01*
X27467928Y-99971816D01*
X27467924Y-99971812D01*
X27416896Y-99936591D01*
X27413887Y-99934377D01*
X27365060Y-99896124D01*
X27365055Y-99896120D01*
X27355813Y-99891961D01*
X27336266Y-99880936D01*
X27327931Y-99875183D01*
X27327932Y-99875183D01*
X27327930Y-99875182D01*
X27269941Y-99853189D01*
X27266490Y-99851759D01*
X27209930Y-99826304D01*
X27199946Y-99824474D01*
X27178343Y-99818451D01*
X27168874Y-99814860D01*
X27168870Y-99814859D01*
X27107313Y-99807384D01*
X27103612Y-99806821D01*
X27042608Y-99795642D01*
X27042603Y-99795642D01*
X26980697Y-99799387D01*
X26976952Y-99799500D01*
X26021870Y-99799500D01*
X25954831Y-99779815D01*
X25909076Y-99727011D01*
X25904164Y-99714505D01*
X25887784Y-99665074D01*
X25859814Y-99580666D01*
X25767712Y-99431344D01*
X25643656Y-99307288D01*
X25494334Y-99215186D01*
X25327797Y-99160001D01*
X25327795Y-99160000D01*
X25225010Y-99149500D01*
X23674998Y-99149500D01*
X23674981Y-99149501D01*
X23572203Y-99160000D01*
X23572200Y-99160001D01*
X23405668Y-99215185D01*
X23405663Y-99215187D01*
X23256342Y-99307289D01*
X23132289Y-99431342D01*
X23040187Y-99580663D01*
X23040185Y-99580668D01*
X23022775Y-99633209D01*
X22985001Y-99747203D01*
X22985001Y-99747204D01*
X22985000Y-99747204D01*
X22974500Y-99849983D01*
X22974500Y-101150001D01*
X22974501Y-101150018D01*
X22985000Y-101252796D01*
X22985001Y-101252799D01*
X23040185Y-101419331D01*
X23040187Y-101419336D01*
X23069070Y-101466162D01*
X23106638Y-101527071D01*
X23132289Y-101568657D01*
X23256344Y-101692712D01*
X23411120Y-101788178D01*
X23457845Y-101840126D01*
X23469068Y-101909088D01*
X23441224Y-101973171D01*
X23433706Y-101981398D01*
X23286501Y-102128603D01*
X23286501Y-102128604D01*
X23150967Y-102322165D01*
X23150965Y-102322169D01*
X23081184Y-102471816D01*
X23053299Y-102531616D01*
X23051098Y-102536335D01*
X23051094Y-102536344D01*
X22989938Y-102764586D01*
X22989936Y-102764596D01*
X22969341Y-102999999D01*
X22969341Y-103000000D01*
X22989936Y-103235403D01*
X22989938Y-103235413D01*
X23051094Y-103463655D01*
X23051096Y-103463659D01*
X23051097Y-103463663D01*
X23101031Y-103570745D01*
X23150964Y-103677828D01*
X23150965Y-103677830D01*
X23286505Y-103871402D01*
X23453597Y-104038494D01*
X23611031Y-104148730D01*
X23654656Y-104203307D01*
X23661850Y-104272805D01*
X23630327Y-104335160D01*
X23611032Y-104351880D01*
X23453922Y-104461890D01*
X23453920Y-104461891D01*
X23286894Y-104628917D01*
X23151399Y-104822421D01*
X23051570Y-105036507D01*
X23051567Y-105036513D01*
X22994364Y-105249999D01*
X22994364Y-105250000D01*
X24046031Y-105250000D01*
X24013481Y-105300649D01*
X23975000Y-105431705D01*
X23975000Y-105568295D01*
X24013481Y-105699351D01*
X24046031Y-105750000D01*
X22994364Y-105750000D01*
X23051567Y-105963486D01*
X23051570Y-105963492D01*
X23151399Y-106177577D01*
X23151400Y-106177579D01*
X23286886Y-106371073D01*
X23286891Y-106371079D01*
X23453920Y-106538108D01*
X23453926Y-106538113D01*
X23647420Y-106673599D01*
X23647422Y-106673600D01*
X23861507Y-106773429D01*
X23861516Y-106773433D01*
X24089678Y-106834568D01*
X24200000Y-106844219D01*
X24200000Y-105908018D01*
X24314801Y-105960446D01*
X24416025Y-105975000D01*
X24483975Y-105975000D01*
X24585199Y-105960446D01*
X24700000Y-105908018D01*
X24700000Y-106844219D01*
X24810320Y-106834568D01*
X24810323Y-106834568D01*
X25038483Y-106773433D01*
X25038492Y-106773429D01*
X25252577Y-106673600D01*
X25252579Y-106673599D01*
X25446073Y-106538113D01*
X25446079Y-106538108D01*
X25613105Y-106371082D01*
X25748600Y-106177578D01*
X25848429Y-105963492D01*
X25848432Y-105963486D01*
X25905636Y-105750000D01*
X24853969Y-105750000D01*
X24886519Y-105699351D01*
X24925000Y-105568295D01*
X24925000Y-105431705D01*
X24886519Y-105300649D01*
X24853969Y-105250000D01*
X25905636Y-105250000D01*
X25905635Y-105249999D01*
X25848432Y-105036513D01*
X25848429Y-105036507D01*
X25748600Y-104822422D01*
X25748599Y-104822420D01*
X25613113Y-104628926D01*
X25613108Y-104628920D01*
X25446079Y-104461891D01*
X25446073Y-104461886D01*
X25288967Y-104351880D01*
X25245342Y-104297303D01*
X25238148Y-104227805D01*
X25269671Y-104165450D01*
X25288960Y-104148735D01*
X25446401Y-104038495D01*
X25613495Y-103871401D01*
X25696136Y-103753376D01*
X25750713Y-103709752D01*
X25797711Y-103700500D01*
X26658481Y-103700500D01*
X26725520Y-103720185D01*
X26746161Y-103736819D01*
X30408399Y-107399056D01*
X30410935Y-107401750D01*
X30452071Y-107448183D01*
X30452073Y-107448185D01*
X30479021Y-107466786D01*
X30503117Y-107483417D01*
X30506107Y-107485617D01*
X30554943Y-107523878D01*
X30564180Y-107528035D01*
X30583726Y-107539058D01*
X30592070Y-107544818D01*
X30650052Y-107566807D01*
X30653514Y-107568241D01*
X30710068Y-107593694D01*
X30720030Y-107595519D01*
X30741651Y-107601546D01*
X30744863Y-107602764D01*
X30751128Y-107605140D01*
X30767871Y-107607173D01*
X30812689Y-107612615D01*
X30816386Y-107613177D01*
X30877394Y-107624357D01*
X30877395Y-107624356D01*
X30877396Y-107624357D01*
X30939293Y-107620613D01*
X30943037Y-107620500D01*
X34007722Y-107620500D01*
X34074761Y-107640185D01*
X34120516Y-107692989D01*
X34130460Y-107762147D01*
X34119050Y-107799108D01*
X34056941Y-107925725D01*
X34005937Y-108122714D01*
X33995631Y-108325936D01*
X34026442Y-108527063D01*
X34026445Y-108527075D01*
X34097111Y-108717881D01*
X34097115Y-108717888D01*
X34204745Y-108890567D01*
X34204749Y-108890572D01*
X34306193Y-108997291D01*
X34344941Y-109038053D01*
X34473344Y-109127424D01*
X34511949Y-109154294D01*
X34511950Y-109154294D01*
X34511951Y-109154295D01*
X34698942Y-109234540D01*
X34898259Y-109275500D01*
X35050743Y-109275500D01*
X35202439Y-109260074D01*
X35396579Y-109199162D01*
X35396580Y-109199161D01*
X35396588Y-109199159D01*
X35574502Y-109100409D01*
X35728895Y-108967866D01*
X35853448Y-108806958D01*
X35943060Y-108624271D01*
X35994063Y-108427285D01*
X36004369Y-108224064D01*
X35973556Y-108022929D01*
X35902886Y-107832113D01*
X35889157Y-107810088D01*
X35870403Y-107742786D01*
X35891012Y-107676025D01*
X35944443Y-107631005D01*
X35994391Y-107620500D01*
X49007722Y-107620500D01*
X49074761Y-107640185D01*
X49120516Y-107692989D01*
X49130460Y-107762147D01*
X49119050Y-107799108D01*
X49056941Y-107925725D01*
X49005937Y-108122714D01*
X48995631Y-108325936D01*
X49026442Y-108527063D01*
X49026445Y-108527075D01*
X49097111Y-108717881D01*
X49097115Y-108717888D01*
X49204745Y-108890567D01*
X49204749Y-108890572D01*
X49306193Y-108997291D01*
X49344941Y-109038053D01*
X49473344Y-109127424D01*
X49511949Y-109154294D01*
X49511950Y-109154294D01*
X49511951Y-109154295D01*
X49698942Y-109234540D01*
X49898259Y-109275500D01*
X50050743Y-109275500D01*
X50202439Y-109260074D01*
X50396579Y-109199162D01*
X50396580Y-109199161D01*
X50396588Y-109199159D01*
X50574502Y-109100409D01*
X50728895Y-108967866D01*
X50853448Y-108806958D01*
X50943060Y-108624271D01*
X50994063Y-108427285D01*
X51004369Y-108224064D01*
X50973556Y-108022929D01*
X50902886Y-107832113D01*
X50889157Y-107810088D01*
X50870403Y-107742786D01*
X50891012Y-107676025D01*
X50944443Y-107631005D01*
X50994391Y-107620500D01*
X64007722Y-107620500D01*
X64074761Y-107640185D01*
X64120516Y-107692989D01*
X64130460Y-107762147D01*
X64119050Y-107799108D01*
X64056941Y-107925725D01*
X64005937Y-108122714D01*
X63995631Y-108325936D01*
X64026442Y-108527063D01*
X64026445Y-108527075D01*
X64097111Y-108717881D01*
X64097115Y-108717888D01*
X64204745Y-108890567D01*
X64204749Y-108890572D01*
X64306193Y-108997291D01*
X64344941Y-109038053D01*
X64473344Y-109127424D01*
X64511949Y-109154294D01*
X64511950Y-109154294D01*
X64511951Y-109154295D01*
X64698942Y-109234540D01*
X64898259Y-109275500D01*
X65050743Y-109275500D01*
X65202439Y-109260074D01*
X65396579Y-109199162D01*
X65396580Y-109199161D01*
X65396588Y-109199159D01*
X65574502Y-109100409D01*
X65728895Y-108967866D01*
X65853448Y-108806958D01*
X65943060Y-108624271D01*
X65994063Y-108427285D01*
X66004369Y-108224064D01*
X65973556Y-108022929D01*
X65902886Y-107832113D01*
X65795252Y-107659429D01*
X65712215Y-107572075D01*
X65655061Y-107511949D01*
X65655060Y-107511948D01*
X65655059Y-107511947D01*
X65496759Y-107401767D01*
X65488050Y-107395705D01*
X65430332Y-107370936D01*
X76315631Y-107370936D01*
X76346442Y-107572063D01*
X76346445Y-107572075D01*
X76417111Y-107762881D01*
X76417115Y-107762888D01*
X76524745Y-107935567D01*
X76524749Y-107935572D01*
X76607788Y-108022929D01*
X76664941Y-108083053D01*
X76793344Y-108172424D01*
X76831949Y-108199294D01*
X76831950Y-108199294D01*
X76831951Y-108199295D01*
X77018942Y-108279540D01*
X77218259Y-108320500D01*
X78470743Y-108320500D01*
X78622439Y-108305074D01*
X78816579Y-108244162D01*
X78816580Y-108244161D01*
X78816588Y-108244159D01*
X78994502Y-108145409D01*
X79148895Y-108012866D01*
X79273448Y-107851958D01*
X79363060Y-107669271D01*
X79414063Y-107472285D01*
X79419203Y-107370936D01*
X80745631Y-107370936D01*
X80776442Y-107572063D01*
X80776445Y-107572075D01*
X80847111Y-107762881D01*
X80847115Y-107762888D01*
X80954745Y-107935567D01*
X80954749Y-107935572D01*
X81037788Y-108022929D01*
X81094941Y-108083053D01*
X81223344Y-108172424D01*
X81261949Y-108199294D01*
X81261950Y-108199294D01*
X81261951Y-108199295D01*
X81448942Y-108279540D01*
X81648259Y-108320500D01*
X82400743Y-108320500D01*
X82552439Y-108305074D01*
X82746579Y-108244162D01*
X82746580Y-108244161D01*
X82746588Y-108244159D01*
X82924502Y-108145409D01*
X83078895Y-108012866D01*
X83203448Y-107851958D01*
X83293060Y-107669271D01*
X83344063Y-107472285D01*
X83354369Y-107269064D01*
X83323556Y-107067929D01*
X83252886Y-106877113D01*
X83145252Y-106704429D01*
X83005059Y-106556947D01*
X82906587Y-106488409D01*
X82838050Y-106440705D01*
X82651056Y-106360459D01*
X82451741Y-106319500D01*
X81699258Y-106319500D01*
X81699257Y-106319500D01*
X81547560Y-106334925D01*
X81353420Y-106395837D01*
X81353405Y-106395844D01*
X81175500Y-106494589D01*
X81175495Y-106494592D01*
X81021106Y-106627132D01*
X81021104Y-106627134D01*
X80896554Y-106788037D01*
X80896553Y-106788040D01*
X80806940Y-106970728D01*
X80755937Y-107167714D01*
X80745631Y-107370936D01*
X79419203Y-107370936D01*
X79424369Y-107269064D01*
X79393556Y-107067929D01*
X79322886Y-106877113D01*
X79215252Y-106704429D01*
X79075059Y-106556947D01*
X78908049Y-106440705D01*
X78900235Y-106437352D01*
X78846394Y-106392826D01*
X78825171Y-106326257D01*
X78843307Y-106258782D01*
X78850758Y-106247921D01*
X78902698Y-106180233D01*
X78960687Y-106040236D01*
X78980466Y-105890000D01*
X78960687Y-105739764D01*
X78902698Y-105599767D01*
X78810451Y-105479549D01*
X78690233Y-105387302D01*
X78690229Y-105387300D01*
X78626801Y-105361027D01*
X78550236Y-105329313D01*
X78536171Y-105327461D01*
X78437727Y-105314500D01*
X78437720Y-105314500D01*
X78362280Y-105314500D01*
X78362272Y-105314500D01*
X78249764Y-105329313D01*
X78249763Y-105329313D01*
X78109770Y-105387300D01*
X78109767Y-105387301D01*
X78109767Y-105387302D01*
X77989549Y-105479549D01*
X77897671Y-105599287D01*
X77897300Y-105599770D01*
X77839313Y-105739763D01*
X77839312Y-105739765D01*
X77819534Y-105889999D01*
X77819534Y-105890000D01*
X77839312Y-106040234D01*
X77839313Y-106040236D01*
X77883970Y-106148047D01*
X77891439Y-106217517D01*
X77860164Y-106279996D01*
X77800075Y-106315648D01*
X77769409Y-106319500D01*
X77269257Y-106319500D01*
X77117560Y-106334925D01*
X76923420Y-106395837D01*
X76923405Y-106395844D01*
X76745500Y-106494589D01*
X76745495Y-106494592D01*
X76591106Y-106627132D01*
X76591104Y-106627134D01*
X76466554Y-106788037D01*
X76466553Y-106788040D01*
X76376940Y-106970728D01*
X76325937Y-107167714D01*
X76315631Y-107370936D01*
X65430332Y-107370936D01*
X65301056Y-107315459D01*
X65101741Y-107274500D01*
X65015518Y-107274500D01*
X64948479Y-107254815D01*
X64902724Y-107202011D01*
X64892780Y-107132853D01*
X64921805Y-107069297D01*
X64927837Y-107062819D01*
X67168236Y-104822420D01*
X69459056Y-102531599D01*
X69461748Y-102529065D01*
X69508183Y-102487929D01*
X69543427Y-102436866D01*
X69545617Y-102433890D01*
X69583877Y-102385057D01*
X69588029Y-102375828D01*
X69599062Y-102356268D01*
X69601643Y-102352529D01*
X69604818Y-102347930D01*
X69626812Y-102289933D01*
X69628231Y-102286505D01*
X69653694Y-102229932D01*
X69655520Y-102219965D01*
X69661548Y-102198340D01*
X69665140Y-102188872D01*
X69672615Y-102127309D01*
X69673179Y-102123605D01*
X69677504Y-102100003D01*
X72194435Y-102100003D01*
X72214630Y-102279249D01*
X72214631Y-102279254D01*
X72274212Y-102449525D01*
X72280492Y-102459519D01*
X72299500Y-102525493D01*
X72299500Y-102876951D01*
X72299387Y-102880696D01*
X72295642Y-102942603D01*
X72295642Y-102942605D01*
X72306821Y-103003612D01*
X72307384Y-103007313D01*
X72314859Y-103068870D01*
X72314860Y-103068874D01*
X72318451Y-103078343D01*
X72324474Y-103099946D01*
X72326304Y-103109930D01*
X72351759Y-103166490D01*
X72353189Y-103169941D01*
X72375182Y-103227930D01*
X72375183Y-103227931D01*
X72380936Y-103236266D01*
X72391961Y-103255813D01*
X72396120Y-103265055D01*
X72396124Y-103265060D01*
X72434371Y-103313878D01*
X72436591Y-103316896D01*
X72471812Y-103367924D01*
X72471816Y-103367928D01*
X72471817Y-103367929D01*
X72518250Y-103409064D01*
X72520941Y-103411598D01*
X73717973Y-104608630D01*
X74708630Y-105599287D01*
X74737990Y-105646013D01*
X74774209Y-105749519D01*
X74774211Y-105749522D01*
X74870184Y-105902262D01*
X74997738Y-106029816D01*
X75150478Y-106125789D01*
X75306070Y-106180233D01*
X75320745Y-106185368D01*
X75320750Y-106185369D01*
X75499996Y-106205565D01*
X75500000Y-106205565D01*
X75500004Y-106205565D01*
X75679249Y-106185369D01*
X75679252Y-106185368D01*
X75679255Y-106185368D01*
X75849522Y-106125789D01*
X76002262Y-106029816D01*
X76129816Y-105902262D01*
X76225789Y-105749522D01*
X76285368Y-105579255D01*
X76305565Y-105400000D01*
X76304134Y-105387302D01*
X76285369Y-105220750D01*
X76285368Y-105220745D01*
X76225788Y-105050476D01*
X76129815Y-104897737D01*
X76002262Y-104770184D01*
X75849519Y-104674209D01*
X75746013Y-104637990D01*
X75699287Y-104608630D01*
X73736819Y-102646162D01*
X73703334Y-102584839D01*
X73700500Y-102558481D01*
X73700500Y-102525493D01*
X73719508Y-102459519D01*
X73725787Y-102449525D01*
X73725786Y-102449525D01*
X73725789Y-102449522D01*
X73785368Y-102279255D01*
X73790406Y-102234540D01*
X73805565Y-102100003D01*
X73805565Y-102099996D01*
X73785369Y-101920750D01*
X73785368Y-101920745D01*
X73757114Y-101839999D01*
X73725789Y-101750478D01*
X73629816Y-101597738D01*
X73502262Y-101470184D01*
X73421335Y-101419334D01*
X73349523Y-101374211D01*
X73179254Y-101314631D01*
X73179249Y-101314630D01*
X73000004Y-101294435D01*
X72999996Y-101294435D01*
X72820750Y-101314630D01*
X72820745Y-101314631D01*
X72650476Y-101374211D01*
X72497737Y-101470184D01*
X72370184Y-101597737D01*
X72274211Y-101750476D01*
X72214631Y-101920745D01*
X72214630Y-101920750D01*
X72194435Y-102099996D01*
X72194435Y-102100003D01*
X69677504Y-102100003D01*
X69677505Y-102099996D01*
X69684357Y-102062606D01*
X69680613Y-102000707D01*
X69680500Y-101996963D01*
X69680500Y-98730936D01*
X76315631Y-98730936D01*
X76346442Y-98932063D01*
X76346445Y-98932075D01*
X76417111Y-99122881D01*
X76417115Y-99122888D01*
X76524745Y-99295567D01*
X76524747Y-99295569D01*
X76524748Y-99295571D01*
X76664941Y-99443053D01*
X76793344Y-99532424D01*
X76831949Y-99559294D01*
X76831950Y-99559294D01*
X76831951Y-99559295D01*
X77018942Y-99639540D01*
X77218259Y-99680500D01*
X77769409Y-99680500D01*
X77836448Y-99700185D01*
X77882203Y-99752989D01*
X77892147Y-99822147D01*
X77883970Y-99851953D01*
X77839313Y-99959763D01*
X77839312Y-99959765D01*
X77819534Y-100109999D01*
X77819534Y-100110000D01*
X77839312Y-100260234D01*
X77839313Y-100260236D01*
X77897302Y-100400233D01*
X77989549Y-100520451D01*
X78109767Y-100612698D01*
X78249764Y-100670687D01*
X78362280Y-100685500D01*
X78362287Y-100685500D01*
X78437713Y-100685500D01*
X78437720Y-100685500D01*
X78550236Y-100670687D01*
X78690233Y-100612698D01*
X78810451Y-100520451D01*
X78902698Y-100400233D01*
X78960687Y-100260236D01*
X78980466Y-100110000D01*
X78960687Y-99959764D01*
X78902698Y-99819767D01*
X78902697Y-99819765D01*
X78848508Y-99749146D01*
X78823313Y-99683977D01*
X78837351Y-99615532D01*
X78886164Y-99565542D01*
X78886490Y-99565360D01*
X78994502Y-99505409D01*
X79148895Y-99372866D01*
X79273448Y-99211958D01*
X79363060Y-99029271D01*
X79414063Y-98832285D01*
X79419203Y-98730936D01*
X80745631Y-98730936D01*
X80776442Y-98932063D01*
X80776445Y-98932075D01*
X80847111Y-99122881D01*
X80847115Y-99122888D01*
X80954745Y-99295567D01*
X80954747Y-99295569D01*
X80954748Y-99295571D01*
X81094941Y-99443053D01*
X81223344Y-99532424D01*
X81261949Y-99559294D01*
X81261950Y-99559294D01*
X81261951Y-99559295D01*
X81448942Y-99639540D01*
X81648259Y-99680500D01*
X82400743Y-99680500D01*
X82552439Y-99665074D01*
X82746579Y-99604162D01*
X82746580Y-99604161D01*
X82746588Y-99604159D01*
X82924502Y-99505409D01*
X83078895Y-99372866D01*
X83203448Y-99211958D01*
X83293060Y-99029271D01*
X83344063Y-98832285D01*
X83354369Y-98629064D01*
X83323556Y-98427929D01*
X83252886Y-98237113D01*
X83145252Y-98064429D01*
X83005059Y-97916947D01*
X82906587Y-97848409D01*
X82838050Y-97800705D01*
X82651056Y-97720459D01*
X82451741Y-97679500D01*
X81699258Y-97679500D01*
X81699257Y-97679500D01*
X81547560Y-97694925D01*
X81353420Y-97755837D01*
X81353405Y-97755844D01*
X81175500Y-97854589D01*
X81175495Y-97854592D01*
X81021106Y-97987132D01*
X81021104Y-97987134D01*
X80896554Y-98148037D01*
X80896553Y-98148040D01*
X80806940Y-98330728D01*
X80755937Y-98527714D01*
X80745631Y-98730936D01*
X79419203Y-98730936D01*
X79424369Y-98629064D01*
X79393556Y-98427929D01*
X79322886Y-98237113D01*
X79215252Y-98064429D01*
X79075059Y-97916947D01*
X78976587Y-97848409D01*
X78908050Y-97800705D01*
X78721056Y-97720459D01*
X78521741Y-97679500D01*
X77269258Y-97679500D01*
X77269257Y-97679500D01*
X77117560Y-97694925D01*
X76923420Y-97755837D01*
X76923405Y-97755844D01*
X76745500Y-97854589D01*
X76745495Y-97854592D01*
X76591106Y-97987132D01*
X76591104Y-97987134D01*
X76466554Y-98148037D01*
X76466553Y-98148040D01*
X76376940Y-98330728D01*
X76325937Y-98527714D01*
X76315631Y-98730936D01*
X69680500Y-98730936D01*
X69680500Y-97861519D01*
X69700185Y-97794480D01*
X69716819Y-97773838D01*
X71253838Y-96236819D01*
X71315161Y-96203334D01*
X71341519Y-96200500D01*
X82976952Y-96200500D01*
X82980697Y-96200613D01*
X82988042Y-96201057D01*
X83042606Y-96204358D01*
X83080314Y-96197447D01*
X83103621Y-96193177D01*
X83107325Y-96192613D01*
X83125170Y-96190446D01*
X83168872Y-96185140D01*
X83178335Y-96181550D01*
X83199961Y-96175522D01*
X83200893Y-96175351D01*
X83209932Y-96173695D01*
X83266512Y-96148229D01*
X83269942Y-96146809D01*
X83327930Y-96124818D01*
X83336266Y-96119062D01*
X83355821Y-96108034D01*
X83365057Y-96103878D01*
X83413896Y-96065613D01*
X83416876Y-96063421D01*
X83467929Y-96028183D01*
X83509065Y-95981748D01*
X83511599Y-95979056D01*
X84055290Y-95435367D01*
X84055290Y-95435366D01*
X84459056Y-95031599D01*
X84461748Y-95029065D01*
X84508183Y-94987929D01*
X84516227Y-94976274D01*
X84520842Y-94970386D01*
X84525282Y-94965374D01*
X84525290Y-94965367D01*
X84603877Y-94865057D01*
X84673694Y-94709932D01*
X84704357Y-94542606D01*
X84694086Y-94372804D01*
X84686114Y-94347221D01*
X84680499Y-94310329D01*
X84680499Y-84642210D01*
X84680499Y-74943000D01*
X84680610Y-74939323D01*
X84684357Y-74877394D01*
X84673177Y-74816386D01*
X84672615Y-74812689D01*
X84665310Y-74752529D01*
X84665140Y-74751128D01*
X84661546Y-74741651D01*
X84655519Y-74720029D01*
X84653694Y-74710070D01*
X84653694Y-74710068D01*
X84628239Y-74653512D01*
X84626809Y-74650057D01*
X84604818Y-74592070D01*
X84599059Y-74583727D01*
X84588030Y-74564172D01*
X84583877Y-74554943D01*
X84583874Y-74554938D01*
X84545633Y-74506127D01*
X84543413Y-74503110D01*
X84523011Y-74473553D01*
X84508183Y-74452071D01*
X84461750Y-74410935D01*
X84459056Y-74408399D01*
X83361598Y-73310941D01*
X83359064Y-73308250D01*
X83317929Y-73261817D01*
X83317928Y-73261816D01*
X83317924Y-73261812D01*
X83266896Y-73226591D01*
X83263887Y-73224377D01*
X83215060Y-73186124D01*
X83215055Y-73186120D01*
X83205813Y-73181961D01*
X83186266Y-73170936D01*
X83177931Y-73165183D01*
X83177932Y-73165183D01*
X83177930Y-73165182D01*
X83119941Y-73143189D01*
X83116490Y-73141759D01*
X83097029Y-73133001D01*
X83043974Y-73087536D01*
X83023922Y-73020606D01*
X83028145Y-72987832D01*
X83050331Y-72905032D01*
X83085063Y-72775408D01*
X83105659Y-72540000D01*
X83085063Y-72304592D01*
X83033224Y-72111123D01*
X83023905Y-72076344D01*
X83023904Y-72076343D01*
X83023903Y-72076337D01*
X82924035Y-71862171D01*
X82918731Y-71854595D01*
X82788494Y-71668597D01*
X82621402Y-71501506D01*
X82621401Y-71501505D01*
X82435405Y-71371269D01*
X82391781Y-71316692D01*
X82384588Y-71247193D01*
X82416110Y-71184839D01*
X82435405Y-71168119D01*
X82621082Y-71038105D01*
X82788105Y-70871082D01*
X82923600Y-70677578D01*
X83023429Y-70463492D01*
X83023432Y-70463486D01*
X83080636Y-70250000D01*
X82183686Y-70250000D01*
X82209493Y-70209844D01*
X82250000Y-70071889D01*
X82250000Y-69928111D01*
X82209493Y-69790156D01*
X82183686Y-69750000D01*
X83080636Y-69750000D01*
X83080635Y-69749999D01*
X83023432Y-69536513D01*
X83023429Y-69536507D01*
X82923600Y-69322422D01*
X82923599Y-69322420D01*
X82788113Y-69128926D01*
X82788108Y-69128920D01*
X82621078Y-68961890D01*
X82435405Y-68831879D01*
X82391780Y-68777302D01*
X82384588Y-68707804D01*
X82416110Y-68645449D01*
X82435406Y-68628730D01*
X82621401Y-68498495D01*
X82788495Y-68331401D01*
X82924035Y-68137830D01*
X83023903Y-67923663D01*
X83085063Y-67695408D01*
X83105659Y-67460000D01*
X83085063Y-67224592D01*
X83023903Y-66996337D01*
X82924035Y-66782171D01*
X82918425Y-66774158D01*
X82788494Y-66588597D01*
X82621402Y-66421506D01*
X82621396Y-66421501D01*
X82435842Y-66291575D01*
X82392217Y-66236998D01*
X82385023Y-66167500D01*
X82416546Y-66105145D01*
X82435842Y-66088425D01*
X82458026Y-66072891D01*
X82621401Y-65958495D01*
X82788495Y-65791401D01*
X82924035Y-65597830D01*
X83023903Y-65383663D01*
X83085063Y-65155408D01*
X83105659Y-64920000D01*
X83085063Y-64684592D01*
X83023903Y-64456337D01*
X82924035Y-64242171D01*
X82918425Y-64234158D01*
X82788494Y-64048597D01*
X82621402Y-63881506D01*
X82621396Y-63881501D01*
X82435842Y-63751575D01*
X82392217Y-63696998D01*
X82385023Y-63627500D01*
X82416546Y-63565145D01*
X82435842Y-63548425D01*
X82458026Y-63532891D01*
X82621401Y-63418495D01*
X82788495Y-63251401D01*
X82924035Y-63057830D01*
X83023903Y-62843663D01*
X83085063Y-62615408D01*
X83105659Y-62380000D01*
X83085063Y-62144592D01*
X83023903Y-61916337D01*
X82924035Y-61702171D01*
X82918425Y-61694158D01*
X82788494Y-61508597D01*
X82621402Y-61341506D01*
X82621396Y-61341501D01*
X82435842Y-61211575D01*
X82392217Y-61156998D01*
X82385023Y-61087500D01*
X82416546Y-61025145D01*
X82435842Y-61008425D01*
X82458026Y-60992891D01*
X82621401Y-60878495D01*
X82788495Y-60711401D01*
X82924035Y-60517830D01*
X83023903Y-60303663D01*
X83085063Y-60075408D01*
X83105659Y-59840000D01*
X83085063Y-59604592D01*
X83023903Y-59376337D01*
X82924035Y-59162171D01*
X82918425Y-59154158D01*
X82788494Y-58968597D01*
X82621402Y-58801506D01*
X82621396Y-58801501D01*
X82435842Y-58671575D01*
X82392217Y-58616998D01*
X82385023Y-58547500D01*
X82416546Y-58485145D01*
X82435842Y-58468425D01*
X82462838Y-58449522D01*
X82621401Y-58338495D01*
X82788495Y-58171401D01*
X82924035Y-57977830D01*
X83023903Y-57763663D01*
X83085063Y-57535408D01*
X83105659Y-57300000D01*
X83085063Y-57064592D01*
X83023903Y-56836337D01*
X82924035Y-56622171D01*
X82918731Y-56614595D01*
X82788494Y-56428597D01*
X82621402Y-56261506D01*
X82621396Y-56261501D01*
X82435842Y-56131575D01*
X82392217Y-56076998D01*
X82385023Y-56007500D01*
X82416546Y-55945145D01*
X82435842Y-55928425D01*
X82458026Y-55912891D01*
X82621401Y-55798495D01*
X82788495Y-55631401D01*
X82924035Y-55437830D01*
X83023903Y-55223663D01*
X83085063Y-54995408D01*
X83105659Y-54760000D01*
X83085063Y-54524592D01*
X83023903Y-54296337D01*
X82924035Y-54082171D01*
X82918425Y-54074158D01*
X82788494Y-53888597D01*
X82621402Y-53721506D01*
X82621396Y-53721501D01*
X82435842Y-53591575D01*
X82392217Y-53536998D01*
X82385023Y-53467500D01*
X82416546Y-53405145D01*
X82435842Y-53388425D01*
X82576184Y-53290156D01*
X82621401Y-53258495D01*
X82788495Y-53091401D01*
X82924035Y-52897830D01*
X83023903Y-52683663D01*
X83085063Y-52455408D01*
X83105659Y-52220000D01*
X83085063Y-51984592D01*
X83023903Y-51756337D01*
X82924035Y-51542171D01*
X82918425Y-51534158D01*
X82788494Y-51348597D01*
X82621402Y-51181506D01*
X82621396Y-51181501D01*
X82435842Y-51051575D01*
X82392217Y-50996998D01*
X82385023Y-50927500D01*
X82416546Y-50865145D01*
X82435842Y-50848425D01*
X82458026Y-50832891D01*
X82621401Y-50718495D01*
X82788495Y-50551401D01*
X82924035Y-50357830D01*
X83023903Y-50143663D01*
X83085063Y-49915408D01*
X83105659Y-49680000D01*
X83085063Y-49444592D01*
X83023903Y-49216337D01*
X82924035Y-49002171D01*
X82918425Y-48994158D01*
X82788494Y-48808597D01*
X82621402Y-48641506D01*
X82621401Y-48641505D01*
X82477807Y-48540959D01*
X82442982Y-48516574D01*
X82399357Y-48461997D01*
X82392165Y-48392498D01*
X82423687Y-48330144D01*
X82442978Y-48313427D01*
X82621401Y-48188495D01*
X82788495Y-48021401D01*
X82924035Y-47827830D01*
X83023903Y-47613663D01*
X83085063Y-47385408D01*
X83105659Y-47150000D01*
X83085063Y-46914592D01*
X83023903Y-46686337D01*
X82924035Y-46472171D01*
X82788495Y-46278599D01*
X82788494Y-46278597D01*
X82621402Y-46111506D01*
X82621395Y-46111501D01*
X82607119Y-46101505D01*
X82544518Y-46057671D01*
X82427834Y-45975967D01*
X82427830Y-45975965D01*
X82406383Y-45965964D01*
X82213663Y-45876097D01*
X82213659Y-45876096D01*
X82213655Y-45876094D01*
X81985413Y-45814938D01*
X81985403Y-45814936D01*
X81750001Y-45794341D01*
X81749999Y-45794341D01*
X81514596Y-45814936D01*
X81514586Y-45814938D01*
X81286344Y-45876094D01*
X81286335Y-45876098D01*
X81072171Y-45975964D01*
X81072169Y-45975965D01*
X80878600Y-46111503D01*
X80756673Y-46233430D01*
X80695350Y-46266914D01*
X80625658Y-46261930D01*
X80569725Y-46220058D01*
X80552810Y-46189081D01*
X80503797Y-46057671D01*
X80503793Y-46057664D01*
X80417547Y-45942455D01*
X80417544Y-45942452D01*
X80302335Y-45856206D01*
X80302328Y-45856202D01*
X80167482Y-45805908D01*
X80167483Y-45805908D01*
X80107883Y-45799501D01*
X80107881Y-45799500D01*
X80107873Y-45799500D01*
X80107864Y-45799500D01*
X78312129Y-45799500D01*
X78312123Y-45799501D01*
X78252516Y-45805908D01*
X78117671Y-45856202D01*
X78117664Y-45856206D01*
X78002455Y-45942452D01*
X78002452Y-45942455D01*
X77916206Y-46057664D01*
X77916202Y-46057671D01*
X77865908Y-46192517D01*
X77859501Y-46252116D01*
X77859500Y-46252135D01*
X77859500Y-48047870D01*
X77859501Y-48047876D01*
X77865908Y-48107483D01*
X77916202Y-48242328D01*
X77916206Y-48242335D01*
X78002452Y-48357544D01*
X78002455Y-48357547D01*
X78117664Y-48443793D01*
X78117671Y-48443797D01*
X78241798Y-48490093D01*
X78297732Y-48531964D01*
X78322149Y-48597428D01*
X78307298Y-48665701D01*
X78286147Y-48693956D01*
X78171503Y-48808600D01*
X78035965Y-49002169D01*
X78035964Y-49002171D01*
X77936098Y-49216335D01*
X77936094Y-49216344D01*
X77874938Y-49444586D01*
X77874936Y-49444596D01*
X77854341Y-49679999D01*
X77854341Y-49680000D01*
X77874936Y-49915403D01*
X77874938Y-49915413D01*
X77936094Y-50143655D01*
X77936096Y-50143659D01*
X77936097Y-50143663D01*
X78020411Y-50324474D01*
X78035965Y-50357830D01*
X78035967Y-50357834D01*
X78127273Y-50488231D01*
X78171501Y-50551396D01*
X78171506Y-50551402D01*
X78338597Y-50718493D01*
X78338603Y-50718498D01*
X78524158Y-50848425D01*
X78567783Y-50903002D01*
X78574977Y-50972500D01*
X78543454Y-51034855D01*
X78524158Y-51051575D01*
X78338597Y-51181505D01*
X78171505Y-51348597D01*
X78035965Y-51542169D01*
X78035964Y-51542171D01*
X77936098Y-51756335D01*
X77936094Y-51756344D01*
X77874938Y-51984586D01*
X77874936Y-51984596D01*
X77854341Y-52219999D01*
X77854341Y-52220000D01*
X77874936Y-52455403D01*
X77874938Y-52455413D01*
X77936094Y-52683655D01*
X77936096Y-52683659D01*
X77936097Y-52683663D01*
X78023073Y-52870184D01*
X78035965Y-52897830D01*
X78035967Y-52897834D01*
X78077672Y-52957394D01*
X78171501Y-53091396D01*
X78171506Y-53091402D01*
X78338597Y-53258493D01*
X78338603Y-53258498D01*
X78524158Y-53388425D01*
X78567783Y-53443002D01*
X78574977Y-53512500D01*
X78543454Y-53574855D01*
X78524158Y-53591575D01*
X78338597Y-53721505D01*
X78336922Y-53723181D01*
X78336000Y-53723684D01*
X78334449Y-53724986D01*
X78334187Y-53724674D01*
X78275599Y-53756666D01*
X78249241Y-53759500D01*
X74824500Y-53759500D01*
X74757461Y-53739815D01*
X74711706Y-53687011D01*
X74700500Y-53635500D01*
X74700500Y-52517287D01*
X74720185Y-52450248D01*
X74759706Y-52411562D01*
X74943659Y-52298836D01*
X75135224Y-52135224D01*
X75298836Y-51943659D01*
X75430466Y-51728859D01*
X75526873Y-51496111D01*
X75585683Y-51251148D01*
X75605449Y-51000000D01*
X75585683Y-50748852D01*
X75526873Y-50503889D01*
X75486129Y-50405523D01*
X75430466Y-50271140D01*
X75298839Y-50056346D01*
X75298838Y-50056343D01*
X75261875Y-50013066D01*
X75135224Y-49864776D01*
X74970815Y-49724357D01*
X74943656Y-49701161D01*
X74943653Y-49701160D01*
X74728859Y-49569533D01*
X74496110Y-49473126D01*
X74251151Y-49414317D01*
X74000000Y-49394551D01*
X73748848Y-49414317D01*
X73503889Y-49473126D01*
X73271140Y-49569533D01*
X73056346Y-49701160D01*
X73056343Y-49701161D01*
X72864776Y-49864776D01*
X72701161Y-50056343D01*
X72701160Y-50056346D01*
X72569533Y-50271140D01*
X72473126Y-50503889D01*
X72414317Y-50748848D01*
X72394551Y-51000000D01*
X72414317Y-51251151D01*
X72473126Y-51496110D01*
X72569533Y-51728859D01*
X72701160Y-51943653D01*
X72701161Y-51943656D01*
X72756604Y-52008571D01*
X72864776Y-52135224D01*
X73056341Y-52298836D01*
X73240292Y-52411562D01*
X73287165Y-52463371D01*
X73299500Y-52517287D01*
X73299500Y-53635500D01*
X73279815Y-53702539D01*
X73227011Y-53748294D01*
X73175500Y-53759500D01*
X72753452Y-53759500D01*
X72751889Y-53759480D01*
X72663636Y-53757244D01*
X72663635Y-53757244D01*
X72663626Y-53757244D01*
X72603263Y-53768064D01*
X72598597Y-53768718D01*
X72537564Y-53774925D01*
X72504780Y-53785210D01*
X72497153Y-53787082D01*
X72463349Y-53793141D01*
X72406381Y-53815895D01*
X72401945Y-53817474D01*
X72343414Y-53835840D01*
X72343410Y-53835842D01*
X72313378Y-53852510D01*
X72306284Y-53855879D01*
X72274382Y-53868623D01*
X72274377Y-53868625D01*
X72223156Y-53902381D01*
X72219128Y-53904822D01*
X72165501Y-53934588D01*
X72139434Y-53956965D01*
X72133165Y-53961692D01*
X72104484Y-53980595D01*
X72104478Y-53980600D01*
X72061109Y-54023968D01*
X72057655Y-54027169D01*
X72011102Y-54067136D01*
X71990076Y-54094298D01*
X71984885Y-54100192D01*
X63121899Y-62963181D01*
X63060576Y-62996666D01*
X63034218Y-62999500D01*
X32449257Y-62999500D01*
X32297560Y-63014925D01*
X32103420Y-63075837D01*
X32103405Y-63075844D01*
X31925500Y-63174589D01*
X31925495Y-63174592D01*
X31771106Y-63307132D01*
X31771104Y-63307134D01*
X31646554Y-63468037D01*
X31646553Y-63468040D01*
X31556940Y-63650728D01*
X31505937Y-63847714D01*
X31495631Y-64050936D01*
X31526442Y-64252063D01*
X31526445Y-64252075D01*
X31597111Y-64442881D01*
X31597113Y-64442884D01*
X31597114Y-64442887D01*
X31605502Y-64456344D01*
X31704745Y-64615567D01*
X31704747Y-64615569D01*
X31704748Y-64615571D01*
X31844941Y-64763053D01*
X31973344Y-64852424D01*
X32011949Y-64879294D01*
X32011950Y-64879294D01*
X32011951Y-64879295D01*
X32198942Y-64959540D01*
X32398259Y-65000500D01*
X63486507Y-65000500D01*
X63488069Y-65000519D01*
X63525283Y-65001462D01*
X63576358Y-65002757D01*
X63576358Y-65002756D01*
X63576363Y-65002757D01*
X63636753Y-64991932D01*
X63641412Y-64991280D01*
X63683607Y-64986988D01*
X63702438Y-64985074D01*
X63735227Y-64974786D01*
X63742840Y-64972918D01*
X63776653Y-64966858D01*
X63833621Y-64944101D01*
X63838053Y-64942524D01*
X63896588Y-64924159D01*
X63926627Y-64907484D01*
X63933708Y-64904122D01*
X63965617Y-64891377D01*
X64016854Y-64857608D01*
X64020851Y-64855187D01*
X64074502Y-64825409D01*
X64100568Y-64803030D01*
X64106843Y-64798300D01*
X64135519Y-64779402D01*
X64178917Y-64736002D01*
X64182336Y-64732834D01*
X64228895Y-64692866D01*
X64249931Y-64665688D01*
X64255101Y-64659818D01*
X73118101Y-55796819D01*
X73179425Y-55763334D01*
X73205783Y-55760500D01*
X73898259Y-55760500D01*
X78249242Y-55760500D01*
X78316281Y-55780185D01*
X78336923Y-55796819D01*
X78338597Y-55798493D01*
X78338603Y-55798498D01*
X78524594Y-55928730D01*
X78568219Y-55983307D01*
X78575413Y-56052805D01*
X78543890Y-56115160D01*
X78524595Y-56131880D01*
X78338922Y-56261890D01*
X78338920Y-56261891D01*
X78171891Y-56428920D01*
X78171886Y-56428926D01*
X78036400Y-56622420D01*
X78036399Y-56622422D01*
X77936570Y-56836507D01*
X77936567Y-56836513D01*
X77879364Y-57049999D01*
X77879364Y-57050000D01*
X78776314Y-57050000D01*
X78750507Y-57090156D01*
X78710000Y-57228111D01*
X78710000Y-57371889D01*
X78750507Y-57509844D01*
X78776314Y-57550000D01*
X77879364Y-57550000D01*
X77936567Y-57763486D01*
X77936570Y-57763492D01*
X78036399Y-57977578D01*
X78171894Y-58171082D01*
X78338917Y-58338105D01*
X78524595Y-58468119D01*
X78568219Y-58522696D01*
X78575412Y-58592195D01*
X78543890Y-58654549D01*
X78524595Y-58671269D01*
X78338594Y-58801508D01*
X78171505Y-58968597D01*
X78035965Y-59162169D01*
X78035964Y-59162171D01*
X77936098Y-59376335D01*
X77936094Y-59376344D01*
X77874938Y-59604586D01*
X77874936Y-59604596D01*
X77854341Y-59839999D01*
X77854341Y-59840000D01*
X77874936Y-60075403D01*
X77874938Y-60075413D01*
X77936094Y-60303655D01*
X77936096Y-60303659D01*
X77936097Y-60303663D01*
X77940000Y-60312032D01*
X78035965Y-60517830D01*
X78035967Y-60517834D01*
X78144281Y-60672521D01*
X78171501Y-60711396D01*
X78171506Y-60711402D01*
X78338597Y-60878493D01*
X78338603Y-60878498D01*
X78524158Y-61008425D01*
X78567783Y-61063002D01*
X78574977Y-61132500D01*
X78543454Y-61194855D01*
X78524158Y-61211575D01*
X78338597Y-61341505D01*
X78171505Y-61508597D01*
X78035965Y-61702169D01*
X78035964Y-61702171D01*
X77936098Y-61916335D01*
X77936094Y-61916344D01*
X77874938Y-62144586D01*
X77874936Y-62144596D01*
X77854341Y-62379999D01*
X77854341Y-62380000D01*
X77874936Y-62615403D01*
X77874938Y-62615413D01*
X77936094Y-62843655D01*
X77936096Y-62843659D01*
X77936097Y-62843663D01*
X78016004Y-63015023D01*
X78035965Y-63057830D01*
X78035967Y-63057834D01*
X78117722Y-63174591D01*
X78171504Y-63251400D01*
X78171506Y-63251402D01*
X78338597Y-63418493D01*
X78338603Y-63418498D01*
X78524158Y-63548425D01*
X78567783Y-63603002D01*
X78574977Y-63672500D01*
X78543454Y-63734855D01*
X78524158Y-63751575D01*
X78338597Y-63881505D01*
X78171505Y-64048597D01*
X78035965Y-64242169D01*
X78035964Y-64242171D01*
X77936098Y-64456335D01*
X77936094Y-64456344D01*
X77874938Y-64684586D01*
X77874936Y-64684596D01*
X77854341Y-64919999D01*
X77854341Y-64920000D01*
X77874936Y-65155403D01*
X77874938Y-65155413D01*
X77922631Y-65333407D01*
X77920968Y-65403257D01*
X77881805Y-65461119D01*
X77817577Y-65488623D01*
X77802856Y-65489500D01*
X76693037Y-65489500D01*
X76689293Y-65489387D01*
X76627397Y-65485643D01*
X76627390Y-65485643D01*
X76566402Y-65496819D01*
X76562701Y-65497382D01*
X76501125Y-65504860D01*
X76491642Y-65508456D01*
X76470038Y-65514478D01*
X76468535Y-65514754D01*
X76460065Y-65516306D01*
X76403522Y-65541754D01*
X76400063Y-65543187D01*
X76363867Y-65556915D01*
X76342070Y-65565182D01*
X76342068Y-65565183D01*
X76342066Y-65565184D01*
X76342061Y-65565186D01*
X76333722Y-65570942D01*
X76314190Y-65581959D01*
X76304946Y-65586120D01*
X76304944Y-65586121D01*
X76304943Y-65586122D01*
X76279772Y-65605842D01*
X76256124Y-65624368D01*
X76253109Y-65626586D01*
X76202068Y-65661818D01*
X76160942Y-65708240D01*
X76158375Y-65710966D01*
X73606162Y-68263181D01*
X73544839Y-68296666D01*
X73518481Y-68299500D01*
X41517288Y-68299500D01*
X41450249Y-68279815D01*
X41411561Y-68240290D01*
X41298839Y-68056346D01*
X41298838Y-68056343D01*
X41185511Y-67923655D01*
X41135224Y-67864776D01*
X41008571Y-67756604D01*
X40943656Y-67701161D01*
X40943653Y-67701160D01*
X40728859Y-67569533D01*
X40496110Y-67473126D01*
X40251151Y-67414317D01*
X40000000Y-67394551D01*
X39748848Y-67414317D01*
X39503889Y-67473126D01*
X39271140Y-67569533D01*
X39056346Y-67701160D01*
X39056343Y-67701161D01*
X38864776Y-67864776D01*
X38701161Y-68056343D01*
X38701160Y-68056346D01*
X38569533Y-68271140D01*
X38473126Y-68503889D01*
X38414317Y-68748848D01*
X38394551Y-69000000D01*
X38414317Y-69251151D01*
X38473126Y-69496110D01*
X38569533Y-69728859D01*
X38680972Y-69910710D01*
X38699217Y-69978156D01*
X38678101Y-70044758D01*
X38624329Y-70089372D01*
X38575245Y-70099500D01*
X31424755Y-70099500D01*
X31357716Y-70079815D01*
X31311961Y-70027011D01*
X31302017Y-69957853D01*
X31319028Y-69910710D01*
X31430466Y-69728859D01*
X31445386Y-69692839D01*
X31526873Y-69496111D01*
X31585683Y-69251148D01*
X31605449Y-69000000D01*
X31585683Y-68748852D01*
X31526873Y-68503889D01*
X31455427Y-68331402D01*
X31430466Y-68271140D01*
X31298839Y-68056346D01*
X31298838Y-68056343D01*
X31185511Y-67923655D01*
X31135224Y-67864776D01*
X31008571Y-67756604D01*
X30943656Y-67701161D01*
X30943653Y-67701160D01*
X30759710Y-67588439D01*
X30712835Y-67536627D01*
X30700500Y-67482712D01*
X30700500Y-61000000D01*
X38394551Y-61000000D01*
X38414317Y-61251151D01*
X38473126Y-61496110D01*
X38569533Y-61728859D01*
X38701160Y-61943653D01*
X38701161Y-61943656D01*
X38701164Y-61943659D01*
X38864776Y-62135224D01*
X39013066Y-62261875D01*
X39056343Y-62298838D01*
X39056346Y-62298839D01*
X39271140Y-62430466D01*
X39503888Y-62526873D01*
X39503889Y-62526873D01*
X39748852Y-62585683D01*
X40000000Y-62605449D01*
X40251148Y-62585683D01*
X40496111Y-62526873D01*
X40728859Y-62430466D01*
X40943659Y-62298836D01*
X41135224Y-62135224D01*
X41298836Y-61943659D01*
X41430466Y-61728859D01*
X41526873Y-61496111D01*
X41585683Y-61251148D01*
X41605449Y-61000000D01*
X41585683Y-60748852D01*
X41526873Y-60503889D01*
X41447404Y-60312032D01*
X41430466Y-60271140D01*
X41298839Y-60056346D01*
X41298838Y-60056343D01*
X41261875Y-60013066D01*
X41135224Y-59864776D01*
X41008571Y-59756604D01*
X40943656Y-59701161D01*
X40943653Y-59701160D01*
X40728859Y-59569533D01*
X40496110Y-59473126D01*
X40251151Y-59414317D01*
X40000000Y-59394551D01*
X39748848Y-59414317D01*
X39503889Y-59473126D01*
X39271140Y-59569533D01*
X39056346Y-59701160D01*
X39056343Y-59701161D01*
X38864776Y-59864776D01*
X38701161Y-60056343D01*
X38701160Y-60056346D01*
X38569533Y-60271140D01*
X38473126Y-60503889D01*
X38414317Y-60748848D01*
X38394551Y-61000000D01*
X30700500Y-61000000D01*
X30700500Y-54331940D01*
X30720185Y-54264901D01*
X30772989Y-54219146D01*
X30842147Y-54209202D01*
X30905703Y-54238227D01*
X30912181Y-54244259D01*
X35397740Y-58729818D01*
X35410790Y-58738017D01*
X35433104Y-58752038D01*
X35438757Y-58756049D01*
X35471413Y-58782091D01*
X35509044Y-58800213D01*
X35515106Y-58803563D01*
X35550478Y-58825788D01*
X35550478Y-58825789D01*
X35589898Y-58839583D01*
X35596326Y-58842245D01*
X35633939Y-58860359D01*
X35674655Y-58869652D01*
X35681324Y-58871574D01*
X35720745Y-58885368D01*
X35762251Y-58890044D01*
X35769076Y-58891203D01*
X35809805Y-58900500D01*
X35855046Y-58900500D01*
X53051564Y-58900500D01*
X53058502Y-58900889D01*
X53087400Y-58904145D01*
X53099998Y-58905565D01*
X53100000Y-58905565D01*
X53100002Y-58905565D01*
X53112599Y-58904145D01*
X53141497Y-58900889D01*
X53148436Y-58900500D01*
X64701564Y-58900500D01*
X64708502Y-58900889D01*
X64737400Y-58904145D01*
X64749998Y-58905565D01*
X64750000Y-58905565D01*
X64750004Y-58905565D01*
X64929249Y-58885369D01*
X64929252Y-58885368D01*
X64929255Y-58885368D01*
X65099522Y-58825789D01*
X65252262Y-58729816D01*
X65379816Y-58602262D01*
X65475789Y-58449522D01*
X65535368Y-58279255D01*
X65547520Y-58171401D01*
X65555565Y-58100003D01*
X65555565Y-58099996D01*
X65535369Y-57920750D01*
X65535368Y-57920745D01*
X65480403Y-57763664D01*
X65475789Y-57750478D01*
X65379816Y-57597738D01*
X65252262Y-57470184D01*
X65181944Y-57426000D01*
X65099523Y-57374211D01*
X64929254Y-57314631D01*
X64929249Y-57314630D01*
X64805485Y-57300686D01*
X64794954Y-57299500D01*
X64779969Y-57297811D01*
X64750002Y-57294435D01*
X64749998Y-57294435D01*
X64737400Y-57295854D01*
X64708502Y-57299110D01*
X64701564Y-57299500D01*
X53148436Y-57299500D01*
X53141497Y-57299110D01*
X53112599Y-57295854D01*
X53100002Y-57294435D01*
X53099998Y-57294435D01*
X53087400Y-57295854D01*
X53058502Y-57299110D01*
X53051564Y-57299500D01*
X41263895Y-57299500D01*
X41196856Y-57279815D01*
X41151101Y-57227011D01*
X41141157Y-57157853D01*
X41169604Y-57094970D01*
X41298836Y-56943659D01*
X41430466Y-56728859D01*
X41526873Y-56496111D01*
X41585683Y-56251148D01*
X41605449Y-56000000D01*
X41585683Y-55748852D01*
X41526873Y-55503889D01*
X41484579Y-55401781D01*
X41430466Y-55271140D01*
X41298839Y-55056346D01*
X41298838Y-55056343D01*
X41248783Y-54997737D01*
X41135224Y-54864776D01*
X40952401Y-54708630D01*
X40943656Y-54701161D01*
X40943653Y-54701160D01*
X40728859Y-54569533D01*
X40496110Y-54473126D01*
X40251151Y-54414317D01*
X40000000Y-54394551D01*
X39748848Y-54414317D01*
X39539072Y-54464680D01*
X39469289Y-54461189D01*
X39422444Y-54431787D01*
X36486767Y-51496110D01*
X35990656Y-50999999D01*
X38394551Y-50999999D01*
X38414317Y-51251151D01*
X38473126Y-51496110D01*
X38569533Y-51728859D01*
X38701160Y-51943653D01*
X38701161Y-51943656D01*
X38756604Y-52008571D01*
X38864776Y-52135224D01*
X38941982Y-52201164D01*
X39056343Y-52298838D01*
X39056346Y-52298839D01*
X39271140Y-52430466D01*
X39417148Y-52490944D01*
X39503889Y-52526873D01*
X39748852Y-52585683D01*
X40000000Y-52605449D01*
X40251148Y-52585683D01*
X40496111Y-52526873D01*
X40728859Y-52430466D01*
X40943659Y-52298836D01*
X41135224Y-52135224D01*
X41298836Y-51943659D01*
X41379427Y-51812147D01*
X41411561Y-51759710D01*
X41463373Y-51712835D01*
X41517288Y-51700500D01*
X48258481Y-51700500D01*
X48325520Y-51720185D01*
X48346162Y-51736819D01*
X52308630Y-55699287D01*
X52337990Y-55746013D01*
X52374209Y-55849519D01*
X52374211Y-55849522D01*
X52470184Y-56002262D01*
X52597738Y-56129816D01*
X52750478Y-56225789D01*
X52852557Y-56261508D01*
X52920745Y-56285368D01*
X52920750Y-56285369D01*
X53099996Y-56305565D01*
X53100000Y-56305565D01*
X53100004Y-56305565D01*
X53279249Y-56285369D01*
X53279252Y-56285368D01*
X53279255Y-56285368D01*
X53449522Y-56225789D01*
X53602262Y-56129816D01*
X53729816Y-56002262D01*
X53825789Y-55849522D01*
X53885368Y-55679255D01*
X53890760Y-55631401D01*
X53905565Y-55500003D01*
X53905565Y-55499996D01*
X53885369Y-55320750D01*
X53885368Y-55320745D01*
X53851398Y-55223664D01*
X53825789Y-55150478D01*
X53729816Y-54997738D01*
X53602262Y-54870184D01*
X53488716Y-54798838D01*
X53449519Y-54774209D01*
X53346013Y-54737990D01*
X53299287Y-54708630D01*
X51224064Y-52633407D01*
X49590657Y-51000000D01*
X59894551Y-51000000D01*
X59914317Y-51251151D01*
X59973126Y-51496110D01*
X60069533Y-51728859D01*
X60201160Y-51943653D01*
X60201161Y-51943656D01*
X60256604Y-52008571D01*
X60364776Y-52135224D01*
X60441982Y-52201164D01*
X60556343Y-52298838D01*
X60556346Y-52298839D01*
X60771140Y-52430466D01*
X60917148Y-52490944D01*
X61003889Y-52526873D01*
X61248852Y-52585683D01*
X61500000Y-52605449D01*
X61751148Y-52585683D01*
X61996111Y-52526873D01*
X62228859Y-52430466D01*
X62443659Y-52298836D01*
X62635224Y-52135224D01*
X62798836Y-51943659D01*
X62930466Y-51728859D01*
X63026873Y-51496111D01*
X63085683Y-51251148D01*
X63105449Y-51000000D01*
X63105449Y-50999999D01*
X64394551Y-50999999D01*
X64414317Y-51251151D01*
X64473126Y-51496110D01*
X64569533Y-51728859D01*
X64701160Y-51943653D01*
X64701161Y-51943656D01*
X64756604Y-52008571D01*
X64864776Y-52135224D01*
X64941982Y-52201164D01*
X65056343Y-52298838D01*
X65056346Y-52298839D01*
X65271140Y-52430466D01*
X65417148Y-52490944D01*
X65503889Y-52526873D01*
X65748852Y-52585683D01*
X66000000Y-52605449D01*
X66251148Y-52585683D01*
X66496111Y-52526873D01*
X66728859Y-52430466D01*
X66943659Y-52298836D01*
X67135224Y-52135224D01*
X67298836Y-51943659D01*
X67430466Y-51728859D01*
X67526873Y-51496111D01*
X67585683Y-51251148D01*
X67605449Y-51000000D01*
X67585683Y-50748852D01*
X67526873Y-50503889D01*
X67486129Y-50405523D01*
X67430466Y-50271140D01*
X67298839Y-50056346D01*
X67298838Y-50056343D01*
X67261875Y-50013066D01*
X67135224Y-49864776D01*
X66970815Y-49724357D01*
X66943656Y-49701161D01*
X66943653Y-49701160D01*
X66728859Y-49569533D01*
X66496110Y-49473126D01*
X66251151Y-49414317D01*
X66000000Y-49394551D01*
X65748848Y-49414317D01*
X65503889Y-49473126D01*
X65271140Y-49569533D01*
X65056346Y-49701160D01*
X65056343Y-49701161D01*
X64864776Y-49864776D01*
X64701161Y-50056343D01*
X64701160Y-50056346D01*
X64569533Y-50271140D01*
X64473126Y-50503889D01*
X64414317Y-50748848D01*
X64394551Y-50999999D01*
X63105449Y-50999999D01*
X63085683Y-50748852D01*
X63026873Y-50503889D01*
X62986129Y-50405523D01*
X62930466Y-50271140D01*
X62798839Y-50056346D01*
X62798838Y-50056343D01*
X62761875Y-50013066D01*
X62635224Y-49864776D01*
X62470815Y-49724357D01*
X62443656Y-49701161D01*
X62443653Y-49701160D01*
X62228859Y-49569533D01*
X61996110Y-49473126D01*
X61751151Y-49414317D01*
X61500000Y-49394551D01*
X61248848Y-49414317D01*
X61003889Y-49473126D01*
X60771140Y-49569533D01*
X60556346Y-49701160D01*
X60556343Y-49701161D01*
X60364776Y-49864776D01*
X60201161Y-50056343D01*
X60201160Y-50056346D01*
X60069533Y-50271140D01*
X59973126Y-50503889D01*
X59914317Y-50748848D01*
X59894551Y-51000000D01*
X49590657Y-51000000D01*
X49111598Y-50520941D01*
X49109064Y-50518250D01*
X49067929Y-50471817D01*
X49067928Y-50471816D01*
X49067924Y-50471812D01*
X49016896Y-50436591D01*
X49013887Y-50434377D01*
X48965060Y-50396124D01*
X48965055Y-50396120D01*
X48955813Y-50391961D01*
X48936266Y-50380936D01*
X48927931Y-50375183D01*
X48927932Y-50375183D01*
X48927930Y-50375182D01*
X48869941Y-50353189D01*
X48866490Y-50351759D01*
X48809930Y-50326304D01*
X48799946Y-50324474D01*
X48778343Y-50318451D01*
X48768874Y-50314860D01*
X48768870Y-50314859D01*
X48707313Y-50307384D01*
X48703612Y-50306821D01*
X48642608Y-50295642D01*
X48642603Y-50295642D01*
X48580697Y-50299387D01*
X48576952Y-50299500D01*
X41517288Y-50299500D01*
X41450249Y-50279815D01*
X41411561Y-50240290D01*
X41298839Y-50056346D01*
X41298838Y-50056343D01*
X41261875Y-50013066D01*
X41135224Y-49864776D01*
X40970815Y-49724357D01*
X40943656Y-49701161D01*
X40943653Y-49701160D01*
X40728859Y-49569533D01*
X40496110Y-49473126D01*
X40251151Y-49414317D01*
X40000000Y-49394551D01*
X39748848Y-49414317D01*
X39503889Y-49473126D01*
X39271140Y-49569533D01*
X39056346Y-49701160D01*
X39056343Y-49701161D01*
X38864776Y-49864776D01*
X38701161Y-50056343D01*
X38701160Y-50056346D01*
X38569533Y-50271140D01*
X38473126Y-50503889D01*
X38414317Y-50748848D01*
X38394551Y-50999999D01*
X35990656Y-50999999D01*
X33531598Y-48540941D01*
X33529064Y-48538250D01*
X33487929Y-48491817D01*
X33487928Y-48491816D01*
X33487924Y-48491812D01*
X33436896Y-48456591D01*
X33433887Y-48454377D01*
X33385060Y-48416124D01*
X33385055Y-48416120D01*
X33375813Y-48411961D01*
X33356266Y-48400936D01*
X33347931Y-48395183D01*
X33347932Y-48395183D01*
X33347930Y-48395182D01*
X33289941Y-48373189D01*
X33286490Y-48371759D01*
X33229930Y-48346304D01*
X33219946Y-48344474D01*
X33198343Y-48338451D01*
X33188874Y-48334860D01*
X33188870Y-48334859D01*
X33127313Y-48327384D01*
X33123612Y-48326821D01*
X33062608Y-48315642D01*
X33062603Y-48315642D01*
X33000697Y-48319387D01*
X32996952Y-48319500D01*
X23121519Y-48319500D01*
X23054480Y-48299815D01*
X23033838Y-48283181D01*
X22858140Y-48107483D01*
X22681598Y-47930941D01*
X22679064Y-47928250D01*
X22637929Y-47881817D01*
X22637928Y-47881816D01*
X22637924Y-47881812D01*
X22586896Y-47846591D01*
X22583887Y-47844377D01*
X22535060Y-47806124D01*
X22535055Y-47806120D01*
X22525813Y-47801961D01*
X22506266Y-47790936D01*
X22497931Y-47785183D01*
X22497932Y-47785183D01*
X22497930Y-47785182D01*
X22439941Y-47763189D01*
X22436490Y-47761759D01*
X22379930Y-47736304D01*
X22369946Y-47734474D01*
X22348343Y-47728451D01*
X22338874Y-47724860D01*
X22338870Y-47724859D01*
X22277313Y-47717384D01*
X22273612Y-47716821D01*
X22212608Y-47705642D01*
X22212599Y-47705641D01*
X22205485Y-47706072D01*
X22137379Y-47690469D01*
X22088521Y-47640523D01*
X22074422Y-47572091D01*
X22078223Y-47550215D01*
X22125063Y-47375408D01*
X22145659Y-47140000D01*
X22125063Y-46904592D01*
X22066584Y-46686344D01*
X22063905Y-46676344D01*
X22063904Y-46676343D01*
X22063903Y-46676337D01*
X21964035Y-46462171D01*
X21828495Y-46268599D01*
X21828494Y-46268597D01*
X21661402Y-46101506D01*
X21661395Y-46101501D01*
X21467834Y-45965967D01*
X21467830Y-45965965D01*
X21417413Y-45942455D01*
X21253663Y-45866097D01*
X21253659Y-45866096D01*
X21253655Y-45866094D01*
X21025413Y-45804938D01*
X21025403Y-45804936D01*
X20790001Y-45784341D01*
X20789999Y-45784341D01*
X20554596Y-45804936D01*
X20554586Y-45804938D01*
X20326344Y-45866094D01*
X20326335Y-45866098D01*
X20112171Y-45965964D01*
X20112169Y-45965965D01*
X19918600Y-46101503D01*
X19796673Y-46223430D01*
X19735350Y-46256914D01*
X19665658Y-46251930D01*
X19609725Y-46210058D01*
X19592810Y-46179081D01*
X19543797Y-46047671D01*
X19543793Y-46047664D01*
X19457547Y-45932455D01*
X19457544Y-45932452D01*
X19342335Y-45846206D01*
X19342328Y-45846202D01*
X19207482Y-45795908D01*
X19207483Y-45795908D01*
X19147883Y-45789501D01*
X19147881Y-45789500D01*
X19147873Y-45789500D01*
X19147864Y-45789500D01*
X17352129Y-45789500D01*
X17352123Y-45789501D01*
X17292516Y-45795908D01*
X17157671Y-45846202D01*
X17157664Y-45846206D01*
X17042455Y-45932452D01*
X17042452Y-45932455D01*
X16956206Y-46047664D01*
X16956202Y-46047671D01*
X16905908Y-46182517D01*
X16899501Y-46242116D01*
X16899500Y-46242135D01*
X16899500Y-48037870D01*
X16899501Y-48037876D01*
X16905908Y-48097483D01*
X16956202Y-48232328D01*
X16956206Y-48232335D01*
X17042452Y-48347544D01*
X17042455Y-48347547D01*
X17157664Y-48433793D01*
X17157671Y-48433797D01*
X17289081Y-48482810D01*
X17345015Y-48524681D01*
X17369432Y-48590145D01*
X17354580Y-48658418D01*
X17333430Y-48686673D01*
X17211503Y-48808600D01*
X17075965Y-49002169D01*
X17075964Y-49002171D01*
X16976098Y-49216335D01*
X16976094Y-49216344D01*
X16914938Y-49444586D01*
X16914936Y-49444596D01*
X16894341Y-49679999D01*
X16894341Y-49680000D01*
X16914936Y-49915403D01*
X16914938Y-49915413D01*
X16976094Y-50143655D01*
X16976096Y-50143659D01*
X16976097Y-50143663D01*
X17060411Y-50324474D01*
X17075965Y-50357830D01*
X17075967Y-50357834D01*
X17167273Y-50488231D01*
X17211501Y-50551396D01*
X17211506Y-50551402D01*
X17378597Y-50718493D01*
X17378603Y-50718498D01*
X17564158Y-50848425D01*
X17607783Y-50903002D01*
X17614977Y-50972500D01*
X17583454Y-51034855D01*
X17564158Y-51051575D01*
X17378597Y-51181505D01*
X17211505Y-51348597D01*
X17075965Y-51542169D01*
X17075964Y-51542171D01*
X16976098Y-51756335D01*
X16976094Y-51756344D01*
X16914938Y-51984586D01*
X16914936Y-51984596D01*
X16894341Y-52219999D01*
X16894341Y-52220000D01*
X16914936Y-52455403D01*
X16914938Y-52455413D01*
X16976094Y-52683655D01*
X16976096Y-52683659D01*
X16976097Y-52683663D01*
X17063073Y-52870184D01*
X17075965Y-52897830D01*
X17075967Y-52897834D01*
X17117672Y-52957394D01*
X17211501Y-53091396D01*
X17211506Y-53091402D01*
X17378597Y-53258493D01*
X17378603Y-53258498D01*
X17564158Y-53388425D01*
X17607783Y-53443002D01*
X17614977Y-53512500D01*
X17583454Y-53574855D01*
X17564158Y-53591575D01*
X17378597Y-53721505D01*
X17211505Y-53888597D01*
X17075965Y-54082169D01*
X17075964Y-54082171D01*
X16976098Y-54296335D01*
X16976094Y-54296344D01*
X16914938Y-54524586D01*
X16914936Y-54524596D01*
X16894341Y-54759999D01*
X16894341Y-54760000D01*
X16914936Y-54995403D01*
X16914938Y-54995413D01*
X16976094Y-55223655D01*
X16976096Y-55223659D01*
X16976097Y-55223663D01*
X17056004Y-55395023D01*
X17075965Y-55437830D01*
X17075967Y-55437834D01*
X17119499Y-55500003D01*
X17211501Y-55631396D01*
X17211506Y-55631402D01*
X17378597Y-55798493D01*
X17378603Y-55798498D01*
X17564158Y-55928425D01*
X17607783Y-55983002D01*
X17614977Y-56052500D01*
X17583454Y-56114855D01*
X17564158Y-56131575D01*
X17378597Y-56261505D01*
X17211505Y-56428597D01*
X17075965Y-56622169D01*
X17075964Y-56622171D01*
X16976098Y-56836335D01*
X16976094Y-56836344D01*
X16914938Y-57064586D01*
X16914936Y-57064596D01*
X16894341Y-57299999D01*
X16894341Y-57300000D01*
X16914936Y-57535403D01*
X16914938Y-57535413D01*
X16976094Y-57763655D01*
X16976096Y-57763659D01*
X16976097Y-57763663D01*
X17049346Y-57920745D01*
X17075965Y-57977830D01*
X17075967Y-57977834D01*
X17184281Y-58132521D01*
X17211504Y-58171400D01*
X17211506Y-58171402D01*
X17378597Y-58338493D01*
X17378603Y-58338498D01*
X17564158Y-58468425D01*
X17607783Y-58523002D01*
X17614977Y-58592500D01*
X17583454Y-58654855D01*
X17564158Y-58671575D01*
X17378597Y-58801505D01*
X17211505Y-58968597D01*
X17075965Y-59162169D01*
X17075964Y-59162171D01*
X16976098Y-59376335D01*
X16976094Y-59376344D01*
X16914938Y-59604586D01*
X16914936Y-59604596D01*
X16894341Y-59839999D01*
X16894341Y-59840000D01*
X16914936Y-60075403D01*
X16914938Y-60075413D01*
X16976094Y-60303655D01*
X16976096Y-60303659D01*
X16976097Y-60303663D01*
X16980000Y-60312032D01*
X17075965Y-60517830D01*
X17075967Y-60517834D01*
X17184281Y-60672521D01*
X17211501Y-60711396D01*
X17211506Y-60711402D01*
X17378597Y-60878493D01*
X17378603Y-60878498D01*
X17564158Y-61008425D01*
X17607783Y-61063002D01*
X17614977Y-61132500D01*
X17583454Y-61194855D01*
X17564158Y-61211575D01*
X17378597Y-61341505D01*
X17211505Y-61508597D01*
X17075965Y-61702169D01*
X17075964Y-61702171D01*
X16976098Y-61916335D01*
X16976094Y-61916344D01*
X16914938Y-62144586D01*
X16914936Y-62144596D01*
X16894341Y-62379999D01*
X16894341Y-62380000D01*
X16914936Y-62615403D01*
X16914938Y-62615413D01*
X16976094Y-62843655D01*
X16976096Y-62843659D01*
X16976097Y-62843663D01*
X17056004Y-63015023D01*
X17075965Y-63057830D01*
X17075967Y-63057834D01*
X17157722Y-63174591D01*
X17211504Y-63251400D01*
X17211506Y-63251402D01*
X17378597Y-63418493D01*
X17378603Y-63418498D01*
X17564158Y-63548425D01*
X17607783Y-63603002D01*
X17614977Y-63672500D01*
X17583454Y-63734855D01*
X17564158Y-63751575D01*
X17378597Y-63881505D01*
X17211505Y-64048597D01*
X17075965Y-64242169D01*
X17075964Y-64242171D01*
X16976098Y-64456335D01*
X16976094Y-64456344D01*
X16914938Y-64684586D01*
X16914936Y-64684596D01*
X16894341Y-64919999D01*
X16894341Y-64920000D01*
X16914936Y-65155403D01*
X16914938Y-65155413D01*
X16976094Y-65383655D01*
X16976096Y-65383659D01*
X16976097Y-65383663D01*
X17056004Y-65555023D01*
X17075965Y-65597830D01*
X17075967Y-65597834D01*
X17153275Y-65708240D01*
X17211501Y-65791396D01*
X17211506Y-65791402D01*
X17378597Y-65958493D01*
X17378603Y-65958498D01*
X17564158Y-66088425D01*
X17607783Y-66143002D01*
X17614977Y-66212500D01*
X17583454Y-66274855D01*
X17564158Y-66291575D01*
X17378597Y-66421505D01*
X17211505Y-66588597D01*
X17075965Y-66782169D01*
X17075964Y-66782171D01*
X16976098Y-66996335D01*
X16976094Y-66996344D01*
X16914938Y-67224586D01*
X16914936Y-67224596D01*
X16894341Y-67459999D01*
X16894341Y-67460000D01*
X16914936Y-67695403D01*
X16914938Y-67695413D01*
X16976094Y-67923655D01*
X16976096Y-67923659D01*
X16976097Y-67923663D01*
X17056004Y-68095023D01*
X17075965Y-68137830D01*
X17075967Y-68137834D01*
X17147708Y-68240290D01*
X17211504Y-68331400D01*
X17211506Y-68331402D01*
X17378597Y-68498493D01*
X17378603Y-68498498D01*
X17564594Y-68628730D01*
X17608219Y-68683307D01*
X17615413Y-68752805D01*
X17583890Y-68815160D01*
X17564595Y-68831880D01*
X17378922Y-68961890D01*
X17378920Y-68961891D01*
X17211891Y-69128920D01*
X17211886Y-69128926D01*
X17076400Y-69322420D01*
X17076399Y-69322422D01*
X16976570Y-69536507D01*
X16976567Y-69536513D01*
X16919364Y-69749999D01*
X16919364Y-69750000D01*
X17816314Y-69750000D01*
X17790507Y-69790156D01*
X17750000Y-69928111D01*
X17750000Y-70071889D01*
X17790507Y-70209844D01*
X17816314Y-70250000D01*
X16919364Y-70250000D01*
X16976567Y-70463486D01*
X16976570Y-70463492D01*
X17076399Y-70677578D01*
X17211894Y-70871082D01*
X17378917Y-71038105D01*
X17564595Y-71168119D01*
X17608219Y-71222696D01*
X17615412Y-71292195D01*
X17583890Y-71354549D01*
X17564595Y-71371269D01*
X17378594Y-71501508D01*
X17211505Y-71668597D01*
X17075965Y-71862169D01*
X17075964Y-71862171D01*
X16976098Y-72076335D01*
X16976094Y-72076344D01*
X16914938Y-72304586D01*
X16914936Y-72304596D01*
X16894341Y-72539999D01*
X16894341Y-72540000D01*
X16914936Y-72775403D01*
X16914938Y-72775413D01*
X16976094Y-73003655D01*
X16976096Y-73003659D01*
X16976097Y-73003663D01*
X17056375Y-73175819D01*
X17075965Y-73217830D01*
X17075967Y-73217834D01*
X17184281Y-73372521D01*
X17211501Y-73411396D01*
X17211506Y-73411402D01*
X17378597Y-73578493D01*
X17378603Y-73578498D01*
X17564158Y-73708425D01*
X17607783Y-73763002D01*
X17614977Y-73832500D01*
X17583454Y-73894855D01*
X17564158Y-73911575D01*
X17378597Y-74041505D01*
X17211505Y-74208597D01*
X17075965Y-74402169D01*
X17075964Y-74402171D01*
X16976098Y-74616335D01*
X16976094Y-74616344D01*
X16914938Y-74844586D01*
X16914936Y-74844596D01*
X16894341Y-75079999D01*
X16894341Y-75080000D01*
X16914936Y-75315403D01*
X16914938Y-75315413D01*
X16976094Y-75543655D01*
X16976096Y-75543659D01*
X16976097Y-75543663D01*
X17029638Y-75658481D01*
X17075965Y-75757830D01*
X17075967Y-75757834D01*
X17121182Y-75822407D01*
X17211501Y-75951396D01*
X17211506Y-75951402D01*
X17378597Y-76118493D01*
X17378603Y-76118498D01*
X17564158Y-76248425D01*
X17607783Y-76303002D01*
X17614977Y-76372500D01*
X17583454Y-76434855D01*
X17564158Y-76451575D01*
X17378597Y-76581505D01*
X17211505Y-76748597D01*
X17075965Y-76942169D01*
X17075964Y-76942171D01*
X16976098Y-77156335D01*
X16976094Y-77156344D01*
X16914938Y-77384586D01*
X16914936Y-77384596D01*
X16894341Y-77619999D01*
X16894341Y-77620000D01*
X16914936Y-77855403D01*
X16914938Y-77855413D01*
X16976094Y-78083655D01*
X16976096Y-78083659D01*
X16976097Y-78083663D01*
X16980000Y-78092032D01*
X17075965Y-78297830D01*
X17075967Y-78297834D01*
X17184281Y-78452521D01*
X17211504Y-78491400D01*
X17211506Y-78491402D01*
X17378597Y-78658493D01*
X17378603Y-78658498D01*
X17564158Y-78788425D01*
X17607783Y-78843002D01*
X17614977Y-78912500D01*
X17583454Y-78974855D01*
X17564158Y-78991575D01*
X17378597Y-79121505D01*
X17211505Y-79288597D01*
X17075965Y-79482169D01*
X17075964Y-79482171D01*
X16976098Y-79696335D01*
X16976094Y-79696344D01*
X16914938Y-79924586D01*
X16914936Y-79924596D01*
X16894341Y-80159999D01*
X16894341Y-80160000D01*
X16914936Y-80395403D01*
X16914938Y-80395413D01*
X16976094Y-80623655D01*
X16976096Y-80623659D01*
X16976097Y-80623663D01*
X17025041Y-80728623D01*
X17075965Y-80837830D01*
X17075967Y-80837834D01*
X17150063Y-80943653D01*
X17211501Y-81031396D01*
X17211506Y-81031402D01*
X17378597Y-81198493D01*
X17378603Y-81198498D01*
X17564158Y-81328425D01*
X17607783Y-81383002D01*
X17614977Y-81452500D01*
X17583454Y-81514855D01*
X17564158Y-81531575D01*
X17378597Y-81661505D01*
X17211505Y-81828597D01*
X17075965Y-82022169D01*
X17075964Y-82022171D01*
X16976098Y-82236335D01*
X16976094Y-82236344D01*
X16914938Y-82464586D01*
X16914936Y-82464596D01*
X16894341Y-82699999D01*
X16894341Y-82700000D01*
X16914936Y-82935403D01*
X16914938Y-82935413D01*
X16976094Y-83163655D01*
X16976096Y-83163659D01*
X16976097Y-83163663D01*
X17025041Y-83268623D01*
X17075965Y-83377830D01*
X17075967Y-83377834D01*
X17150917Y-83484873D01*
X17211501Y-83571396D01*
X17211506Y-83571402D01*
X17378597Y-83738493D01*
X17378603Y-83738498D01*
X17564158Y-83868425D01*
X17607783Y-83923002D01*
X17614977Y-83992500D01*
X17583454Y-84054855D01*
X17564158Y-84071575D01*
X17378597Y-84201505D01*
X17211505Y-84368597D01*
X17075965Y-84562169D01*
X17075964Y-84562171D01*
X16976098Y-84776335D01*
X16976094Y-84776344D01*
X16914938Y-85004586D01*
X16914936Y-85004596D01*
X16894341Y-85239999D01*
X16894341Y-85240000D01*
X16914936Y-85475403D01*
X16914938Y-85475413D01*
X16976094Y-85703655D01*
X16976096Y-85703659D01*
X16976097Y-85703663D01*
X17056004Y-85875023D01*
X17075965Y-85917830D01*
X17075967Y-85917834D01*
X17152414Y-86027011D01*
X17211501Y-86111396D01*
X17211506Y-86111402D01*
X17378597Y-86278493D01*
X17378603Y-86278498D01*
X17564158Y-86408425D01*
X17607783Y-86463002D01*
X17614977Y-86532500D01*
X17583454Y-86594855D01*
X17564158Y-86611575D01*
X17378597Y-86741505D01*
X17211505Y-86908597D01*
X17075965Y-87102169D01*
X17075964Y-87102171D01*
X16976098Y-87316335D01*
X16976094Y-87316344D01*
X16914938Y-87544586D01*
X16914936Y-87544596D01*
X16894341Y-87779999D01*
X16894341Y-87780000D01*
X16914936Y-88015403D01*
X16914938Y-88015413D01*
X16976094Y-88243655D01*
X16976096Y-88243659D01*
X16976097Y-88243663D01*
X17056004Y-88415023D01*
X17075965Y-88457830D01*
X17075967Y-88457834D01*
X17184281Y-88612521D01*
X17211501Y-88651396D01*
X17211506Y-88651402D01*
X17378597Y-88818493D01*
X17378603Y-88818498D01*
X17564158Y-88948425D01*
X17607783Y-89003002D01*
X17614977Y-89072500D01*
X17583454Y-89134855D01*
X17564158Y-89151575D01*
X17378597Y-89281505D01*
X17211505Y-89448597D01*
X17075965Y-89642169D01*
X17075964Y-89642171D01*
X16976098Y-89856335D01*
X16976094Y-89856344D01*
X16914938Y-90084586D01*
X16914936Y-90084596D01*
X16894341Y-90319999D01*
X16894341Y-90320000D01*
X16914936Y-90555403D01*
X16914938Y-90555413D01*
X16976094Y-90783655D01*
X16976096Y-90783659D01*
X16976097Y-90783663D01*
X17056004Y-90955023D01*
X17075965Y-90997830D01*
X17075967Y-90997834D01*
X17127949Y-91072071D01*
X17211504Y-91191400D01*
X17211506Y-91191402D01*
X17378597Y-91358493D01*
X17378603Y-91358498D01*
X17564158Y-91488425D01*
X17607783Y-91543002D01*
X17614977Y-91612500D01*
X17583454Y-91674855D01*
X17564158Y-91691575D01*
X17378597Y-91821505D01*
X17211505Y-91988597D01*
X17075965Y-92182169D01*
X17075964Y-92182171D01*
X16976098Y-92396335D01*
X16976094Y-92396344D01*
X16914938Y-92624586D01*
X16914936Y-92624596D01*
X16894341Y-92859999D01*
X16894341Y-92860000D01*
X15000500Y-92860000D01*
X15000500Y-45002704D01*
X15000736Y-44997299D01*
X15004477Y-44954532D01*
X15016918Y-44828221D01*
X15020541Y-44808314D01*
X15038165Y-44742540D01*
X15038655Y-44740822D01*
X15066685Y-44648419D01*
X15072948Y-44632049D01*
X15104413Y-44564573D01*
X15105872Y-44561653D01*
X15150764Y-44477666D01*
X15154657Y-44471331D01*
X15187837Y-44423945D01*
X15200994Y-44405155D01*
X15203827Y-44401420D01*
X15263122Y-44329168D01*
X15267162Y-44324710D01*
X15324710Y-44267162D01*
X15329168Y-44263122D01*
X15401420Y-44203827D01*
X15405155Y-44200994D01*
X15471334Y-44154654D01*
X15477666Y-44150764D01*
X15561653Y-44105872D01*
X15564573Y-44104413D01*
X15632049Y-44072948D01*
X15648419Y-44066685D01*
X15740822Y-44038655D01*
X15742540Y-44038165D01*
X15808318Y-44020540D01*
X15828221Y-44016918D01*
X15941812Y-44005731D01*
X15954568Y-44004474D01*
X15997305Y-44000735D01*
X16002706Y-44000500D01*
X22948430Y-44000500D01*
X23015469Y-44020185D01*
G37*
%TD.AperFunction*%
%TD*%
M02*
